<svg id="Layer_1" data-name="Layer 1" xmlns="http://www.w3.org/2000/svg" viewBox="0 0 41.85 83.54"><defs><style>.cls-1{fill:#231f20;}.cls-2{fill:none;stroke:#231f20;}</style></defs><path class="cls-1" d="M314.7,363.16c-4.81,0-12.59-.83-23.12-2.49-3.23-.46-5.16-1.79-5.73-4-.35-1.3.61-2.4,2.85-3.25,3.75-1.41,6.22-2.41,7.33-3,14.18-8,21.54-16.49,21.88-25.24-2.67.24-5.2.37-7.53.37-14.84,0-23.37-4-25.36-11.9-1-4-1.21-9.94-.54-17.72,1-10.85,4.46-16.35,10.13-16.35,6.8,0,13.23,4.27,19.14,12.68a67.21,67.21,0,0,1,9.41,21c2.6,10.06,3.38,19.43,2.31,27.84a42.83,42.83,0,0,1-5.2,16.56C317.94,361.44,316.17,363.16,314.7,363.16Zm4.22-39v.55c0,9.33-7.58,18.3-22.41,26.67-1.18.61-3.62,1.61-7.46,3.05-1.67.63-2.43,1.33-2.23,2.06.46,1.77,2.07,2.83,4.91,3.24,10.48,1.64,18.21,2.47,23,2.47.6,0,2-.64,4.71-5A41.84,41.84,0,0,0,324.48,341c1-8.29.28-17.53-2.29-27.47h0a66.2,66.2,0,0,0-9.27-20.7c-5.7-8.12-11.86-12.25-18.31-12.25-5.07,0-8.14,5.2-9.13,15.45-.67,7.66-.49,13.5.51,17.37,1.86,7.4,10.07,11.15,24.39,11.15,2.46,0,5.15-.14,8-.42Z" transform="translate(-284.08 -279.62)"/><path class="cls-2" d="M310.21,306.36a21.41,21.41,0,0,0-7.57-7.45,13.27,13.27,0,0,0-6.2-2q-6.09,0-4.55,6,.94,3.78,13.47,3.78A38.68,38.68,0,0,0,310.21,306.36Z" transform="translate(-284.08 -279.62)"/></svg>