  0
SECTION
  2
HEADER
  9
$ACADVER
  1
AC1024
  9
$ACADMAINTVER
 70
     6
  9
$DWGCODEPAGE
  3
UNDEFINED
  9
$INSBASE
 10
0.0
 20
0.0
 30
0.0
  9
$EXTMIN
 10
1.000000000000000E+20
 20
1.000000000000000E+20
 30
1.000000000000000E+20
  9
$EXTMAX
 10
-1.000000000000000E+20
 20
-1.000000000000000E+20
 30
-1.000000000000000E+20
  9
$LIMMIN
 10
0.0
 20
0.0
  9
$LIMMAX
 10
12.0
 20
9.0
  9
$ORTHOMODE
 70
     0
  9
$REGENMODE
 70
     1
  9
$FILLMODE
 70
     1
  9
$QTEXTMODE
 70
     0
  9
$MIRRTEXT
 70
     1
  9
$LTSCALE
 40
1.0
  9
$ATTMODE
 70
     1
  9
$TEXTSIZE
 40
0.2
  9
$TRACEWID
 40
0.05
  9
$TEXTSTYLE
  7
Standard
  9
$CLAYER
  8
0
  9
$CELTYPE
  6
ByLayer
  9
$CECOLOR
 62
   256
  9
$CELTSCALE
 40
1.0
  9
$DISPSILH
 70
     0
  9
$DIMSCALE
 40
1.0
  9
$DIMASZ
 40
0.18
  9
$DIMEXO
 40
0.0625
  9
$DIMDLI
 40
0.38
  9
$DIMRND
 40
0.0
  9
$DIMDLE
 40
0.0
  9
$DIMEXE
 40
0.18
  9
$DIMTP
 40
0.0
  9
$DIMTM
 40
0.0
  9
$DIMTXT
 40
0.18
  9
$DIMCEN
 40
0.09
  9
$DIMTSZ
 40
0.0
  9
$DIMTOL
 70
     0
  9
$DIMLIM
 70
     0
  9
$DIMTIH
 70
     1
  9
$DIMTOH
 70
     1
  9
$DIMSE1
 70
     0
  9
$DIMSE2
 70
     0
  9
$DIMTAD
 70
     0
  9
$DIMZIN
 70
     0
  9
$DIMBLK
  1

  9
$DIMASO
 70
     1
  9
$DIMSHO
 70
     1
  9
$DIMPOST
  1

  9
$DIMAPOST
  1

  9
$DIMALT
 70
     0
  9
$DIMALTD
 70
     2
  9
$DIMALTF
 40
25.4
  9
$DIMLFAC
 40
1.0
  9
$DIMTOFL
 70
     0
  9
$DIMTVP
 40
0.0
  9
$DIMTIX
 70
     0
  9
$DIMSOXD
 70
     0
  9
$DIMSAH
 70
     0
  9
$DIMBLK1
  1

  9
$DIMBLK2
  1

  9
$DIMSTYLE
  2
Standard
  9
$DIMCLRD
 70
     0
  9
$DIMCLRE
 70
     0
  9
$DIMCLRT
 70
     0
  9
$DIMTFAC
 40
1.0
  9
$DIMGAP
 40
0.09
  9
$DIMJUST
 70
     0
  9
$DIMSD1
 70
     0
  9
$DIMSD2
 70
     0
  9
$DIMTOLJ
 70
     1
  9
$DIMTZIN
 70
     0
  9
$DIMALTZ
 70
     0
  9
$DIMALTTZ
 70
     0
  9
$DIMUPT
 70
     0
  9
$DIMDEC
 70
     4
  9
$DIMTDEC
 70
     4
  9
$DIMALTU
 70
     2
  9
$DIMALTTD
 70
     2
  9
$DIMTXSTY
  7
Standard
  9
$DIMAUNIT
 70
     0
  9
$DIMADEC
 70
     0
  9
$DIMALTRND
 40
0.0
  9
$DIMAZIN
 70
     0
  9
$DIMDSEP
 70
    46
  9
$DIMATFIT
 70
     3
  9
$DIMFRAC
 70
     0
  9
$DIMLDRBLK
  1

  9
$DIMLUNIT
 70
     2
  9
$DIMLWD
 70
    -2
  9
$DIMLWE
 70
    -2
  9
$DIMTMOVE
 70
     0
  9
$DIMFXL
 40
1.0
  9
$DIMFXLON
 70
     0
  9
$DIMJOGANG
 40
0.7853981633974483
  9
$DIMTFILL
 70
     0
  9
$DIMTFILLCLR
 70
     0
  9
$DIMARCSYM
 70
     0
  9
$DIMLTYPE
  6

  9
$DIMLTEX1
  6

  9
$DIMLTEX2
  6

  9
$DIMTXTDIRECTION
 70
     0
  9
$LUNITS
 70
     2
  9
$LUPREC
 70
     4
  9
$SKETCHINC
 40
0.1
  9
$FILLETRAD
 40
0.5
  9
$AUNITS
 70
     0
  9
$AUPREC
 70
     0
  9
$MENU
  1
.
  9
$ELEVATION
 40
0.0
  9
$PELEVATION
 40
0.0
  9
$THICKNESS
 40
0.0
  9
$LIMCHECK
 70
     0
  9
$CHAMFERA
 40
0.5
  9
$CHAMFERB
 40
0.5
  9
$CHAMFERC
 40
1.0
  9
$CHAMFERD
 40
0.0
  9
$SKPOLY
 70
     0
  9
$TDCREATE
 40
2458951.473391192
  9
$TDUCREATE
 40
2458951.806724537
  9
$TDUPDATE
 40
2458951.473391192
  9
$TDUUPDATE
 40
2458951.806724537
  9
$TDINDWG
 40
0.0000000116
  9
$TDUSRTIMER
 40
0.0000000116
  9
$USRTIMER
 70
     1
  9
$ANGBASE
 50
0.0
  9
$ANGDIR
 70
     0
  9
$PDMODE
 70
     0
  9
$PDSIZE
 40
0.0
  9
$PLINEWID
 40
0.0
  9
$SPLFRAME
 70
     0
  9
$SPLINETYPE
 70
     6
  9
$SPLINESEGS
 70
     8
  9
$HANDSEED
  5
48
  9
$SURFTAB1
 70
     6
  9
$SURFTAB2
 70
     6
  9
$SURFTYPE
 70
     6
  9
$SURFU
 70
     6
  9
$SURFV
 70
     6
  9
$UCSBASE
  2

  9
$UCSNAME
  2

  9
$UCSORG
 10
0.0
 20
0.0
 30
0.0
  9
$UCSXDIR
 10
1.0
 20
0.0
 30
0.0
  9
$UCSYDIR
 10
0.0
 20
1.0
 30
0.0
  9
$UCSORTHOREF
  2

  9
$UCSORTHOVIEW
 70
     0
  9
$UCSORGTOP
 10
0.0
 20
0.0
 30
0.0
  9
$UCSORGBOTTOM
 10
0.0
 20
0.0
 30
0.0
  9
$UCSORGLEFT
 10
0.0
 20
0.0
 30
0.0
  9
$UCSORGRIGHT
 10
0.0
 20
0.0
 30
0.0
  9
$UCSORGFRONT
 10
0.0
 20
0.0
 30
0.0
  9
$UCSORGBACK
 10
0.0
 20
0.0
 30
0.0
  9
$PUCSBASE
  2

  9
$PUCSNAME
  2

  9
$PUCSORG
 10
0.0
 20
0.0
 30
0.0
  9
$PUCSXDIR
 10
1.0
 20
0.0
 30
0.0
  9
$PUCSYDIR
 10
0.0
 20
1.0
 30
0.0
  9
$PUCSORTHOREF
  2

  9
$PUCSORTHOVIEW
 70
     0
  9
$PUCSORGTOP
 10
0.0
 20
0.0
 30
0.0
  9
$PUCSORGBOTTOM
 10
0.0
 20
0.0
 30
0.0
  9
$PUCSORGLEFT
 10
0.0
 20
0.0
 30
0.0
  9
$PUCSORGRIGHT
 10
0.0
 20
0.0
 30
0.0
  9
$PUCSORGFRONT
 10
0.0
 20
0.0
 30
0.0
  9
$PUCSORGBACK
 10
0.0
 20
0.0
 30
0.0
  9
$USERI1
 70
     0
  9
$USERI2
 70
     0
  9
$USERI3
 70
     0
  9
$USERI4
 70
     0
  9
$USERI5
 70
     0
  9
$USERR1
 40
0.0
  9
$USERR2
 40
0.0
  9
$USERR3
 40
0.0
  9
$USERR4
 40
0.0
  9
$USERR5
 40
0.0
  9
$WORLDVIEW
 70
     1
  9
$SHADEDGE
 70
     3
  9
$SHADEDIF
 70
    70
  9
$TILEMODE
 70
     1
  9
$MAXACTVP
 70
    64
  9
$PINSBASE
 10
0.0
 20
0.0
 30
0.0
  9
$PLIMCHECK
 70
     0
  9
$PEXTMIN
 10
1.000000000000000E+20
 20
1.000000000000000E+20
 30
1.000000000000000E+20
  9
$PEXTMAX
 10
-1.000000000000000E+20
 20
-1.000000000000000E+20
 30
-1.000000000000000E+20
  9
$PLIMMIN
 10
0.0
 20
0.0
  9
$PLIMMAX
 10
12.0
 20
9.0
  9
$UNITMODE
 70
     0
  9
$VISRETAIN
 70
     1
  9
$PLINEGEN
 70
     0
  9
$PSLTSCALE
 70
     1
  9
$TREEDEPTH
 70
  3020
  9
$CMLSTYLE
  2
Standard
  9
$CMLJUST
 70
     0
  9
$CMLSCALE
 40
1.0
  9
$PROXYGRAPHICS
 70
     1
  9
$MEASUREMENT
 70
     0
  9
$CELWEIGHT
370
    -1
  9
$ENDCAPS
280
     0
  9
$JOINSTYLE
280
     0
  9
$LWDISPLAY
290
     1
  9
$INSUNITS
 70
     1
  9
$HYPERLINKBASE
  1

  9
$STYLESHEET
  1

  9
$XEDIT
290
     1
  9
$CEPSNTYPE
380
     0
  9
$PSTYLEMODE
290
     1
  9
$FINGERPRINTGUID
  2
{D7004EDD-1E29-245F-B014-7EDF218CA514}
  9
$VERSIONGUID
  2
{FAEB1C32-E019-11D5-929B-00C0DF256EC4}
  9
$EXTNAMES
290
     1
  9
$PSVPSCALE
 40
0.0
  9
$OLESTARTUP
290
     0
  9
$SORTENTS
280
   127
  9
$INDEXCTL
280
     0
  9
$HIDETEXT
280
     1
  9
$XCLIPFRAME
280
     2
  9
$HALOGAP
280
     0
  9
$OBSCOLOR
 70
   257
  9
$OBSLTYPE
280
     0
  9
$INTERSECTIONDISPLAY
280
     0
  9
$INTERSECTIONCOLOR
 70
   257
  9
$DIMASSOC
280
     2
  9
$PROJECTNAME
  1

  9
$CAMERADISPLAY
290
     0
  9
$LENSLENGTH
 40
50.0
  9
$CAMERAHEIGHT
 40
0.0
  9
$STEPSPERSEC
 40
2.0
  9
$STEPSIZE
 40
6.0
  9
$3DDWFPREC
 40
2.0
  9
$PSOLWIDTH
 40
0.25
  9
$PSOLHEIGHT
 40
4.0
  9
$LOFTANG1
 40
1.570796326794897
  9
$LOFTANG2
 40
1.570796326794897
  9
$LOFTMAG1
 40
0.0
  9
$LOFTMAG2
 40
0.0
  9
$LOFTPARAM
 70
     7
  9
$LOFTNORMALS
280
     1
  9
$LATITUDE
 40
37.795
  9
$LONGITUDE
 40
-122.394
  9
$NORTHDIRECTION
 40
0.0
  9
$TIMEZONE
 70
 -8000
  9
$LIGHTGLYPHDISPLAY
280
     1
  9
$TILEMODELIGHTSYNCH
280
     1
  9
$CMATERIAL
347
3C
  9
$SOLIDHIST
280
     1
  9
$SHOWHIST
280
     1
  9
$DWFFRAME
280
     2
  9
$DGNFRAME
280
     2
  9
$REALWORLDSCALE
290
     1
  9
$INTERFERECOLOR
 62
   256
  9
$CSHADOW
280
     0
  9
$SHADOWPLANELOCATION
 40
0.0
  0
ENDSEC
  0
SECTION
  2
CLASSES
  0
CLASS
  1
ACDBDICTIONARYWDFLT
  2
AcDbDictionaryWithDefault
  3
ObjectDBX Classes
 90
        0
 91
        4
280
     0
281
     0
  0
CLASS
  1
VISUALSTYLE
  2
AcDbVisualStyle
  3
ObjectDBX Classes
 90
     4095
 91
        4
280
     0
281
     0
  0
CLASS
  1
MATERIAL
  2
AcDbMaterial
  3
ObjectDBX Classes
 90
     1153
 91
        4
280
     0
281
     0
  0
CLASS
  1
SUN
  2
AcDbSun
  3
SCENEOE
 90
     1024
 91
        4
280
     0
281
     0
  0
ENDSEC
  0
SECTION
  2
TABLES
  0
TABLE
  2
VPORT
  5
8
330
0
100
AcDbSymbolTable
 70
     1
  0
VPORT
  5
29
330
8
100
AcDbSymbolTableRecord
100
AcDbViewportTableRecord
  2
*Active
 70
     0
 10
0.0
 20
0.0
 11
1.0
 21
1.0
 12
0.0
 22
0.0
 13
0.0
 23
0.0
 14
0.5
 24
0.5
 15
0.5
 25
0.5
 16
0.0
 26
0.0
 36
1.0
 17
4.25
 27
5.5
 37
0.0
 40
11.0
 41
0.7727272727272727
 42
50.0
 43
0.0
 44
0.0
 50
0.0
 51
0.0
 71
     0
 72
   100
 73
     1
 74
     3
 75
     0
 76
     0
 77
     0
 78
     0
281
     0
 65
     1
110
0.0
120
0.0
130
0.0
111
1.0
121
0.0
131
0.0
112
0.0
122
1.0
132
0.0
 79
     0
146
0.0
 60
     3
 61
     5
292
     1
282
     1
141
0.0
142
0.0
 63
   250
361
3F
  0
ENDTAB
  0
TABLE
  2
LTYPE
  5
5
330
0
100
AcDbSymbolTable
 70
     1
  0
LTYPE
  5
14
330
5
100
AcDbSymbolTableRecord
100
AcDbLinetypeTableRecord
  2
ByBlock
 70
     0
  3

 72
    65
 73
     0
 40
0.0
  0
LTYPE
  5
15
330
5
100
AcDbSymbolTableRecord
100
AcDbLinetypeTableRecord
  2
ByLayer
 70
     0
  3

 72
    65
 73
     0
 40
0.0
  0
LTYPE
  5
16
330
5
100
AcDbSymbolTableRecord
100
AcDbLinetypeTableRecord
  2
Continuous
 70
     0
  3
Solid line
 72
    65
 73
     0
 40
0.0
  0
ENDTAB
  0
TABLE
  2
LAYER
  5
2
330
0
100
AcDbSymbolTable
 70
     2
  0
LAYER
  5
10
330
2
100
AcDbSymbolTableRecord
100
AcDbLayerTableRecord
  2
0
 70
     0
 62
     7
  6
Continuous
370
    -3
390
F
347
3E
  0
LAYER
  5
40
330
2
100
AcDbSymbolTableRecord
100
AcDbLayerTableRecord
  2
Layer 1
 70
     0
 62
     7
  6
Continuous
370
    -3
390
F
347
3E
  0
ENDTAB
  0
TABLE
  2
STYLE
  5
3
330
0
100
AcDbSymbolTable
 70
     1
  0
STYLE
  5
11
330
3
100
AcDbSymbolTableRecord
100
AcDbTextStyleTableRecord
  2
Standard
 70
     0
 40
0.0
 41
1.0
 50
0.0
 71
     0
 42
0.2
  3
txt
  4

  0
ENDTAB
  0
TABLE
  2
VIEW
  5
6
330
0
100
AcDbSymbolTable
 70
     0
  0
ENDTAB
  0
TABLE
  2
UCS
  5
7
330
0
100
AcDbSymbolTable
 70
     0
  0
ENDTAB
  0
TABLE
  2
APPID
  5
9
330
0
100
AcDbSymbolTable
 70
     1
  0
APPID
  5
12
330
9
100
AcDbSymbolTableRecord
100
AcDbRegAppTableRecord
  2
ACAD
 70
     0
  0
ENDTAB
  0
TABLE
  2
DIMSTYLE
  5
A
330
0
100
AcDbSymbolTable
 70
     1
100
AcDbDimStyleTable
  0
DIMSTYLE
105
27
330
A
100
AcDbSymbolTableRecord
100
AcDbDimStyleTableRecord
  2
Standard
 70
     0
178
     0
340
11
  0
ENDTAB
  0
TABLE
  2
BLOCK_RECORD
  5
1
330
0
100
AcDbSymbolTable
 70
     2
  0
BLOCK_RECORD
  5
1F
330
1
100
AcDbSymbolTableRecord
100
AcDbBlockTableRecord
  2
*Model_Space
340
22
 70
     0
280
     1
281
     0
  0
BLOCK_RECORD
  5
1B
330
1
100
AcDbSymbolTableRecord
100
AcDbBlockTableRecord
  2
*Paper_Space
340
1E
 70
     0
280
     1
281
     0
  0
BLOCK_RECORD
  5
23
330
1
100
AcDbSymbolTableRecord
100
AcDbBlockTableRecord
  2
*Paper_Space0
340
26
 70
     0
280
     1
281
     0
  0
BLOCK_RECORD
  5
41
330
1
100
AcDbSymbolTableRecord
100
AcDbBlockTableRecord
  2
block 2
340
0
102
{BLKREFS
331
42
102
}
 70
     0
280
     1
281
     0
  0
ENDTAB
  0
ENDSEC
  0
SECTION
  2
BLOCKS
  0
BLOCK
  5
20
330
1F
100
AcDbEntity
  8
0
100
AcDbBlockBegin
  2
*Model_Space
 70
     0
 10
0.0
 20
0.0
 30
0.0
  3
*Model_Space
  1

  0
ENDBLK
  5
21
330
1F
100
AcDbEntity
  8
0
100
AcDbBlockEnd
  0
BLOCK
  5
1C
330
1B
100
AcDbEntity
 67
     1
  8
0
100
AcDbBlockBegin
  2
*Paper_Space
 70
     0
 10
0.0
 20
0.0
 30
0.0
  3
*Paper_Space
  1

  0
ENDBLK
  5
1D
330
1B
100
AcDbEntity
 67
     1
  8
0
100
AcDbBlockEnd
  0
BLOCK
  5
24
330
23
100
AcDbEntity
  8
0
100
AcDbBlockBegin
  2
*Paper_Space0
 70
     0
 10
0.0
 20
0.0
 30
0.0
  3
*Paper_Space0
  1

  0
ENDBLK
  5
25
330
23
100
AcDbEntity
  8
0
100
AcDbBlockEnd
  0
BLOCK
  5
43
330
41
100
AcDbEntity
  8
0
100
AcDbBlockBegin
  2
block 2
 70
     0
 10
0.0
 20
0.0
 30
0.0
  3
block 2
  1

  0
SPLINE
  5
45
330
41
100
AcDbEntity
  8
Layer 1
 62
     7
420
 16777215
370
    35
100
AcDbSpline
210
0.0
220
0.0
230
1.0
 70
    11
 71
     3
 72
   401
 73
   397
 74
     0
 42
0.0000000001
 43
0.0000000001
 12
1.0
 22
0.0
 32
0.0
 13
1.0
 23
0.0
 33
0.0
 40
0.0
 40
0.0
 40
0.0
 40
0.0
 40
1.0
 40
1.0
 40
1.0
 40
2.0
 40
2.0
 40
2.0
 40
3.0
 40
3.0
 40
3.0
 40
4.0
 40
4.0
 40
4.0
 40
5.0
 40
5.0
 40
5.0
 40
6.0
 40
6.0
 40
6.0
 40
7.0
 40
7.0
 40
7.0
 40
8.0
 40
8.0
 40
8.0
 40
9.0
 40
9.0
 40
9.0
 40
10.0
 40
10.0
 40
10.0
 40
11.0
 40
11.0
 40
11.0
 40
12.0
 40
12.0
 40
12.0
 40
13.0
 40
13.0
 40
13.0
 40
14.0
 40
14.0
 40
14.0
 40
15.0
 40
15.0
 40
15.0
 40
16.0
 40
16.0
 40
16.0
 40
17.0
 40
17.0
 40
17.0
 40
18.0
 40
18.0
 40
18.0
 40
19.0
 40
19.0
 40
19.0
 40
20.0
 40
20.0
 40
20.0
 40
21.0
 40
21.0
 40
21.0
 40
22.0
 40
22.0
 40
22.0
 40
23.0
 40
23.0
 40
23.0
 40
24.0
 40
24.0
 40
24.0
 40
25.0
 40
25.0
 40
25.0
 40
26.0
 40
26.0
 40
26.0
 40
27.0
 40
27.0
 40
27.0
 40
28.0
 40
28.0
 40
28.0
 40
29.0
 40
29.0
 40
29.0
 40
30.0
 40
30.0
 40
30.0
 40
31.0
 40
31.0
 40
31.0
 40
32.0
 40
32.0
 40
32.0
 40
33.0
 40
33.0
 40
33.0
 40
34.0
 40
34.0
 40
34.0
 40
35.0
 40
35.0
 40
35.0
 40
36.0
 40
36.0
 40
36.0
 40
37.0
 40
37.0
 40
37.0
 40
38.0
 40
38.0
 40
38.0
 40
39.0
 40
39.0
 40
39.0
 40
40.0
 40
40.0
 40
40.0
 40
41.0
 40
41.0
 40
41.0
 40
42.0
 40
42.0
 40
42.0
 40
43.0
 40
43.0
 40
43.0
 40
44.0
 40
44.0
 40
44.0
 40
45.0
 40
45.0
 40
45.0
 40
46.0
 40
46.0
 40
46.0
 40
47.0
 40
47.0
 40
47.0
 40
48.0
 40
48.0
 40
48.0
 40
49.0
 40
49.0
 40
49.0
 40
50.0
 40
50.0
 40
50.0
 40
51.0
 40
51.0
 40
51.0
 40
52.0
 40
52.0
 40
52.0
 40
53.0
 40
53.0
 40
53.0
 40
54.0
 40
54.0
 40
54.0
 40
55.0
 40
55.0
 40
55.0
 40
56.0
 40
56.0
 40
56.0
 40
57.0
 40
57.0
 40
57.0
 40
58.0
 40
58.0
 40
58.0
 40
59.0
 40
59.0
 40
59.0
 40
60.0
 40
60.0
 40
60.0
 40
61.0
 40
61.0
 40
61.0
 40
62.0
 40
62.0
 40
62.0
 40
63.0
 40
63.0
 40
63.0
 40
64.0
 40
64.0
 40
64.0
 40
65.0
 40
65.0
 40
65.0
 40
66.0
 40
66.0
 40
66.0
 40
67.0
 40
67.0
 40
67.0
 40
68.0
 40
68.0
 40
68.0
 40
69.0
 40
69.0
 40
69.0
 40
70.0
 40
70.0
 40
70.0
 40
71.0
 40
71.0
 40
71.0
 40
72.0
 40
72.0
 40
72.0
 40
73.0
 40
73.0
 40
73.0
 40
74.0
 40
74.0
 40
74.0
 40
75.0
 40
75.0
 40
75.0
 40
76.0
 40
76.0
 40
76.0
 40
77.0
 40
77.0
 40
77.0
 40
78.0
 40
78.0
 40
78.0
 40
79.0
 40
79.0
 40
79.0
 40
80.0
 40
80.0
 40
80.0
 40
81.0
 40
81.0
 40
81.0
 40
82.0
 40
82.0
 40
82.0
 40
83.0
 40
83.0
 40
83.0
 40
84.0
 40
84.0
 40
84.0
 40
85.0
 40
85.0
 40
85.0
 40
86.0
 40
86.0
 40
86.0
 40
87.0
 40
87.0
 40
87.0
 40
88.0
 40
88.0
 40
88.0
 40
89.0
 40
89.0
 40
89.0
 40
90.0
 40
90.0
 40
90.0
 40
91.0
 40
91.0
 40
91.0
 40
92.0
 40
92.0
 40
92.0
 40
93.0
 40
93.0
 40
93.0
 40
94.0
 40
94.0
 40
94.0
 40
95.0
 40
95.0
 40
95.0
 40
96.0
 40
96.0
 40
96.0
 40
97.0
 40
97.0
 40
97.0
 40
98.0
 40
98.0
 40
98.0
 40
99.0
 40
99.0
 40
99.0
 40
100.0
 40
100.0
 40
100.0
 40
101.0
 40
101.0
 40
101.0
 40
102.0
 40
102.0
 40
102.0
 40
103.0
 40
103.0
 40
103.0
 40
104.0
 40
104.0
 40
104.0
 40
105.0
 40
105.0
 40
105.0
 40
106.0
 40
106.0
 40
106.0
 40
107.0
 40
107.0
 40
107.0
 40
108.0
 40
108.0
 40
108.0
 40
109.0
 40
109.0
 40
109.0
 40
110.0
 40
110.0
 40
110.0
 40
111.0
 40
111.0
 40
111.0
 40
112.0
 40
112.0
 40
112.0
 40
113.0
 40
113.0
 40
113.0
 40
114.0
 40
114.0
 40
114.0
 40
115.0
 40
115.0
 40
115.0
 40
116.0
 40
116.0
 40
116.0
 40
117.0
 40
117.0
 40
117.0
 40
118.0
 40
118.0
 40
118.0
 40
119.0
 40
119.0
 40
119.0
 40
120.0
 40
120.0
 40
120.0
 40
121.0
 40
121.0
 40
121.0
 40
122.0
 40
122.0
 40
122.0
 40
123.0
 40
123.0
 40
123.0
 40
124.0
 40
124.0
 40
124.0
 40
125.0
 40
125.0
 40
125.0
 40
126.0
 40
126.0
 40
126.0
 40
127.0
 40
127.0
 40
127.0
 40
128.0
 40
128.0
 40
128.0
 40
129.0
 40
129.0
 40
129.0
 40
130.0
 40
130.0
 40
130.0
 40
131.0
 40
131.0
 40
131.0
 40
132.0
 40
132.0
 40
132.0
 40
132.0
 10
4.650447875976574
 20
9.925753585016258
 30
0.0
 10
5.140573211669915
 20
9.925753585016258
 30
0.0
 10
5.630699066162125
 20
9.925702831099935
 30
0.0
 10
6.120824401855467
 20
9.92581953917958
 30
0.0
 10
6.180280822753907
 20
9.925833702309495
 30
0.0
 10
6.239737243652345
 20
9.926709353210981
 30
0.0
 10
6.299193145751966
 20
9.927261925941947
 30
0.0
 10
6.346805908203123
 20
9.927704402214532
 30
0.0
 10
6.364137939453131
 20
9.912769268288015
 30
0.0
 10
6.363667388916029
 20
9.864653032329707
 30
0.0
 10
6.361826690673827
 20
9.676464543482071
 30
0.0
 10
6.359073425292965
 20
9.488282342156657
 30
0.0
 10
6.355824188232418
 20
9.300112229727018
 30
0.0
 10
6.355065704345709
 20
9.256174052272828
 30
0.0
 10
6.36723880004883
 20
9.239912251161412
 30
0.0
 10
6.411359527587895
 20
9.238679378251023
 30
0.0
 10
6.450951660156256
 20
9.2375730336225
 30
0.0
 10
6.490613311767573
 20
9.23916902714508
 30
0.0
 10
6.530244354248048
 20
9.239173629352054
 30
0.0
 10
6.882964782714857
 20
9.239214076917568
 30
0.0
 10
7.235685211181639
 20
9.239095715932585
 30
0.0
 10
7.588405639648449
 20
9.239307352633558
 30
0.0
 10
7.610991027832041
 20
9.23932096479503
 30
0.0
 10
7.633629852294916
 20
9.24107401673306
 30
0.0
 10
7.656149353027356
 20
9.24308219946896
 30
0.0
 10
7.707566986084
 20
9.247667682929874
 30
0.0
 10
7.722486602783217
 20
9.233412249599484
 30
0.0
 10
7.720987274169929
 20
9.180649048584275
 30
0.0
 10
7.719942932128914
 20
9.143895629233839
 30
0.0
 10
7.718793273925788
 20
9.107128143983193
 30
0.0
 10
7.718761627197282
 20
9.07036610359714
 30
0.0
 10
7.718652160644549
 20
8.94293682628222
 30
0.0
 10
7.719203643798841
 20
8.815507030408778
 30
0.0
 10
7.719018951416021
 20
8.688078142012765
 30
0.0
 10
7.718984191894529
 20
8.66405915899784
 30
0.0
 10
7.716501739501963
 20
8.640052232468785
 30
0.0
 10
7.71553366088867
 20
8.616024174679549
 30
0.0
 10
7.713838226318355
 20
8.573958836184335
 30
0.0
 10
7.728016998291018
 20
8.55884207713191
 30
0.0
 10
7.769602355957052
 20
8.558872283166414
 30
0.0
 10
7.926825897216808
 20
8.558986625322783
 30
0.0
 10
8.084050994873046
 20
8.558927768929355
 30
0.0
 10
8.241270904541024
 20
8.559783390507555
 30
0.0
 10
8.276597991943365
 20
8.55997564608338
 30
0.0
 10
8.31189031982424
 20
8.564866430880139
 30
0.0
 10
8.347227264404308
 20
8.565309928064835
 30
0.0
 10
8.386512786865245
 20
8.565803077228995
 30
0.0
 10
8.397732330322267
 20
8.55304122211108
 30
0.0
 10
8.397355682373043
 20
8.514415352720537
 30
0.0
 10
8.395989166259772
 20
8.374284891635991
 30
0.0
 10
8.393954437255868
 20
8.234155078749584
 30
0.0
 10
8.393625518798848
 20
8.094021765593096
 30
0.0
 10
8.393027343750013
 20
7.839162692404734
 30
0.0
 10
8.393310089111335
 20
7.584300767144441
 30
0.0
 10
8.393693481445325
 20
7.329440916118288
 30
0.0
 10
8.393738616943361
 20
7.299772367534311
 30
0.0
 10
8.39811987304688
 20
7.27010485606738
 30
0.0
 10
8.398041015625015
 20
7.24044304874432
 30
0.0
 10
8.397934143066424
 20
7.20025424393763
 30
0.0
 10
8.383555114746109
 20
7.187922662761833
 30
0.0
 10
8.34373211669923
 20
7.188191535360803
 30
0.0
 10
8.186537109375017
 20
7.189253283955546
 30
0.0
 10
8.02934210205078
 20
7.190533345692365
 30
0.0
 10
7.872145019531267
 20
7.190781994508572
 30
0.0
 10
7.629918365478513
 20
7.191165468543166
 30
0.0
 10
7.387690673828122
 20
7.190726249466352
 30
0.0
 10
7.145463500976575
 20
7.190807663155915
 30
0.0
 10
7.131340759277363
 20
7.190812330182704
 30
0.0
 10
7.117140197753921
 20
7.191674433742541
 30
0.0
 10
7.103109283447262
 20
7.193294151317988
 30
0.0
 10
7.054706390380867
 20
7.198881360223544
 30
0.0
 10
7.040633453369158
 20
7.186185750958114
 30
0.0
 10
7.041672607421888
 20
7.138913436601115
 30
0.0
 10
7.043600982666021
 20
7.051225448079549
 30
0.0
 10
7.045950103759777
 20
6.963526310549569
 30
0.0
 10
7.046187713623062
 20
6.875826654461055
 30
0.0
 10
7.046464233398435
 20
6.773901122878467
 30
0.0
 10
7.044894348144529
 20
6.671967294359395
 30
0.0
 10
7.043663757324238
 20
6.570042799893902
 30
0.0
 10
7.043051055908209
 20
6.519360963187459
 30
0.0
 10
7.03549578857423
 20
6.511483540524282
 30
0.0
 10
6.983593597412108
 20
6.511055989014443
 30
0.0
 10
6.897200103759764
 20
6.51034426742894
 30
0.0
 10
6.810795715332031
 20
6.51093283136303
 30
0.0
 10
6.724395996093764
 20
6.510953832983583
 30
0.0
 10
6.214439056396486
 20
6.511077768472811
 30
0.0
 10
5.704482116699233
 20
6.511071286491137
 30
0.0
 10
5.194525177001954
 20
6.511513098360612
 30
0.0
 10
5.145108551025386
 20
6.511555879439533
 30
0.0
 10
5.095665985107416
 20
6.513747826355281
 30
0.0
 10
5.046288269042962
 20
6.516076932002811
 30
0.0
 10
5.01001541137695
 20
6.517787915879908
 30
0.0
 10
4.996086700439466
 20
6.504003333696801
 30
0.0
 10
4.996765808105465
 20
6.464897019826164
 30
0.0
 10
4.99801974487304
 20
6.392739340786496
 30
0.0
 10
4.999369659423842
 20
6.320580365350501
 30
0.0
 10
5.0
 20
6.248415685770649
 30
0.0
 10
5.001038635253912
 20
6.129499324600147
 30
0.0
 10
5.001581298828139
 20
6.01057829640288
 30
0.0
 10
5.002241210937503
 20
5.891658823881193
 30
0.0
 10
5.002486083984372
 20
5.847436411531513
 30
0.0
 10
4.987355834960933
 20
5.832284649778154
 30
0.0
 10
4.944555450439465
 20
5.832580746700083
 30
0.0
 10
4.705246520996095
 20
5.834235726255681
 30
0.0
 10
4.465938110351569
 20
5.836782885766044
 30
0.0
 10
4.22662658691407
 20
5.837136024126468
 30
0.0
 10
3.837080001831055
 20
5.83771084625947
 30
0.0
 10
3.447530822753909
 20
5.836802850269527
 30
0.0
 10
3.057982940673835
 20
5.836623947575895
 30
0.0
 10
3.036745651245105
 20
5.836614094963807
 30
0.0
 10
3.015472045898441
 20
5.838557393063335
 30
0.0
 10
2.994278335571292
 20
5.837810150218401
 30
0.0
 10
2.963310714721678
 20
5.836717806670245
 30
0.0
 10
2.953827590942385
 20
5.827133548598213
 30
0.0
 10
2.953554183959959
 20
5.796263240615795
 30
0.0
 10
2.953279220581054
 20
5.765137023997694
 30
0.0
 10
2.955313690185549
 20
5.733996547019968
 30
0.0
 10
2.955412780761725
 20
5.702859699951962
 30
0.0
 10
2.955854278564452
 20
5.564154626632848
 30
0.0
 10
2.956156478881844
 20
5.425447479079645
 30
0.0
 10
2.956014068603534
 20
5.286741368643511
 30
0.0
 10
2.955989425659178
 20
5.262721737430411
 30
0.0
 10
2.953064437866209
 20
5.238718700090354
 30
0.0
 10
2.952382995605477
 20
5.214682475004237
 30
0.0
 10
2.951285995483406
 20
5.175999045616613
 30
0.0
 10
2.960516464233403
 20
5.166968348777774
 30
0.0
 10
2.999362304687502
 20
5.167082950213373
 30
0.0
 10
3.293985305786135
 20
5.167953091430465
 30
0.0
 10
3.58860778808595
 20
5.169299269380164
 30
0.0
 10
3.883231307983401
 20
5.169580846663166
 30
0.0
 10
4.230283859252924
 20
5.169912724123807
 30
0.0
 10
4.577336669921881
 20
5.169333494243296
 30
0.0
 10
4.924389739990247
 20
5.169130219298646
 30
0.0
 10
4.993961181640619
 20
5.169089253174611
 30
0.0
 10
5.001870788574226
 20
5.160782982605269
 30
0.0
 10
5.001617095947267
 20
5.090639125625532
 30
0.0
 10
5.001054718017586
 20
4.934900960198168
 30
0.0
 10
5.000892852783206
 20
4.779161757653709
 30
0.0
 10
5.000186767578119
 20
4.62342411078488
 30
0.0
 10
5.000039428710933
 20
4.590899601084604
 30
0.0
 10
4.996450897216795
 20
4.558313382918994
 30
0.0
 10
4.997708984374993
 20
4.525881695195999
 30
0.0
 10
4.999031921386732
 20
4.491773507738293
 30
0.0
 10
5.017059143066414
 20
4.478544561022469
 30
0.0
 10
5.050411682128899
 20
4.480007414641906
 30
0.0
 10
5.109711425781243
 20
4.482607467122534
 30
0.0
 10
5.169054229736326
 20
4.485905499387551
 30
0.0
 10
5.228380950927733
 20
4.485946465511587
 30
0.0
 10
5.782247985839856
 20
4.486327606032773
 30
0.0
 10
6.336115020751953
 20
4.486032546227938
 30
0.0
 10
6.889982055664076
 20
4.486127960997869
 30
0.0
 10
6.921128143310549
 20
4.486133146583193
 30
0.0
 10
6.952273193359385
 20
4.488516960155872
 30
0.0
 10
6.983421356201183
 20
4.488589039791855
 30
0.0
 10
7.028635192871105
 20
4.488693788615365
 30
0.0
 10
7.041996337890623
 20
4.476958809030899
 30
0.0
 10
7.043876464843757
 20
4.431752950424854
 30
0.0
 10
7.046050231933602
 20
4.379465656502614
 30
0.0
 10
7.046633361816425
 20
4.327064798261795
 30
0.0
 10
7.046212097167982
 20
4.274726685603405
 30
0.0
 10
7.045095642089841
 20
4.136019019491666
 30
0.0
 10
7.043332244873049
 20
3.997315501848182
 30
0.0
 10
7.041258087158212
 20
3.858618725465602
 30
0.0
 10
7.040504791259764
 20
3.808209131988582
 30
0.0
 10
7.057197662353524
 20
3.793884471094139
 30
0.0
 10
7.106652160644544
 20
3.795200572648961
 30
0.0
 10
7.164498229980482
 20
3.79674069148968
 30
0.0
 10
7.222473999023451
 20
3.79238376270185
 30
0.0
 10
7.280396331787111
 20
3.7922847180222
 30
0.0
 10
7.559454071044936
 20
3.791810236965198
 30
0.0
 10
7.838518554687501
 20
3.790961356647939
 30
0.0
 10
8.117568511962897
 20
3.792449619635438
 30
0.0
 10
8.189538879394528
 20
3.792832834390765
 30
0.0
 10
8.261552307128921
 20
3.800186512936382
 30
0.0
 10
8.333383636474611
 20
3.80625572199766
 30
0.0
 10
8.381387573242186
 20
3.81031136827826
 30
0.0
 10
8.401151214599622
 20
3.791679560215091
 30
0.0
 10
8.397355682373043
 20
3.742315899297561
 30
0.0
 10
8.39529708862306
 20
3.715544796512454
 30
0.0
 10
8.393616699218757
 20
3.688662722201419
 30
0.0
 10
8.393598541259784
 20
3.661829910950953
 30
0.0
 10
8.393360412597657
 20
3.306441006469539
 30
0.0
 10
8.393302307128907
 20
2.95105262054666
 30
0.0
 10
8.393689331054702
 20
2.595663716065221
 30
0.0
 10
8.393726165771492
 20
2.561805992378595
 30
0.0
 10
8.39656555175783
 20
2.527916636621487
 30
0.0
 10
8.398966552734388
 20
2.494102990410081
 30
0.0
 10
8.402114624023447
 20
2.449763643111383
 30
0.0
 10
8.38828915405275
 20
2.433045834590707
 30
0.0
 10
8.344517578125002
 20
2.433123099811989
 30
0.0
 10
8.167501342773448
 20
2.433434753489867
 30
0.0
 10
7.990486145019531
 20
2.434204812910239
 30
0.0
 10
7.813471466064457
 20
2.435059915929893
 30
0.0
 10
7.802210937499997
 20
2.435113846017253
 30
0.0
 10
7.790963897705094
 20
2.437352981759432
 30
0.0
 10
7.779704406738296
 20
2.438517145664289
 30
0.0
 10
7.728835144042982
 20
2.443774810622623
 30
0.0
 10
7.718282775878909
 20
2.434748780810549
 30
0.0
 10
7.718129211425776
 20
2.384708401008488
 30
0.0
 10
7.718011962890639
 20
2.346494785651076
 30
0.0
 10
7.718595092773436
 20
2.308279096059525
 30
0.0
 10
7.718775634765633
 20
2.270064443585069
 30
0.0
 10
7.719484832763682
 20
2.12001797660749
 30
0.0
 10
7.720158752441421
 20
1.969971509629911
 30
0.0
 10
7.720838897705081
 20
1.819925042652332
 30
0.0
 10
7.720858093261717
 20
1.815678048273336
 30
0.0
 10
7.720927093505856
 20
1.811424312633411
 30
0.0
 10
7.720741882324218
 20
1.807184578073879
 30
0.0
 10
7.71867810058595
 20
1.760022716684236
 30
0.0
 10
7.709072540283209
 20
1.750734814813389
 30
0.0
 10
7.661977020263672
 20
1.750665846528591
 30
0.0
 10
7.506159942626962
 20
1.750436643657344
 30
0.0
 10
7.350342346191407
 20
1.750131731240395
 30
0.0
 10
7.194525268554697
 20
1.750091283674869
 30
0.0
 10
6.965044982910158
 20
1.75003216800221
 30
0.0
 10
6.735564178466802
 20
1.75002542674128
 30
0.0
 10
6.506084411621107
 20
1.750395677533308
 30
0.0
 10
6.472126953124997
 20
1.750450644737713
 30
0.0
 10
6.438163269042964
 20
1.753879872311371
 30
0.0
 10
6.404220336914072
 20
1.753601924938115
 30
0.0
 10
6.368117645263687
 20
1.753306346574744
 30
0.0
 10
6.355973602294928
 20
1.739242002063469
 30
0.0
 10
6.356535980224609
 20
1.703959798088792
 30
0.0
 10
6.358137512207046
 20
1.603522788773009
 30
0.0
 10
6.359721923828121
 20
1.503085260898666
 30
0.0
 10
6.361009063720707
 20
1.402643584556093
 30
0.0
 10
6.362169616699222
 20
1.31205763167716
 30
0.0
 10
6.362852355957026
 20
1.221464418978763
 30
0.0
 10
6.363897216796886
 20
1.13087639186569
 30
0.0
 10
6.364397338867193
 20
1.087531121273312
 30
0.0
 10
6.353720977783218
 20
1.074715465707666
 30
0.0
 10
6.309873657226565
 20
1.073339211363115
 30
0.0
 10
6.266013885498043
 20
1.071962957018564
 30
0.0
 10
6.22207006835937
 20
1.0733423227143
 30
0.0
 10
6.178163085937513
 20
1.073348545416694
 30
0.0
 10
5.14125024414064
 20
1.073480259283896
 30
0.0
 10
4.104337661743165
 20
1.073591230809774
 30
0.0
 10
3.067424819946293
 20
1.073686645579705
 30
0.0
 10
3.043344512939459
 20
1.073688719813845
 30
0.0
 10
3.01923645019532
 20
1.072675456441857
 30
0.0
 10
2.995190643310543
 20
1.073526929551791
 30
0.0
 10
2.956261016845714
 20
1.074902146779272
 30
0.0
 10
2.945783615112305
 20
1.086624680958948
 30
0.0
 10
2.946144180297867
 20
1.126058983101252
 30
0.0
 10
2.947089431762695
 20
1.229384882000103
 30
0.0
 10
2.948258544921878
 20
1.33270974378191
 30
0.0
 10
2.94898408508301
 20
1.436037198356391
 30
0.0
 10
2.949600158691409
 20
1.523792340207845
 30
0.0
 10
2.949868377685561
 20
1.611551111969043
 30
0.0
 10
2.950005599975586
 20
1.699308328054637
 30
0.0
 10
2.950077972412108
 20
1.745565304805546
 30
0.0
 10
2.932473831176758
 20
1.760337481713299
 30
0.0
 10
2.887637420654301
 20
1.754817426137657
 30
0.0
 10
2.863821441650392
 20
1.751886014754948
 30
0.0
 10
2.839675247192379
 20
1.750344858797133
 30
0.0
 10
2.815679244995105
 20
1.750359896994572
 30
0.0
 10
2.444549240112299
 20
1.750594285451143
 30
0.0
 10
2.073418975830084
 20
1.751207740194786
 30
0.0
 10
1.702288711547857
 20
1.751641255127727
 30
0.0
 10
1.682465408325192
 20
1.751664590261675
 30
0.0
 10
1.662614349365236
 20
1.750018166921841
 30
0.0
 10
1.64282295227051
 20
1.750639918601994
 30
0.0
 10
1.598211441040045
 20
1.752042100873142
 30
0.0
 10
1.581871871948238
 20
1.769619160881752
 30
0.0
 10
1.584152381896969
 20
1.814678785981717
 30
0.0
 10
1.585436927795412
 20
1.840057040549254
 30
0.0
 10
1.591259407043455
 20
1.86530513692522
 30
0.0
 10
1.591364334106439
 20
1.890627387171283
 30
0.0
 10
1.591922302246088
 20
2.025125913676877
 30
0.0
 10
1.591239822387694
 20
2.159628588650725
 30
0.0
 10
1.591177696228025
 20
2.294130226507529
 30
0.0
 10
1.59116459655762
 20
2.322427447053011
 30
0.0
 10
1.592818138122564
 20
2.350744372822722
 30
0.0
 10
1.592175994873047
 20
2.379017739675747
 30
0.0
 10
1.591067581176756
 20
2.427827061522294
 30
0.0
 10
1.578723152160642
 20
2.438969847262948
 30
0.0
 10
1.531015968322751
 20
2.43875464547207
 30
0.0
 10
1.365346252441403
 20
2.438006884068575
 30
0.0
 10
1.199674591064447
 20
2.437640263186293
 30
0.0
 10
1.034005134582521
 20
2.436853091334367
 30
0.0
 10
1.007126621246332
 20
2.43672552593542
 30
0.0
 10
0.9801541404724123
 20
2.433323263405428
 30
0.0
 10
0.9534031219482383
 20
2.434756040630014
 30
0.0
 10
0.9125050430297834
 20
2.436945913311622
 30
0.0
 10
0.8934699897766146
 20
2.457335634799089
 30
0.0
 10
0.8971212310791037
 20
2.498388358120463
 30
0.0
 10
0.9220103454589813
 20
2.77823417418454
 30
0.0
 10
0.9041748847961469
 20
3.058627588058648
 30
0.0
 10
0.9085993309020952
 20
3.338722830776709
 30
0.0
 10
0.910431922912595
 20
3.454740968310564
 30
0.0
 10
0.9064256286621027
 20
3.570847779353395
 30
0.0
 10
0.9053918571472144
 20
3.686917254181935
 30
0.0
 10
0.9052537269592322
 20
3.702429932673719
 30
0.0
 10
0.90657523727417
 20
3.717995504135792
 30
0.0
 10
0.9079322853088393
 20
3.733473957764444
 30
0.0
 10
0.9116375465393073
 20
3.775734403907411
 30
0.0
 10
0.8900651130676225
 20
3.800522020306744
 30
0.0
 10
0.8494494552612271
 20
3.795383105252288
 30
0.0
 10
0.671508201599118
 20
3.772870405133871
 30
0.0
 10
0.4929889411926195
 20
3.78505445640725
 30
0.0
 10
0.3147050209045372
 20
3.785543975661691
 30
0.0
 10
0.2288503160476694
 20
3.785779401235307
 30
0.0
 10
0.2204282979965152
 20
3.797878408909405
 30
0.0
 10
0.2249411182403567
 20
3.883692586174725
 30
0.0
 10
0.227540008544919
 20
3.933111732855195
 30
0.0
 10
0.2275790481567381
 20
3.982703040968342
 30
0.0
 10
0.2275835227966354
 20
4.032216565301673
 30
0.0
 10
0.2276734533309966
 20
5.026171928898192
 30
0.0
 10
0.2276228380203267
 20
6.020126773936176
 30
0.0
 10
0.2274200525283858
 20
7.014081878253414
 30
0.0
 10
0.2274122705459578
 20
7.052248564063675
 30
0.0
 10
0.2254178133010909
 20
7.090411101405632
 30
0.0
 10
0.2247327070236148
 20
7.128582713521937
 30
0.0
 10
0.2244792251586887
 20
7.142705136588802
 30
0.0
 10
0.2238116445541386
 20
7.157088653876649
 30
0.0
 10
0.226010524749755
 20
7.170928203264199
 30
0.0
 10
0.2300568151474004
 20
7.196395390620005
 30
0.0
 10
0.2402265691757242
 20
7.2044685691291
 30
0.0
 10
0.2657535467147782
 20
7.20591197680359
 30
0.0
 10
0.2699835891723599
 20
7.206151291566205
 30
0.0
 10
0.2742473049163815
 20
7.20575666852316
 30
0.0
 10
0.2784960565567063
 20
7.205710257534532
 30
0.0
 10
0.4172868862152023
 20
7.204196325899678
 30
0.0
 10
0.5560785751342792
 20
7.202755770297117
 30
0.0
 10
0.6948682861328103
 20
7.20114694245088
 30
0.0
 10
0.7485130577087425
 20
7.200525190770728
 30
0.0
 10
0.8021515388488751
 20
7.199352729929337
 30
0.0
 10
0.8557965698242166
 20
7.19876753662571
 30
0.0
 10
0.8845017089843799
 20
7.198454327272252
 30
0.0
 10
0.9004337615966733
 20
7.211885252536376
 30
0.0
 10
0.9055552139282225
 20
7.240308482805201
 30
0.0
 10
0.9068001365661631
 20
7.247217497409426
 30
0.0
 10
0.9068738059997561
 20
7.254400051639398
 30
0.0
 10
0.9068913154602063
 20
7.261458151821645
 30
0.0
 10
0.9076853370666463
 20
7.581378171256776
 30
0.0
 10
0.9091814231872553
 20
7.901299487088231
 30
0.0
 10
0.9086752052307171
 20
8.221217561928874
 30
0.0
 10
0.9085252723693884
 20
8.315946149282201
 30
0.0
 10
0.9029098587036135
 20
8.410672921680657
 30
0.0
 10
0.8993955802917526
 20
8.505385563359116
 30
0.0
 10
0.8979642143249545
 20
8.543962558607985
 30
0.0
 10
0.9106797790527328
 20
8.560852010002867
 30
0.0
 10
0.9501557655334459
 20
8.562726210177983
 30
0.0
 10
0.981119235992436
 20
8.564196193977232
 30
0.0
 10
1.012314998626708
 20
8.559701717538726
 30
0.0
 10
1.043411540985112
 20
8.559630545380186
 30
0.0
 10
1.203471939086916
 20
8.55926379485825
 30
0.0
 10
1.363533699035644
 20
8.559426103678838
 30
0.0
 10
1.523594810485835
 20
8.559581411959243
 30
0.0
 10
1.533442779541019
 20
8.559591005292102
 30
0.0
 10
1.543481147766114
 20
8.560175550397553
 30
0.0
 10
1.553101234436036
 20
8.562120922731234
 30
0.0
 10
1.584507499694824
 20
8.5684717090755
 30
0.0
 10
1.593330192565923
 20
8.579184350513666
 30
0.0
 10
1.593351593017575
 20
8.611708600934662
 30
0.0
 10
1.593385833740235
 20
8.664019100351222
 30
0.0
 10
1.592569763183595
 20
8.716329729407436
 30
0.0
 10
1.59248182678223
 20
8.768641006661785
 30
0.0
 10
1.592289093017573
 20
8.883326448767775
 30
0.0
 10
1.592635131835942
 20
8.99801396510789
 30
0.0
 10
1.591992988586425
 20
9.112696425502323
 30
0.0
 10
1.591874961853023
 20
9.13378043204462
 30
0.0
 10
1.588492263793948
 20
9.154887125522704
 30
0.0
 10
1.585990356445311
 20
9.175908840221306
 30
0.0
 10
1.580014961242669
 20
9.226114056816817
 30
0.0
 10
1.591344100952155
 20
9.240262991188652
 30
0.0
 10
1.642329833984377
 20
9.242071917808529
 30
0.0
 10
1.662045745849607
 20
9.24277145326851
 30
0.0
 10
1.681879295349126
 20
9.239204029846
 30
0.0
 10
1.701659149169927
 20
9.239203705746919
 30
0.0
 10
2.072793434143073
 20
9.239197223765283
 30
0.0
 10
2.443927719116207
 20
9.239478347309563
 30
0.0
 10
2.815061874389648
 20
9.239515553884251
 30
0.0
 10
2.837680206298829
 20
9.23951782257782
 30
0.0
 10
2.860326812744145
 20
9.238452444073346
 30
0.0
 10
2.882911682128906
 20
9.237084810764397
 30
0.0
 10
2.937677902221683
 20
9.233768240031862
 30
0.0
 10
2.9493454284668
 20
9.24427838436318
 30
0.0
 10
2.949277465820311
 20
9.297682977462943
 30
0.0
 10
2.949154769897468
 20
9.39395725816122
 30
0.0
 10
2.94932182312012
 20
9.490232575976568
 30
0.0
 10
2.948959182739259
 20
9.586505851967697
 30
0.0
 10
2.948623001098629
 20
9.675668394085555
 30
0.0
 10
2.947741561889655
 20
9.764828861969287
 30
0.0
 10
2.947138977050789
 20
9.853990496609715
 30
0.0
 10
2.947091247558597
 20
9.861066389831597
 30
0.0
 10
2.946991378784181
 20
9.868171257511461
 30
0.0
 10
2.947522628784175
 20
9.87521694469885
 30
0.0
 10
2.95087303161621
 20
9.919641902770207
 30
0.0
 10
2.957839202880867
 20
9.926244854405732
 30
0.0
 10
3.001595993041999
 20
9.926246539720978
 30
0.0
 10
3.551213287353524
 20
9.926267865440598
 30
0.0
 10
4.100830581665049
 20
9.926260524596387
 30
0.0
 10
4.650447875976574
 20
9.926260524596387
 30
0.0
 10
4.650447875976574
 20
9.926091539334694
 30
0.0
 10
4.650447875976574
 20
9.925922570277963
 30
0.0
 10
4.650447875976574
 20
9.925753585016258
 30
0.0
  0
ENDBLK
  5
44
330
41
100
AcDbEntity
  8
0
100
AcDbBlockEnd
  0
ENDSEC
  0
SECTION
  2
ENTITIES
  0
INSERT
  5
42
330
1F
100
AcDbEntity
  8
Layer 1
100
AcDbBlockReference
  2
block 2
 10
0.0
 20
0.0
 30
0.0
  0
ENDSEC
  0
SECTION
  2
OBJECTS
  0
DICTIONARY
  5
C
330
0
100
AcDbDictionary
281
     1
  3
ACAD_GROUP
350
D
  3
ACAD_LAYOUT
350
1A
  3
ACAD_MATERIAL
350
3B
  3
ACAD_MLEADERSTYLE
350
47
  3
ACAD_MLINESTYLE
350
17
  3
ACAD_PLOTSETTINGS
350
19
  3
ACAD_PLOTSTYLENAME
350
E
  3
ACAD_TABLESTYLE
350
46
  3
ACAD_VISUALSTYLE
350
2A
  0
SUN
  5
3F
330
29
100
AcDbSun
 90
        1
290
     0
 63
     7
421
 16777215
 40
1.0
291
     1
 91
  2455826
 92
 54000000
292
     0
 70
     2
 71
   256
280
     1
  0
DICTIONARY
  5
D
102
{ACAD_REACTORS
330
C
102
}
330
C
100
AcDbDictionary
281
     1
  0
DICTIONARY
  5
1A
102
{ACAD_REACTORS
330
C
102
}
330
C
100
AcDbDictionary
281
     1
  3
Layout1
350
1E
  3
Layout2
350
26
  3
Model
350
22
  0
DICTIONARY
  5
3B
102
{ACAD_REACTORS
330
C
102
}
330
C
100
AcDbDictionary
281
     1
  3
ByBlock
350
3D
  3
ByLayer
350
3C
  3
Global
350
3E
  0
DICTIONARY
  5
47
102
{ACAD_REACTORS
330
C
102
}
330
C
100
AcDbDictionary
281
     1
  0
DICTIONARY
  5
17
102
{ACAD_REACTORS
330
C
102
}
330
C
100
AcDbDictionary
281
     1
  3
Standard
350
18
  0
DICTIONARY
  5
19
102
{ACAD_REACTORS
330
C
102
}
330
C
100
AcDbDictionary
281
     1
  0
ACDBDICTIONARYWDFLT
  5
E
102
{ACAD_REACTORS
330
C
102
}
330
C
100
AcDbDictionary
281
     1
  3
Normal
350
F
100
AcDbDictionaryWithDefault
340
F
  0
DICTIONARY
  5
46
102
{ACAD_REACTORS
330
C
102
}
330
C
100
AcDbDictionary
281
     1
  0
DICTIONARY
  5
2A
102
{ACAD_REACTORS
330
C
102
}
330
C
100
AcDbDictionary
281
     1
  3
2dWireframe
350
2F
  3
3D Hidden
350
31
  3
3dWireframe
350
30
  3
Basic
350
32
  3
Brighten
350
36
  3
ColorChange
350
3A
  3
Conceptual
350
34
  3
Dim
350
35
  3
Facepattern
350
39
  3
Flat
350
2B
  3
FlatWithEdges
350
2C
  3
Gouraud
350
2D
  3
GouraudWithEdges
350
2E
  3
Linepattern
350
38
  3
Realistic
350
33
  3
Thicken
350
37
  0
LAYOUT
  5
1E
102
{ACAD_REACTORS
330
1A
102
}
330
1A
100
AcDbPlotSettings
  1

  2
none_device
  4

  6

 40
0.0
 41
0.0
 42
0.0
 43
0.0
 44
0.0
 45
0.0
 46
0.0
 47
0.0
 48
0.0
 49
0.0
140
0.0
141
0.0
142
1.0
143
1.0
 70
   688
 72
     0
 73
     0
 74
     5
  7

 75
    16
 76
     0
 77
     2
 78
   300
147
1.0
148
0.0
149
0.0
100
AcDbLayout
  1
Layout1
 70
     1
 71
     1
 10
0.0
 20
0.0
 11
12.0
 21
9.0
 12
0.0
 22
0.0
 32
0.0
 14
1.000000000000000E+20
 24
1.000000000000000E+20
 34
1.000000000000000E+20
 15
-1.000000000000000E+20
 25
-1.000000000000000E+20
 35
-1.000000000000000E+20
146
0.0
 13
0.0
 23
0.0
 33
0.0
 16
1.0
 26
0.0
 36
0.0
 17
0.0
 27
1.0
 37
0.0
 76
     0
330
1B
  0
LAYOUT
  5
26
102
{ACAD_REACTORS
330
1A
102
}
330
1A
100
AcDbPlotSettings
  1

  2
none_device
  4

  6

 40
0.0
 41
0.0
 42
0.0
 43
0.0
 44
0.0
 45
0.0
 46
0.0
 47
0.0
 48
0.0
 49
0.0
140
0.0
141
0.0
142
1.0
143
1.0
 70
   688
 72
     0
 73
     0
 74
     5
  7

 75
    16
 76
     0
 77
     2
 78
   300
147
1.0
148
0.0
149
0.0
100
AcDbLayout
  1
Layout2
 70
     1
 71
     2
 10
0.0
 20
0.0
 11
0.0
 21
0.0
 12
0.0
 22
0.0
 32
0.0
 14
0.0
 24
0.0
 34
0.0
 15
0.0
 25
0.0
 35
0.0
146
0.0
 13
0.0
 23
0.0
 33
0.0
 16
1.0
 26
0.0
 36
0.0
 17
0.0
 27
1.0
 37
0.0
 76
     0
330
23
  0
LAYOUT
  5
22
102
{ACAD_REACTORS
330
1A
102
}
330
1A
100
AcDbPlotSettings
  1

  2
none_device
  4

  6

 40
0.0
 41
0.0
 42
0.0
 43
0.0
 44
0.0
 45
0.0
 46
0.0
 47
0.0
 48
0.0
 49
0.0
140
0.0
141
0.0
142
1.0
143
1.0
 70
  1712
 72
     0
 73
     0
 74
     0
  7

 75
     0
 76
     0
 77
     2
 78
   300
147
1.0
148
0.0
149
0.0
100
AcDbLayout
  1
Model
 70
     1
 71
     0
 10
0.0
 20
0.0
 11
12.0
 21
9.0
 12
0.0
 22
0.0
 32
0.0
 14
1.000000000000000E+20
 24
1.000000000000000E+20
 34
1.000000000000000E+20
 15
-1.000000000000000E+20
 25
-1.000000000000000E+20
 35
-1.000000000000000E+20
146
0.0
 13
0.0
 23
0.0
 33
0.0
 16
1.0
 26
0.0
 36
0.0
 17
0.0
 27
1.0
 37
0.0
 76
     0
330
1F
331
29
  0
MATERIAL
  5
3D
102
{ACAD_REACTORS
330
3B
102
}
330
3B
100
AcDbMaterial
  1
ByBlock
 72
     1
 94
      127
  0
MATERIAL
  5
3C
102
{ACAD_REACTORS
330
3B
102
}
330
3B
100
AcDbMaterial
  1
ByLayer
 72
     1
 94
      127
  0
MATERIAL
  5
3E
102
{ACAD_REACTORS
330
3B
102
}
330
3B
100
AcDbMaterial
  1
Global
 72
     1
 94
      127
  0
MLINESTYLE
  5
18
102
{ACAD_REACTORS
330
17
102
}
330
17
100
AcDbMlineStyle
  2
Standard
 70
     0
  3

 62
   256
 51
90.0
 52
90.0
 71
     2
 49
0.5
 62
   256
  6
BYLAYER
 49
-0.5
 62
   256
  6
BYLAYER
  0
ACDBPLACEHOLDER
  5
F
102
{ACAD_REACTORS
330
E
102
}
330
E
  0
VISUALSTYLE
  5
2F
102
{ACAD_REACTORS
330
2A
102
}
330
2A
100
AcDbVisualStyle
  2
2dWireframe
 70
     4
177
     2
291
     0
 71
     0
176
     1
 72
     2
176
     1
 73
     0
176
     1
 90
        0
176
     1
 40
-0.6
176
     1
 41
-30.0
176
     1
 62
     5
 63
     7
421
 16777215
176
     1
 74
     1
176
     1
 91
        4
176
     1
 64
     7
176
     1
 65
   257
176
     1
 75
     1
176
     1
175
     1
176
     1
 42
1.0
176
     1
 92
        0
176
     1
 66
   257
176
     1
 43
1.0
176
     1
 76
     1
176
     1
 77
     6
176
     1
 78
     2
176
     1
 67
     7
176
     1
 79
     5
176
     1
170
     0
176
     1
171
     0
176
     1
290
     0
176
     1
 93
        1
176
     1
 44
0.0
176
     1
173
     0
176
     1
  0
VISUALSTYLE
  5
31
102
{ACAD_REACTORS
330
2A
102
}
330
2A
100
AcDbVisualStyle
  2
3D Hidden
 70
     6
177
     2
291
     0
 71
     1
176
     1
 72
     2
176
     1
 73
     2
176
     1
 90
        0
176
     1
 40
-0.6
176
     1
 41
-30.0
176
     1
 62
     5
 63
     7
421
 16777215
176
     1
 74
     2
176
     1
 91
        2
176
     1
 64
     7
176
     1
 65
   257
176
     1
 75
     2
176
     1
175
     1
176
     1
 42
40.0
176
     1
 92
        0
176
     1
 66
   257
176
     1
 43
1.0
176
     1
 76
     1
176
     1
 77
     6
176
     1
 78
     2
176
     1
 67
     7
176
     1
 79
     3
176
     1
170
     0
176
     1
171
     0
176
     1
290
     0
176
     1
 93
        1
176
     1
 44
0.0
176
     1
173
     0
176
     1
  0
VISUALSTYLE
  5
30
102
{ACAD_REACTORS
330
2A
102
}
330
2A
100
AcDbVisualStyle
  2
3dWireframe
 70
     5
177
     2
291
     0
 71
     0
176
     1
 72
     2
176
     1
 73
     0
176
     1
 90
        0
176
     1
 40
-0.6
176
     1
 41
-30.0
176
     1
 62
     5
 63
     7
421
 16777215
176
     1
 74
     1
176
     1
 91
        4
176
     1
 64
     7
176
     1
 65
   257
176
     1
 75
     1
176
     1
175
     1
176
     1
 42
1.0
176
     1
 92
        0
176
     1
 66
   257
176
     1
 43
1.0
176
     1
 76
     1
176
     1
 77
     6
176
     1
 78
     2
176
     1
 67
     7
176
     1
 79
     5
176
     1
170
     0
176
     1
171
     0
176
     1
290
     0
176
     1
 93
        1
176
     1
 44
0.0
176
     1
173
     0
176
     1
  0
VISUALSTYLE
  5
32
102
{ACAD_REACTORS
330
2A
102
}
330
2A
100
AcDbVisualStyle
  2
Basic
 70
     7
177
     2
291
     1
 71
     1
176
     1
 72
     0
176
     1
 73
     1
176
     1
 90
        0
176
     1
 40
-0.6
176
     1
 41
-30.0
176
     1
 62
     5
 63
     7
421
 16777215
176
     1
 74
     0
176
     1
 91
        4
176
     1
 64
     7
176
     1
 65
   257
176
     1
 75
     1
176
     1
175
     1
176
     1
 42
1.0
176
     1
 92
        8
176
     1
 66
     7
176
     1
 43
1.0
176
     1
 76
     1
176
     1
 77
     6
176
     1
 78
     2
176
     1
 67
     7
176
     1
 79
     5
176
     1
170
     0
176
     1
171
     0
176
     1
290
     0
176
     1
 93
        1
176
     1
 44
0.0
176
     1
173
     0
176
     1
  0
VISUALSTYLE
  5
36
102
{ACAD_REACTORS
330
2A
102
}
330
2A
100
AcDbVisualStyle
  2
Brighten
 70
    12
177
     2
291
     1
 71
     2
176
     1
 72
     2
176
     1
 73
     0
176
     1
 90
        0
176
     1
 40
-0.6
176
     1
 41
-30.0
176
     1
 62
     5
 63
     7
421
 16777215
176
     1
 74
     1
176
     1
 91
        4
176
     1
 64
     7
176
     1
 65
   257
176
     1
 75
     1
176
     1
175
     1
176
     1
 42
1.0
176
     1
 92
        8
176
     1
 66
     7
176
     1
 43
1.0
176
     1
 76
     1
176
     1
 77
     6
176
     1
 78
     2
176
     1
 67
     7
176
     1
 79
     5
176
     1
170
     0
176
     1
171
     0
176
     1
290
     0
176
     1
 93
        1
176
     1
 44
50.0
176
     1
173
     0
176
     1
  0
VISUALSTYLE
  5
3A
102
{ACAD_REACTORS
330
2A
102
}
330
2A
100
AcDbVisualStyle
  2
ColorChange
 70
    16
177
     2
291
     1
 71
     2
176
     1
 72
     2
176
     1
 73
     3
176
     1
 90
        0
176
     1
 40
-0.6
176
     1
 41
-30.0
176
     1
 62
     5
 63
     8
421
  8421504
176
     1
 74
     1
176
     1
 91
        4
176
     1
 64
     7
176
     1
 65
   257
176
     1
 75
     1
176
     1
175
     1
176
     1
 42
1.0
176
     1
 92
        8
176
     1
 66
     8
424
  8421504
176
     1
 43
1.0
176
     1
 76
     1
176
     1
 77
     6
176
     1
 78
     2
176
     1
 67
     7
176
     1
 79
     5
176
     1
170
     0
176
     1
171
     0
176
     1
290
     0
176
     1
 93
        1
176
     1
 44
0.0
176
     1
173
     0
176
     1
  0
VISUALSTYLE
  5
34
102
{ACAD_REACTORS
330
2A
102
}
330
2A
100
AcDbVisualStyle
  2
Conceptual
 70
     9
177
     2
291
     0
 71
     3
176
     1
 72
     2
176
     1
 73
     0
176
     1
 90
        0
176
     1
 40
-0.6
176
     1
 41
-30.0
176
     1
 62
     5
 63
     7
421
 16777215
176
     1
 74
     2
176
     1
 91
        2
176
     1
 64
     7
176
     1
 65
   257
176
     1
 75
     1
176
     1
175
     1
176
     1
 42
40.0
176
     1
 92
        8
176
     1
 66
     7
176
     1
 43
1.0
176
     1
 76
     1
176
     1
 77
     6
176
     1
 78
     2
176
     1
 67
     7
176
     1
 79
     3
176
     1
170
     0
176
     1
171
     0
176
     1
290
     0
176
     1
 93
        1
176
     1
 44
0.0
176
     1
173
     0
176
     1
  0
VISUALSTYLE
  5
35
102
{ACAD_REACTORS
330
2A
102
}
330
2A
100
AcDbVisualStyle
  2
Dim
 70
    11
177
     2
291
     1
 71
     2
176
     1
 72
     2
176
     1
 73
     0
176
     1
 90
        0
176
     1
 40
-0.6
176
     1
 41
-30.0
176
     1
 62
     5
 63
     7
421
 16777215
176
     1
 74
     1
176
     1
 91
        4
176
     1
 64
     7
176
     1
 65
   257
176
     1
 75
     1
176
     1
175
     1
176
     1
 42
1.0
176
     1
 92
        8
176
     1
 66
     7
176
     1
 43
1.0
176
     1
 76
     1
176
     1
 77
     6
176
     1
 78
     2
176
     1
 67
     7
176
     1
 79
     5
176
     1
170
     0
176
     1
171
     0
176
     1
290
     0
176
     1
 93
        1
176
     1
 44
-50.0
176
     1
173
     0
176
     1
  0
VISUALSTYLE
  5
39
102
{ACAD_REACTORS
330
2A
102
}
330
2A
100
AcDbVisualStyle
  2
Facepattern
 70
    15
177
     2
291
     1
 71
     2
176
     1
 72
     2
176
     1
 73
     0
176
     1
 90
        0
176
     1
 40
-0.6
176
     1
 41
-30.0
176
     1
 62
     5
 63
     7
421
 16777215
176
     1
 74
     1
176
     1
 91
        4
176
     1
 64
     7
176
     1
 65
   257
176
     1
 75
     1
176
     1
175
     1
176
     1
 42
1.0
176
     1
 92
        8
176
     1
 66
     7
176
     1
 43
1.0
176
     1
 76
     1
176
     1
 77
     6
176
     1
 78
     2
176
     1
 67
     7
176
     1
 79
     5
176
     1
170
     0
176
     1
171
     0
176
     1
290
     0
176
     1
 93
        1
176
     1
 44
0.0
176
     1
173
     0
176
     1
  0
VISUALSTYLE
  5
2B
102
{ACAD_REACTORS
330
2A
102
}
330
2A
100
AcDbVisualStyle
  2
Flat
 70
     0
177
     2
291
     1
 71
     2
176
     1
 72
     1
176
     1
 73
     1
176
     1
 90
        2
176
     1
 40
-0.6
176
     1
 41
30.0
176
     1
 62
     5
 63
     7
421
 16777215
176
     1
 74
     0
176
     1
 91
        4
176
     1
 64
     7
176
     1
 65
   257
176
     1
 75
     1
176
     1
175
     1
176
     1
 42
1.0
176
     1
 92
        8
176
     1
 66
     7
176
     1
 43
1.0
176
     1
 76
     1
176
     1
 77
     6
176
     1
 78
     2
176
     1
 67
     7
176
     1
 79
     5
176
     1
170
     0
176
     1
171
     0
176
     1
290
     0
176
     1
 93
       13
176
     1
 44
0.0
176
     1
173
     0
176
     1
  0
VISUALSTYLE
  5
2C
102
{ACAD_REACTORS
330
2A
102
}
330
2A
100
AcDbVisualStyle
  2
FlatWithEdges
 70
     1
177
     2
291
     1
 71
     2
176
     1
 72
     1
176
     1
 73
     1
176
     1
 90
        2
176
     1
 40
-0.6
176
     1
 41
30.0
176
     1
 62
     5
 63
     7
421
 16777215
176
     1
 74
     1
176
     1
 91
        4
176
     1
 64
     7
176
     1
 65
   257
176
     1
 75
     1
176
     1
175
     1
176
     1
 42
1.0
176
     1
 92
        0
176
     1
 66
   257
176
     1
 43
1.0
176
     1
 76
     1
176
     1
 77
     6
176
     1
 78
     2
176
     1
 67
     7
176
     1
 79
     5
176
     1
170
     0
176
     1
171
     0
176
     1
290
     0
176
     1
 93
       13
176
     1
 44
0.0
176
     1
173
     0
176
     1
  0
VISUALSTYLE
  5
2D
102
{ACAD_REACTORS
330
2A
102
}
330
2A
100
AcDbVisualStyle
  2
Gouraud
 70
     2
177
     2
291
     1
 71
     2
176
     1
 72
     2
176
     1
 73
     1
176
     1
 90
        2
176
     1
 40
-0.6
176
     1
 41
30.0
176
     1
 62
     5
 63
     7
421
 16777215
176
     1
 74
     0
176
     1
 91
        4
176
     1
 64
     7
176
     1
 65
   257
176
     1
 75
     1
176
     1
175
     1
176
     1
 42
1.0
176
     1
 92
        0
176
     1
 66
     7
176
     1
 43
1.0
176
     1
 76
     1
176
     1
 77
     6
176
     1
 78
     2
176
     1
 67
     7
176
     1
 79
     5
176
     1
170
     0
176
     1
171
     0
176
     1
290
     0
176
     1
 93
       13
176
     1
 44
0.0
176
     1
173
     0
176
     1
  0
VISUALSTYLE
  5
2E
102
{ACAD_REACTORS
330
2A
102
}
330
2A
100
AcDbVisualStyle
  2
GouraudWithEdges
 70
     3
177
     2
291
     1
 71
     2
176
     1
 72
     2
176
     1
 73
     1
176
     1
 90
        2
176
     1
 40
-0.6
176
     1
 41
30.0
176
     1
 62
     5
 63
     7
421
 16777215
176
     1
 74
     1
176
     1
 91
        4
176
     1
 64
     7
176
     1
 65
   257
176
     1
 75
     1
176
     1
175
     1
176
     1
 42
1.0
176
     1
 92
        0
176
     1
 66
   257
176
     1
 43
1.0
176
     1
 76
     1
176
     1
 77
     6
176
     1
 78
     2
176
     1
 67
     7
176
     1
 79
     5
176
     1
170
     0
176
     1
171
     0
176
     1
290
     0
176
     1
 93
       13
176
     1
 44
0.0
176
     1
173
     0
176
     1
  0
VISUALSTYLE
  5
38
102
{ACAD_REACTORS
330
2A
102
}
330
2A
100
AcDbVisualStyle
  2
Linepattern
 70
    14
177
     2
291
     1
 71
     2
176
     1
 72
     2
176
     1
 73
     0
176
     1
 90
        0
176
     1
 40
-0.6
176
     1
 41
-30.0
176
     1
 62
     5
 63
     7
421
 16777215
176
     1
 74
     1
176
     1
 91
        4
176
     1
 64
     7
176
     1
 65
   257
176
     1
 75
     7
176
     1
175
     7
176
     1
 42
1.0
176
     1
 92
        8
176
     1
 66
     7
176
     1
 43
1.0
176
     1
 76
     1
176
     1
 77
     6
176
     1
 78
     2
176
     1
 67
     7
176
     1
 79
     5
176
     1
170
     0
176
     1
171
     0
176
     1
290
     0
176
     1
 93
        1
176
     1
 44
0.0
176
     1
173
     0
176
     1
  0
VISUALSTYLE
  5
33
102
{ACAD_REACTORS
330
2A
102
}
330
2A
100
AcDbVisualStyle
  2
Realistic
 70
     8
177
     2
291
     0
 71
     2
176
     1
 72
     2
176
     1
 73
     0
176
     1
 90
        0
176
     1
 40
-0.6
176
     1
 41
-30.0
176
     1
 62
     5
 63
     7
421
 16777215
176
     1
 74
     1
176
     1
 91
        0
176
     1
 64
     7
176
     1
 65
   257
176
     1
 75
     1
176
     1
175
     1
176
     1
 42
1.0
176
     1
 92
        8
176
     1
 66
     8
424
  7895160
176
     1
 43
1.0
176
     1
 76
     1
176
     1
 77
     6
176
     1
 78
     2
176
     1
 67
     7
176
     1
 79
     5
176
     1
170
     0
176
     1
171
     0
176
     1
290
     0
176
     1
 93
       13
176
     1
 44
0.0
176
     1
173
     0
176
     1
  0
VISUALSTYLE
  5
37
102
{ACAD_REACTORS
330
2A
102
}
330
2A
100
AcDbVisualStyle
  2
Thicken
 70
    13
177
     2
291
     1
 71
     2
176
     1
 72
     2
176
     1
 73
     0
176
     1
 90
        0
176
     1
 40
-0.6
176
     1
 41
-30.0
176
     1
 62
     5
 63
     7
421
 16777215
176
     1
 74
     1
176
     1
 91
        4
176
     1
 64
     7
176
     1
 65
   257
176
     1
 75
     1
176
     1
175
     1
176
     1
 42
1.0
176
     1
 92
       12
176
     1
 66
     7
176
     1
 43
1.0
176
     1
 76
     1
176
     1
 77
     6
176
     1
 78
     2
176
     1
 67
     7
176
     1
 79
     5
176
     1
170
     0
176
     1
171
     0
176
     1
290
     0
176
     1
 93
        1
176
     1
 44
0.0
176
     1
173
     0
176
     1
  0
ENDSEC
  0
EOF
