  0
SECTION
  2
HEADER
  9
$ACADVER
  1
AC1024
  9
$ACADMAINTVER
 70
     6
  9
$DWGCODEPAGE
  3
UNDEFINED
  9
$INSBASE
 10
0.0
 20
0.0
 30
0.0
  9
$EXTMIN
 10
1.000000000000000E+20
 20
1.000000000000000E+20
 30
1.000000000000000E+20
  9
$EXTMAX
 10
-1.000000000000000E+20
 20
-1.000000000000000E+20
 30
-1.000000000000000E+20
  9
$LIMMIN
 10
0.0
 20
0.0
  9
$LIMMAX
 10
12.0
 20
9.0
  9
$ORTHOMODE
 70
     0
  9
$REGENMODE
 70
     1
  9
$FILLMODE
 70
     1
  9
$QTEXTMODE
 70
     0
  9
$MIRRTEXT
 70
     1
  9
$LTSCALE
 40
1.0
  9
$ATTMODE
 70
     1
  9
$TEXTSIZE
 40
0.2
  9
$TRACEWID
 40
0.05
  9
$TEXTSTYLE
  7
Standard
  9
$CLAYER
  8
0
  9
$CELTYPE
  6
ByLayer
  9
$CECOLOR
 62
   256
  9
$CELTSCALE
 40
1.0
  9
$DISPSILH
 70
     0
  9
$DIMSCALE
 40
1.0
  9
$DIMASZ
 40
0.18
  9
$DIMEXO
 40
0.0625
  9
$DIMDLI
 40
0.38
  9
$DIMRND
 40
0.0
  9
$DIMDLE
 40
0.0
  9
$DIMEXE
 40
0.18
  9
$DIMTP
 40
0.0
  9
$DIMTM
 40
0.0
  9
$DIMTXT
 40
0.18
  9
$DIMCEN
 40
0.09
  9
$DIMTSZ
 40
0.0
  9
$DIMTOL
 70
     0
  9
$DIMLIM
 70
     0
  9
$DIMTIH
 70
     1
  9
$DIMTOH
 70
     1
  9
$DIMSE1
 70
     0
  9
$DIMSE2
 70
     0
  9
$DIMTAD
 70
     0
  9
$DIMZIN
 70
     0
  9
$DIMBLK
  1

  9
$DIMASO
 70
     1
  9
$DIMSHO
 70
     1
  9
$DIMPOST
  1

  9
$DIMAPOST
  1

  9
$DIMALT
 70
     0
  9
$DIMALTD
 70
     2
  9
$DIMALTF
 40
25.4
  9
$DIMLFAC
 40
1.0
  9
$DIMTOFL
 70
     0
  9
$DIMTVP
 40
0.0
  9
$DIMTIX
 70
     0
  9
$DIMSOXD
 70
     0
  9
$DIMSAH
 70
     0
  9
$DIMBLK1
  1

  9
$DIMBLK2
  1

  9
$DIMSTYLE
  2
Standard
  9
$DIMCLRD
 70
     0
  9
$DIMCLRE
 70
     0
  9
$DIMCLRT
 70
     0
  9
$DIMTFAC
 40
1.0
  9
$DIMGAP
 40
0.09
  9
$DIMJUST
 70
     0
  9
$DIMSD1
 70
     0
  9
$DIMSD2
 70
     0
  9
$DIMTOLJ
 70
     1
  9
$DIMTZIN
 70
     0
  9
$DIMALTZ
 70
     0
  9
$DIMALTTZ
 70
     0
  9
$DIMUPT
 70
     0
  9
$DIMDEC
 70
     4
  9
$DIMTDEC
 70
     4
  9
$DIMALTU
 70
     2
  9
$DIMALTTD
 70
     2
  9
$DIMTXSTY
  7
Standard
  9
$DIMAUNIT
 70
     0
  9
$DIMADEC
 70
     0
  9
$DIMALTRND
 40
0.0
  9
$DIMAZIN
 70
     0
  9
$DIMDSEP
 70
    46
  9
$DIMATFIT
 70
     3
  9
$DIMFRAC
 70
     0
  9
$DIMLDRBLK
  1

  9
$DIMLUNIT
 70
     2
  9
$DIMLWD
 70
    -2
  9
$DIMLWE
 70
    -2
  9
$DIMTMOVE
 70
     0
  9
$DIMFXL
 40
1.0
  9
$DIMFXLON
 70
     0
  9
$DIMJOGANG
 40
0.7853981633974483
  9
$DIMTFILL
 70
     0
  9
$DIMTFILLCLR
 70
     0
  9
$DIMARCSYM
 70
     0
  9
$DIMLTYPE
  6

  9
$DIMLTEX1
  6

  9
$DIMLTEX2
  6

  9
$DIMTXTDIRECTION
 70
     0
  9
$LUNITS
 70
     2
  9
$LUPREC
 70
     4
  9
$SKETCHINC
 40
0.1
  9
$FILLETRAD
 40
0.5
  9
$AUNITS
 70
     0
  9
$AUPREC
 70
     0
  9
$MENU
  1
.
  9
$ELEVATION
 40
0.0
  9
$PELEVATION
 40
0.0
  9
$THICKNESS
 40
0.0
  9
$LIMCHECK
 70
     0
  9
$CHAMFERA
 40
0.5
  9
$CHAMFERB
 40
0.5
  9
$CHAMFERC
 40
1.0
  9
$CHAMFERD
 40
0.0
  9
$SKPOLY
 70
     0
  9
$TDCREATE
 40
2458951.474374989
  9
$TDUCREATE
 40
2458951.807708333
  9
$TDUPDATE
 40
2458951.474374989
  9
$TDUUPDATE
 40
2458951.807708333
  9
$TDINDWG
 40
0.0000000116
  9
$TDUSRTIMER
 40
0.0000000116
  9
$USRTIMER
 70
     1
  9
$ANGBASE
 50
0.0
  9
$ANGDIR
 70
     0
  9
$PDMODE
 70
     0
  9
$PDSIZE
 40
0.0
  9
$PLINEWID
 40
0.0
  9
$SPLFRAME
 70
     0
  9
$SPLINETYPE
 70
     6
  9
$SPLINESEGS
 70
     8
  9
$HANDSEED
  5
4A
  9
$SURFTAB1
 70
     6
  9
$SURFTAB2
 70
     6
  9
$SURFTYPE
 70
     6
  9
$SURFU
 70
     6
  9
$SURFV
 70
     6
  9
$UCSBASE
  2

  9
$UCSNAME
  2

  9
$UCSORG
 10
0.0
 20
0.0
 30
0.0
  9
$UCSXDIR
 10
1.0
 20
0.0
 30
0.0
  9
$UCSYDIR
 10
0.0
 20
1.0
 30
0.0
  9
$UCSORTHOREF
  2

  9
$UCSORTHOVIEW
 70
     0
  9
$UCSORGTOP
 10
0.0
 20
0.0
 30
0.0
  9
$UCSORGBOTTOM
 10
0.0
 20
0.0
 30
0.0
  9
$UCSORGLEFT
 10
0.0
 20
0.0
 30
0.0
  9
$UCSORGRIGHT
 10
0.0
 20
0.0
 30
0.0
  9
$UCSORGFRONT
 10
0.0
 20
0.0
 30
0.0
  9
$UCSORGBACK
 10
0.0
 20
0.0
 30
0.0
  9
$PUCSBASE
  2

  9
$PUCSNAME
  2

  9
$PUCSORG
 10
0.0
 20
0.0
 30
0.0
  9
$PUCSXDIR
 10
1.0
 20
0.0
 30
0.0
  9
$PUCSYDIR
 10
0.0
 20
1.0
 30
0.0
  9
$PUCSORTHOREF
  2

  9
$PUCSORTHOVIEW
 70
     0
  9
$PUCSORGTOP
 10
0.0
 20
0.0
 30
0.0
  9
$PUCSORGBOTTOM
 10
0.0
 20
0.0
 30
0.0
  9
$PUCSORGLEFT
 10
0.0
 20
0.0
 30
0.0
  9
$PUCSORGRIGHT
 10
0.0
 20
0.0
 30
0.0
  9
$PUCSORGFRONT
 10
0.0
 20
0.0
 30
0.0
  9
$PUCSORGBACK
 10
0.0
 20
0.0
 30
0.0
  9
$USERI1
 70
     0
  9
$USERI2
 70
     0
  9
$USERI3
 70
     0
  9
$USERI4
 70
     0
  9
$USERI5
 70
     0
  9
$USERR1
 40
0.0
  9
$USERR2
 40
0.0
  9
$USERR3
 40
0.0
  9
$USERR4
 40
0.0
  9
$USERR5
 40
0.0
  9
$WORLDVIEW
 70
     1
  9
$SHADEDGE
 70
     3
  9
$SHADEDIF
 70
    70
  9
$TILEMODE
 70
     1
  9
$MAXACTVP
 70
    64
  9
$PINSBASE
 10
0.0
 20
0.0
 30
0.0
  9
$PLIMCHECK
 70
     0
  9
$PEXTMIN
 10
1.000000000000000E+20
 20
1.000000000000000E+20
 30
1.000000000000000E+20
  9
$PEXTMAX
 10
-1.000000000000000E+20
 20
-1.000000000000000E+20
 30
-1.000000000000000E+20
  9
$PLIMMIN
 10
0.0
 20
0.0
  9
$PLIMMAX
 10
12.0
 20
9.0
  9
$UNITMODE
 70
     0
  9
$VISRETAIN
 70
     1
  9
$PLINEGEN
 70
     0
  9
$PSLTSCALE
 70
     1
  9
$TREEDEPTH
 70
  3020
  9
$CMLSTYLE
  2
Standard
  9
$CMLJUST
 70
     0
  9
$CMLSCALE
 40
1.0
  9
$PROXYGRAPHICS
 70
     1
  9
$MEASUREMENT
 70
     0
  9
$CELWEIGHT
370
    -1
  9
$ENDCAPS
280
     0
  9
$JOINSTYLE
280
     0
  9
$LWDISPLAY
290
     1
  9
$INSUNITS
 70
     1
  9
$HYPERLINKBASE
  1

  9
$STYLESHEET
  1

  9
$XEDIT
290
     1
  9
$CEPSNTYPE
380
     0
  9
$PSTYLEMODE
290
     1
  9
$FINGERPRINTGUID
  2
{9DE2657B-B122-72A4-6C59-2518C524CB3B}
  9
$VERSIONGUID
  2
{FAEB1C32-E019-11D5-929B-00C0DF256EC4}
  9
$EXTNAMES
290
     1
  9
$PSVPSCALE
 40
0.0
  9
$OLESTARTUP
290
     0
  9
$SORTENTS
280
   127
  9
$INDEXCTL
280
     0
  9
$HIDETEXT
280
     1
  9
$XCLIPFRAME
280
     2
  9
$HALOGAP
280
     0
  9
$OBSCOLOR
 70
   257
  9
$OBSLTYPE
280
     0
  9
$INTERSECTIONDISPLAY
280
     0
  9
$INTERSECTIONCOLOR
 70
   257
  9
$DIMASSOC
280
     2
  9
$PROJECTNAME
  1

  9
$CAMERADISPLAY
290
     0
  9
$LENSLENGTH
 40
50.0
  9
$CAMERAHEIGHT
 40
0.0
  9
$STEPSPERSEC
 40
2.0
  9
$STEPSIZE
 40
6.0
  9
$3DDWFPREC
 40
2.0
  9
$PSOLWIDTH
 40
0.25
  9
$PSOLHEIGHT
 40
4.0
  9
$LOFTANG1
 40
1.570796326794897
  9
$LOFTANG2
 40
1.570796326794897
  9
$LOFTMAG1
 40
0.0
  9
$LOFTMAG2
 40
0.0
  9
$LOFTPARAM
 70
     7
  9
$LOFTNORMALS
280
     1
  9
$LATITUDE
 40
37.795
  9
$LONGITUDE
 40
-122.394
  9
$NORTHDIRECTION
 40
0.0
  9
$TIMEZONE
 70
 -8000
  9
$LIGHTGLYPHDISPLAY
280
     1
  9
$TILEMODELIGHTSYNCH
280
     1
  9
$CMATERIAL
347
3C
  9
$SOLIDHIST
280
     1
  9
$SHOWHIST
280
     1
  9
$DWFFRAME
280
     2
  9
$DGNFRAME
280
     2
  9
$REALWORLDSCALE
290
     1
  9
$INTERFERECOLOR
 62
   256
  9
$CSHADOW
280
     0
  9
$SHADOWPLANELOCATION
 40
0.0
  0
ENDSEC
  0
SECTION
  2
CLASSES
  0
CLASS
  1
ACDBDICTIONARYWDFLT
  2
AcDbDictionaryWithDefault
  3
ObjectDBX Classes
 90
        0
 91
        4
280
     0
281
     0
  0
CLASS
  1
VISUALSTYLE
  2
AcDbVisualStyle
  3
ObjectDBX Classes
 90
     4095
 91
        4
280
     0
281
     0
  0
CLASS
  1
MATERIAL
  2
AcDbMaterial
  3
ObjectDBX Classes
 90
     1153
 91
        4
280
     0
281
     0
  0
CLASS
  1
SUN
  2
AcDbSun
  3
SCENEOE
 90
     1024
 91
        4
280
     0
281
     0
  0
ENDSEC
  0
SECTION
  2
TABLES
  0
TABLE
  2
VPORT
  5
8
330
0
100
AcDbSymbolTable
 70
     1
  0
VPORT
  5
29
330
8
100
AcDbSymbolTableRecord
100
AcDbViewportTableRecord
  2
*Active
 70
     0
 10
0.0
 20
0.0
 11
1.0
 21
1.0
 12
0.0
 22
0.0
 13
0.0
 23
0.0
 14
0.5
 24
0.5
 15
0.5
 25
0.5
 16
0.0
 26
0.0
 36
1.0
 17
4.25
 27
5.5
 37
0.0
 40
11.0
 41
0.7727272727272727
 42
50.0
 43
0.0
 44
0.0
 50
0.0
 51
0.0
 71
     0
 72
   100
 73
     1
 74
     3
 75
     0
 76
     0
 77
     0
 78
     0
281
     0
 65
     1
110
0.0
120
0.0
130
0.0
111
1.0
121
0.0
131
0.0
112
0.0
122
1.0
132
0.0
 79
     0
146
0.0
 60
     3
 61
     5
292
     1
282
     1
141
0.0
142
0.0
 63
   250
361
3F
  0
ENDTAB
  0
TABLE
  2
LTYPE
  5
5
330
0
100
AcDbSymbolTable
 70
     1
  0
LTYPE
  5
14
330
5
100
AcDbSymbolTableRecord
100
AcDbLinetypeTableRecord
  2
ByBlock
 70
     0
  3

 72
    65
 73
     0
 40
0.0
  0
LTYPE
  5
15
330
5
100
AcDbSymbolTableRecord
100
AcDbLinetypeTableRecord
  2
ByLayer
 70
     0
  3

 72
    65
 73
     0
 40
0.0
  0
LTYPE
  5
16
330
5
100
AcDbSymbolTableRecord
100
AcDbLinetypeTableRecord
  2
Continuous
 70
     0
  3
Solid line
 72
    65
 73
     0
 40
0.0
  0
ENDTAB
  0
TABLE
  2
LAYER
  5
2
330
0
100
AcDbSymbolTable
 70
     2
  0
LAYER
  5
10
330
2
100
AcDbSymbolTableRecord
100
AcDbLayerTableRecord
  2
0
 70
     0
 62
     7
  6
Continuous
370
    -3
390
F
347
3E
  0
LAYER
  5
40
330
2
100
AcDbSymbolTableRecord
100
AcDbLayerTableRecord
  2
Layer 1
 70
     0
 62
     7
  6
Continuous
370
    -3
390
F
347
3E
  0
ENDTAB
  0
TABLE
  2
STYLE
  5
3
330
0
100
AcDbSymbolTable
 70
     1
  0
STYLE
  5
11
330
3
100
AcDbSymbolTableRecord
100
AcDbTextStyleTableRecord
  2
Standard
 70
     0
 40
0.0
 41
1.0
 50
0.0
 71
     0
 42
0.2
  3
txt
  4

  0
ENDTAB
  0
TABLE
  2
VIEW
  5
6
330
0
100
AcDbSymbolTable
 70
     0
  0
ENDTAB
  0
TABLE
  2
UCS
  5
7
330
0
100
AcDbSymbolTable
 70
     0
  0
ENDTAB
  0
TABLE
  2
APPID
  5
9
330
0
100
AcDbSymbolTable
 70
     1
  0
APPID
  5
12
330
9
100
AcDbSymbolTableRecord
100
AcDbRegAppTableRecord
  2
ACAD
 70
     0
  0
ENDTAB
  0
TABLE
  2
DIMSTYLE
  5
A
330
0
100
AcDbSymbolTable
 70
     1
100
AcDbDimStyleTable
  0
DIMSTYLE
105
27
330
A
100
AcDbSymbolTableRecord
100
AcDbDimStyleTableRecord
  2
Standard
 70
     0
178
     0
340
11
  0
ENDTAB
  0
TABLE
  2
BLOCK_RECORD
  5
1
330
0
100
AcDbSymbolTable
 70
     2
  0
BLOCK_RECORD
  5
1F
330
1
100
AcDbSymbolTableRecord
100
AcDbBlockTableRecord
  2
*Model_Space
340
22
 70
     0
280
     1
281
     0
  0
BLOCK_RECORD
  5
1B
330
1
100
AcDbSymbolTableRecord
100
AcDbBlockTableRecord
  2
*Paper_Space
340
1E
 70
     0
280
     1
281
     0
  0
BLOCK_RECORD
  5
23
330
1
100
AcDbSymbolTableRecord
100
AcDbBlockTableRecord
  2
*Paper_Space0
340
26
 70
     0
280
     1
281
     0
  0
BLOCK_RECORD
  5
41
330
1
100
AcDbSymbolTableRecord
100
AcDbBlockTableRecord
  2
block 2
340
0
102
{BLKREFS
331
42
102
}
 70
     0
280
     1
281
     0
  0
ENDTAB
  0
ENDSEC
  0
SECTION
  2
BLOCKS
  0
BLOCK
  5
20
330
1F
100
AcDbEntity
  8
0
100
AcDbBlockBegin
  2
*Model_Space
 70
     0
 10
0.0
 20
0.0
 30
0.0
  3
*Model_Space
  1

  0
ENDBLK
  5
21
330
1F
100
AcDbEntity
  8
0
100
AcDbBlockEnd
  0
BLOCK
  5
1C
330
1B
100
AcDbEntity
 67
     1
  8
0
100
AcDbBlockBegin
  2
*Paper_Space
 70
     0
 10
0.0
 20
0.0
 30
0.0
  3
*Paper_Space
  1

  0
ENDBLK
  5
1D
330
1B
100
AcDbEntity
 67
     1
  8
0
100
AcDbBlockEnd
  0
BLOCK
  5
24
330
23
100
AcDbEntity
  8
0
100
AcDbBlockBegin
  2
*Paper_Space0
 70
     0
 10
0.0
 20
0.0
 30
0.0
  3
*Paper_Space0
  1

  0
ENDBLK
  5
25
330
23
100
AcDbEntity
  8
0
100
AcDbBlockEnd
  0
BLOCK
  5
43
330
41
100
AcDbEntity
  8
0
100
AcDbBlockBegin
  2
block 2
 70
     0
 10
0.0
 20
0.0
 30
0.0
  3
block 2
  1

  0
SPLINE
  5
45
330
41
100
AcDbEntity
  8
Layer 1
 62
     7
420
 16777215
370
    35
100
AcDbSpline
210
0.0
220
0.0
230
1.0
 70
    11
 71
     3
 72
   425
 73
   421
 74
     0
 42
0.0000000001
 43
0.0000000001
 12
1.0
 22
0.0
 32
0.0
 13
1.0
 23
0.0
 33
0.0
 40
0.0
 40
0.0
 40
0.0
 40
0.0
 40
1.0
 40
1.0
 40
1.0
 40
2.0
 40
2.0
 40
2.0
 40
3.0
 40
3.0
 40
3.0
 40
4.0
 40
4.0
 40
4.0
 40
5.0
 40
5.0
 40
5.0
 40
6.0
 40
6.0
 40
6.0
 40
7.0
 40
7.0
 40
7.0
 40
8.0
 40
8.0
 40
8.0
 40
9.0
 40
9.0
 40
9.0
 40
10.0
 40
10.0
 40
10.0
 40
11.0
 40
11.0
 40
11.0
 40
12.0
 40
12.0
 40
12.0
 40
13.0
 40
13.0
 40
13.0
 40
14.0
 40
14.0
 40
14.0
 40
15.0
 40
15.0
 40
15.0
 40
16.0
 40
16.0
 40
16.0
 40
17.0
 40
17.0
 40
17.0
 40
18.0
 40
18.0
 40
18.0
 40
19.0
 40
19.0
 40
19.0
 40
20.0
 40
20.0
 40
20.0
 40
21.0
 40
21.0
 40
21.0
 40
22.0
 40
22.0
 40
22.0
 40
23.0
 40
23.0
 40
23.0
 40
24.0
 40
24.0
 40
24.0
 40
25.0
 40
25.0
 40
25.0
 40
26.0
 40
26.0
 40
26.0
 40
27.0
 40
27.0
 40
27.0
 40
28.0
 40
28.0
 40
28.0
 40
29.0
 40
29.0
 40
29.0
 40
30.0
 40
30.0
 40
30.0
 40
31.0
 40
31.0
 40
31.0
 40
32.0
 40
32.0
 40
32.0
 40
33.0
 40
33.0
 40
33.0
 40
34.0
 40
34.0
 40
34.0
 40
35.0
 40
35.0
 40
35.0
 40
36.0
 40
36.0
 40
36.0
 40
37.0
 40
37.0
 40
37.0
 40
38.0
 40
38.0
 40
38.0
 40
39.0
 40
39.0
 40
39.0
 40
40.0
 40
40.0
 40
40.0
 40
41.0
 40
41.0
 40
41.0
 40
42.0
 40
42.0
 40
42.0
 40
43.0
 40
43.0
 40
43.0
 40
44.0
 40
44.0
 40
44.0
 40
45.0
 40
45.0
 40
45.0
 40
46.0
 40
46.0
 40
46.0
 40
47.0
 40
47.0
 40
47.0
 40
48.0
 40
48.0
 40
48.0
 40
49.0
 40
49.0
 40
49.0
 40
50.0
 40
50.0
 40
50.0
 40
51.0
 40
51.0
 40
51.0
 40
52.0
 40
52.0
 40
52.0
 40
53.0
 40
53.0
 40
53.0
 40
54.0
 40
54.0
 40
54.0
 40
55.0
 40
55.0
 40
55.0
 40
56.0
 40
56.0
 40
56.0
 40
57.0
 40
57.0
 40
57.0
 40
58.0
 40
58.0
 40
58.0
 40
59.0
 40
59.0
 40
59.0
 40
60.0
 40
60.0
 40
60.0
 40
61.0
 40
61.0
 40
61.0
 40
62.0
 40
62.0
 40
62.0
 40
63.0
 40
63.0
 40
63.0
 40
64.0
 40
64.0
 40
64.0
 40
65.0
 40
65.0
 40
65.0
 40
66.0
 40
66.0
 40
66.0
 40
67.0
 40
67.0
 40
67.0
 40
68.0
 40
68.0
 40
68.0
 40
69.0
 40
69.0
 40
69.0
 40
70.0
 40
70.0
 40
70.0
 40
71.0
 40
71.0
 40
71.0
 40
72.0
 40
72.0
 40
72.0
 40
73.0
 40
73.0
 40
73.0
 40
74.0
 40
74.0
 40
74.0
 40
75.0
 40
75.0
 40
75.0
 40
76.0
 40
76.0
 40
76.0
 40
77.0
 40
77.0
 40
77.0
 40
78.0
 40
78.0
 40
78.0
 40
79.0
 40
79.0
 40
79.0
 40
80.0
 40
80.0
 40
80.0
 40
81.0
 40
81.0
 40
81.0
 40
82.0
 40
82.0
 40
82.0
 40
83.0
 40
83.0
 40
83.0
 40
84.0
 40
84.0
 40
84.0
 40
85.0
 40
85.0
 40
85.0
 40
86.0
 40
86.0
 40
86.0
 40
87.0
 40
87.0
 40
87.0
 40
88.0
 40
88.0
 40
88.0
 40
89.0
 40
89.0
 40
89.0
 40
90.0
 40
90.0
 40
90.0
 40
91.0
 40
91.0
 40
91.0
 40
92.0
 40
92.0
 40
92.0
 40
93.0
 40
93.0
 40
93.0
 40
94.0
 40
94.0
 40
94.0
 40
95.0
 40
95.0
 40
95.0
 40
96.0
 40
96.0
 40
96.0
 40
97.0
 40
97.0
 40
97.0
 40
98.0
 40
98.0
 40
98.0
 40
99.0
 40
99.0
 40
99.0
 40
100.0
 40
100.0
 40
100.0
 40
101.0
 40
101.0
 40
101.0
 40
102.0
 40
102.0
 40
102.0
 40
103.0
 40
103.0
 40
103.0
 40
104.0
 40
104.0
 40
104.0
 40
105.0
 40
105.0
 40
105.0
 40
106.0
 40
106.0
 40
106.0
 40
107.0
 40
107.0
 40
107.0
 40
108.0
 40
108.0
 40
108.0
 40
109.0
 40
109.0
 40
109.0
 40
110.0
 40
110.0
 40
110.0
 40
111.0
 40
111.0
 40
111.0
 40
112.0
 40
112.0
 40
112.0
 40
113.0
 40
113.0
 40
113.0
 40
114.0
 40
114.0
 40
114.0
 40
115.0
 40
115.0
 40
115.0
 40
116.0
 40
116.0
 40
116.0
 40
117.0
 40
117.0
 40
117.0
 40
118.0
 40
118.0
 40
118.0
 40
119.0
 40
119.0
 40
119.0
 40
120.0
 40
120.0
 40
120.0
 40
121.0
 40
121.0
 40
121.0
 40
122.0
 40
122.0
 40
122.0
 40
123.0
 40
123.0
 40
123.0
 40
124.0
 40
124.0
 40
124.0
 40
125.0
 40
125.0
 40
125.0
 40
126.0
 40
126.0
 40
126.0
 40
127.0
 40
127.0
 40
127.0
 40
128.0
 40
128.0
 40
128.0
 40
129.0
 40
129.0
 40
129.0
 40
130.0
 40
130.0
 40
130.0
 40
131.0
 40
131.0
 40
131.0
 40
132.0
 40
132.0
 40
132.0
 40
133.0
 40
133.0
 40
133.0
 40
134.0
 40
134.0
 40
134.0
 40
135.0
 40
135.0
 40
135.0
 40
136.0
 40
136.0
 40
136.0
 40
137.0
 40
137.0
 40
137.0
 40
138.0
 40
138.0
 40
138.0
 40
139.0
 40
139.0
 40
139.0
 40
140.0
 40
140.0
 40
140.0
 40
140.0
 10
2.017369681529582
 20
1.243056706962761
 30
0.0
 10
2.003112822024668
 20
1.241741649834795
 30
0.0
 10
1.994727060186859
 20
1.239878565742755
 30
0.0
 10
1.986480057240215
 20
1.240366392775185
 30
0.0
 10
1.659556061907033
 20
1.259677077751753
 30
0.0
 10
1.332337804266748
 20
1.244734001610545
 30
0.0
 10
1.005282059378336
 20
1.248499611129217
 30
0.0
 10
0.960543155488886
 20
1.249015462267784
 30
0.0
 10
0.9158754482802401
 20
1.253883353293885
 30
0.0
 10
0.870614348863051
 20
1.241682487833006
 30
0.0
 10
0.8350309357399257
 20
1.232089940101004
 30
0.0
 10
0.81885247976657
 20
1.254845514270679
 30
0.0
 10
0.8212057345068109
 20
1.292441409525761
 30
0.0
 10
0.8292440799066424
 20
1.420863432716639
 30
0.0
 10
0.83542462677537
 20
1.549329567926331
 30
0.0
 10
0.8261555588062618
 20
1.678086323495841
 30
0.0
 10
0.8240454890824872
 20
1.707395905743144
 30
0.0
 10
0.8275075818280963
 20
1.737315271781022
 30
0.0
 10
0.830513613428631
 20
1.766739026312482
 30
0.0
 10
0.836204610102767
 20
1.822443683770568
 30
0.0
 10
0.8250347789692871
 20
1.835736451440274
 30
0.0
 10
0.7690837932269056
 20
1.835698567000488
 30
0.0
 10
0.6202323669252917
 20
1.835597368839545
 30
0.0
 10
0.47138097307431
 20
1.835444274185698
 30
0.0
 10
0.3225295792233283
 20
1.835315051918618
 30
0.0
 10
0.3111883763161687
 20
1.835305191584969
 30
0.0
 10
0.2998397097642535
 20
1.835059202209019
 30
0.0
 10
0.288507317202958
 20
1.835378365639826
 30
0.0
 10
0.245417700325624
 20
1.836590148747089
 30
0.0
 10
0.234485440249715
 20
1.84947812377282
 30
0.0
 10
0.2379076836224764
 20
1.893725592512055
 30
0.0
 10
0.2401935384055302
 20
1.923280126205453
 30
0.0
 10
0.2423570867665098
 20
1.952857494355663
 30
0.0
 10
0.2437503383129448
 20
1.982463405576911
 30
0.0
 10
0.2452798825027129
 20
2.014965660062191
 30
0.0
 10
0.2467291438354474
 20
2.047511507601434
 30
0.0
 10
0.2467325673768401
 20
2.080038672403286
 30
0.0
 10
0.2468776703660372
 20
3.461594928306214
 30
0.0
 10
0.2469822262938553
 20
4.843151184209091
 30
0.0
 10
0.2465031252019243
 20
6.224707440111994
 30
0.0
 10
0.2464781382173113
 20
6.296761828149051
 30
0.0
 10
0.24194950686169
 20
6.368846575634418
 30
0.0
 10
0.2383238142681294
 20
6.440857111135036
 30
0.0
 10
0.2357124796725556
 20
6.492721428124796
 30
0.0
 10
0.2455292006881235
 20
6.504942014252921
 30
0.0
 10
0.2974856762089075
 20
6.503563124438819
 30
0.0
 10
0.3441213842859648
 20
6.502325652567643
 30
0.0
 10
0.3906976428100329
 20
6.496927119902529
 30
0.0
 10
0.437303009548638
 20
6.496888975980305
 30
0.0
 10
0.5233601964862752
 20
6.496818915715013
 30
0.0
 10
0.6094191682085213
 20
6.499347053362511
 30
0.0
 10
0.6954781074801354
 20
6.500753967282725
 30
0.0
 10
0.7223348324533592
 20
6.501193271094406
 30
0.0
 10
0.7492038237644844
 20
6.502160362238024
 30
0.0
 10
0.7760491261161758
 20
6.501738703233904
 30
0.0
 10
0.8240384148452777
 20
6.500985425640679
 30
0.0
 10
0.8368567379504712
 20
6.516123632594902
 30
0.0
 10
0.832336689786315
 20
6.562620295332762
 30
0.0
 10
0.8290855261315704
 20
6.596064471162637
 30
0.0
 10
0.8302135100082699
 20
6.629980126629751
 30
0.0
 10
0.8302070847836628
 20
6.663685601300964
 30
0.0
 10
0.8301196627881557
 20
7.124184719095473
 30
0.0
 10
0.8304128866750867
 20
7.58468435585491
 30
0.0
 10
0.8298478563165947
 20
8.045182954684517
 30
0.0
 10
0.8297876928497518
 20
8.09424187701389
 30
0.0
 10
0.8247661526593977
 20
8.143287565737598
 30
0.0
 10
0.8223162599449172
 20
8.192352845387353
 30
0.0
 10
0.8198567618441327
 20
8.241612736885145
 30
0.0
 10
0.8272300640457817
 20
8.2518486713868
 30
0.0
 10
0.8750670944219033
 20
8.252157325777818
 30
0.0
 10
1.028074148319913
 20
8.253144656553633
 30
0.0
 10
1.181091910925602
 20
8.252639833419783
 30
0.0
 10
1.334104676134378
 20
8.252329232910268
 30
0.0
 10
1.346711486037381
 20
8.252303673887557
 30
0.0
 10
1.359274292886956
 20
8.248585030694874
 30
0.0
 10
1.371923807818196
 20
8.247991464558304
 30
0.0
 10
1.402315639453112
 20
8.246564829970819
 30
0.0
 10
1.416871563958251
 20
8.26015120204862
 30
0.0
 10
1.416971382094175
 20
8.290631050208907
 30
0.0
 10
1.417392980670873
 20
8.419284272275224
 30
0.0
 10
1.418069770996883
 20
8.547942683990843
 30
0.0
 10
1.417235919624747
 20
8.676589937960518
 30
0.0
 10
1.4170079864041
 20
8.711768883803972
 30
0.0
 10
1.4131840042398
 20
8.747091582932537
 30
0.0
 10
1.408590163344482
 20
8.782030377755493
 30
0.0
 10
1.403505409328128
 20
8.820702865754052
 30
0.0
 10
1.410098598399852
 20
8.830213935992308
 30
0.0
 10
1.449714845937857
 20
8.830640006198324
 30
0.0
 10
1.487713364700805
 20
8.831048691079255
 30
0.0
 10
1.52572681075325
 20
8.831041814793947
 30
0.0
 10
1.563722733465839
 20
8.830477959399508
 30
0.0
 10
1.647152392943844
 20
8.829240228045856
 30
0.0
 10
1.730571278812893
 20
8.827236763940732
 30
0.0
 10
1.814002236316077
 20
8.826137985446596
 30
0.0
 10
1.860475042233727
 20
8.825525996055072
 30
0.0
 10
1.90696926556676
 20
8.825673122612203
 30
0.0
 10
1.953442980102043
 20
8.82629004217055
 30
0.0
 10
1.98564646547311
 20
8.826717539530112
 30
0.0
 10
1.996638402256419
 20
8.838034348235876
 30
0.0
 10
1.996690193460886
 20
8.870079913584378
 30
0.0
 10
1.9969238379923
 20
9.0146029534124
 30
0.0
 10
1.997104652899123
 20
9.15912683655842
 30
0.0
 10
1.996732768686608
 20
9.303648968197825
 30
0.0
 10
1.996663973352358
 20
9.330405502481058
 30
0.0
 10
1.991790278229385
 20
9.357256553251835
 30
0.0
 10
1.993033786346624
 20
9.383882048890717
 30
0.0
 10
1.99452002517152
 20
9.41570523776751
 30
0.0
 10
2.002317522000188
 20
9.418849776008415
 30
0.0
 10
2.033553459406145
 20
9.41156058923943
 30
0.0
 10
2.052621189615567
 20
9.407110983945445
 30
0.0
 10
2.072448524157165
 20
9.403646438955723
 30
0.0
 10
2.091940319191129
 20
9.403618285108362
 30
0.0
 10
2.420834327331767
 20
9.403143302457893
 30
0.0
 10
2.749729503695069
 20
9.403273303172378
 30
0.0
 10
3.078624160848297
 20
9.403304635679913
 30
0.0
 10
3.088543409627353
 20
9.403305608739162
 30
0.0
 10
3.098512242968051
 20
9.403124295367382
 30
0.0
 10
3.10837282100921
 20
9.403993691363274
 30
0.0
 10
3.145092655172675
 20
9.407231448679402
 30
0.0
 10
3.156381580115938
 20
9.418248555139156
 30
0.0
 10
3.156477374373821
 20
9.454414896629045
 30
0.0
 10
3.156860032195279
 20
9.59893346038455
 30
0.0
 10
3.156923895033881
 20
9.743455137929635
 30
0.0
 10
3.156227374725189
 20
9.887971431213588
 30
0.0
 10
3.156140147433462
 20
9.90610070874887
 30
0.0
 10
3.150165337554906
 20
9.924128788123172
 30
0.0
 10
3.1480677288728
 20
9.9423360401389
 30
0.0
 10
3.143321110414427
 20
9.983534622360542
 30
0.0
 10
3.154823171091341
 20
9.996771698606393
 30
0.0
 10
3.196444867524065
 20
9.995986926329111
 30
0.0
 10
3.245884309978212
 20
9.995054784229877
 30
0.0
 10
3.295294417063398
 20
9.991094108768822
 30
0.0
 10
3.344718542820475
 20
9.991068290263657
 30
0.0
 10
4.005343522923302
 20
9.990723308327661
 30
0.0
 10
4.66596876263116
 20
9.990736136491982
 30
0.0
 10
5.326593483128969
 20
9.991066992851326
 30
0.0
 10
5.370352507814131
 20
9.991088902901891
 30
0.0
 10
5.414096994617365
 20
9.995060557714698
 30
0.0
 10
5.457873672444899
 20
9.995994029661562
 30
0.0
 10
5.49981805793603
 20
9.996888417062273
 30
0.0
 10
5.510646183942324
 20
9.985203110822214
 30
0.0
 10
5.510214201164217
 20
9.94352401573005
 30
0.0
 10
5.508570382083134
 20
9.78500982739792
 30
0.0
 10
5.506792606804033
 20
9.626496531036764
 30
0.0
 10
5.505534560804841
 20
9.467979147826794
 30
0.0
 10
5.505111923808019
 20
9.414758970091636
 30
0.0
 10
5.51601845053483
 20
9.40351034040331
 30
0.0
 10
5.570420762441421
 20
9.40345610856832
 30
0.0
 10
5.904986231977318
 20
9.403122608731362
 30
0.0
 10
6.23955170151324
 20
9.40316055804174
 30
0.0
 10
6.574116651839049
 20
9.403675046897382
 30
0.0
 10
6.590730335653435
 20
9.403700541049476
 30
0.0
 10
6.607296771351482
 20
9.40955141652009
 30
0.0
 10
6.623955107231874
 20
9.412264240811409
 30
0.0
 10
6.638720403197643
 20
9.414668799935372
 30
0.0
 10
6.653582272236437
 20
9.41647998753462
 30
0.0
 10
6.672477884307707
 20
9.419123335396167
 30
0.0
 10
6.673943614334853
 20
9.40209985859921
 30
0.0
 10
6.679082755606006
 20
9.388413780384578
 30
0.0
 10
6.675353788884498
 20
9.377856995816096
 30
0.0
 10
6.658177800564494
 20
9.329232122778496
 30
0.0
 10
6.669514752439201
 20
9.279577493582224
 30
0.0
 10
6.668458159947098
 20
9.230670433364947
 30
0.0
 10
6.665888589311508
 20
9.111703367329508
 30
0.0
 10
6.667073945900938
 20
8.992649439539212
 30
0.0
 10
6.667294610180609
 20
8.873631579811432
 30
0.0
 10
6.667360030649408
 20
8.838331585398477
 30
0.0
 10
6.675931150482155
 20
8.8279477458923
 30
0.0
 10
6.712295585352826
 20
8.826819905362186
 30
0.0
 10
6.753172994150443
 20
8.825551944301473
 30
0.0
 10
6.794195781767636
 20
8.830000122441902
 30
0.0
 10
6.835142764714621
 20
8.829768015377795
 30
0.0
 10
6.922899650717075
 20
8.82927045775293
 30
0.0
 10
7.010645633308084
 20
8.826838458358363
 30
0.0
 10
7.098402519310563
 20
8.826311968438757
 30
0.0
 10
7.129436743604376
 20
8.826125660029561
 30
0.0
 10
7.160481352099572
 20
8.829400588208664
 30
0.0
 10
7.191537383216327
 20
8.830704617331877
 30
0.0
 10
7.250848826333165
 20
8.833194740798389
 30
0.0
 10
7.258461484376994
 20
8.82567870148518
 30
0.0
 10
7.257794299437263
 20
8.767484180043072
 30
0.0
 10
7.256787031901795
 20
8.679681282296276
 30
0.0
 10
7.255537812473777
 20
8.591877087137176
 30
0.0
 10
7.255292226110744
 20
8.50407094585959
 30
0.0
 10
7.255153597022096
 20
8.454537300362189
 30
0.0
 10
7.257503541798137
 20
8.404995870390861
 30
0.0
 10
7.25731454933273
 20
8.355463392564552
 30
0.0
 10
7.257245494393449
 20
8.337329849786265
 30
0.0
 10
7.253673848323084
 20
8.319113791584401
 30
0.0
 10
7.250665545178511
 20
8.301108303402138
 30
0.0
 10
7.244990059905199
 20
8.267144124714251
 30
0.0
 10
7.258058577362791
 20
8.24902511295396
 30
0.0
 10
7.292844613621178
 20
8.248316206862102
 30
0.0
 10
7.318167527146872
 20
8.24780035572351
 30
0.0
 10
7.343563130082353
 20
8.252281228654422
 30
0.0
 10
7.368934330144535
 20
8.252377756131056
 30
0.0
 10
7.492268009341766
 20
8.252846121978715
 30
0.0
 10
7.61560428458933
 20
8.252543046460687
 30
0.0
 10
7.738940040626807
 20
8.252642557985647
 30
0.0
 10
7.75451893877203
 20
8.252655142885159
 30
0.0
 10
7.77015495002494
 20
8.252720662207327
 30
0.0
 10
7.785663754810709
 20
8.253993423693625
 30
0.0
 10
7.824413440742192
 20
8.25717377051458
 30
0.0
 10
7.830988197856438
 20
8.254589195431157
 30
0.0
 10
7.833484040662092
 20
8.214879296541211
 30
0.0
 10
7.836763890673208
 20
8.16268271225623
 30
0.0
 10
7.835377599786751
 20
8.110175138238041
 30
0.0
 10
7.835474692069814
 20
8.057800419241477
 30
0.0
 10
7.835706259760955
 20
7.933215752470623
 30
0.0
 10
7.835692760299152
 20
7.808630436993616
 30
0.0
 10
7.835658492434529
 20
7.684045380999059
 30
0.0
 10
7.835624743779994
 20
7.559654158405187
 30
0.0
 10
7.834836063683926
 20
7.435259562539272
 30
0.0
 10
7.835581649344198
 20
7.310873529594674
 30
0.0
 10
7.835962749535459
 20
7.247251283710246
 30
0.0
 10
7.840802825806399
 20
7.1836305947206
 30
0.0
 10
7.840316325970965
 20
7.120034556565037
 30
0.0
 10
7.839765963296941
 20
7.04816933124429
 30
0.0
 10
7.833582171365277
 20
6.976340952433424
 30
0.0
 10
7.833270645323384
 20
6.90448169520937
 30
0.0
 10
7.832723917119867
 20
6.778422519336408
 30
0.0
 10
7.834756624543236
 20
6.652351666752552
 30
0.0
 10
7.835887983285399
 20
6.52628756071278
 30
0.0
 10
7.835923808780231
 20
6.5222720695812
 30
0.0
 10
7.837922767549066
 20
6.51827422325717
 30
0.0
 10
7.839838133496666
 20
6.51119294681252
 30
0.0
 10
7.868557200089096
 20
6.508713591868273
 30
0.0
 10
7.897825071725365
 20
6.504748440334727
 30
0.0
 10
7.927179651443263
 20
6.503944563661017
 30
0.0
 10
7.993461489747561
 20
6.502129743307263
 30
0.0
 10
8.05979265300847
 20
6.50219746823038
 30
0.0
 10
8.126089548404781
 20
6.500812610319612
 30
0.0
 10
8.148651821989182
 20
6.500341390164849
 30
0.0
 10
8.171279516042407
 20
6.495577032641942
 30
0.0
 10
8.193687584236082
 20
6.496668156403378
 30
0.0
 10
8.248667776950393
 20
6.499344458537861
 30
0.0
 10
8.303644335194223
 20
6.503211266217527
 30
0.0
 10
8.358418401510814
 20
6.508647683322401
 30
0.0
 10
8.404402241345199
 20
6.513211201418117
 30
0.0
 10
8.421180514751716
 20
6.498443535422602
 30
0.0
 10
8.419651441096068
 20
6.451935195973861
 30
0.0
 10
8.417561101354952
 20
6.388342531090327
 30
0.0
 10
8.414932859981466
 20
6.324722620548073
 30
0.0
 10
8.414920918149871
 20
6.261113867751773
 30
0.0
 10
8.414654044173984
 20
4.856885591032651
 30
0.0
 10
8.414631198930895
 20
3.452657833278459
 30
0.0
 10
8.415028913844404
 20
2.048429556559364
 30
0.0
 10
8.41504449014648
 20
1.991969286165891
 30
0.0
 10
8.419129634975889
 20
1.935482548561089
 30
0.0
 10
8.422270855898356
 20
1.879060681572304
 30
0.0
 10
8.424354445908596
 20
1.841627222339715
 30
0.0
 10
8.411550206376534
 20
1.825669050799004
 30
0.0
 10
8.37884516407803
 20
1.827342193727418
 30
0.0
 10
8.32384887585153
 20
1.830155502602894
 30
0.0
 10
8.268855183675416
 20
1.834356004731388
 30
0.0
 10
8.21382774284474
 20
1.834938802345682
 30
0.0
 10
8.101906300982364
 20
1.836123599276662
 30
0.0
 10
7.989962533086984
 20
1.835469703467172
 30
0.0
 10
7.878030187813136
 20
1.835041557401483
 30
0.0
 10
7.864387424018306
 20
1.834989141943727
 30
0.0
 10
7.850756602055096
 20
1.831668804333427
 30
0.0
 10
7.83311488230245
 20
1.829332424226878
 30
0.0
 10
7.83311488230245
 20
1.78273144953846
 30
0.0
 10
7.832739493421968
 20
1.739271769560168
 30
0.0
 10
7.833200551963955
 20
1.695821949915474
 30
0.0
 10
7.833922253961039
 20
1.627854670170109
 30
0.0
 10
7.834945617008669
 20
1.559888947319501
 30
0.0
 10
7.836340734466299
 20
1.491932046872636
 30
0.0
 10
7.837499611342158
 20
1.435499281620398
 30
0.0
 10
7.839446649103997
 20
1.379082604280888
 30
0.0
 10
7.840863573384568
 20
1.322653471783118
 30
0.0
 10
7.841076449513189
 20
1.314185002085499
 30
0.0
 10
7.840933147533936
 20
1.30561377733213
 30
0.0
 10
7.839879670302253
 20
1.297223152373792
 30
0.0
 10
7.83311176704203
 20
1.243312037707407
 30
0.0
 10
7.826713541351536
 20
1.239556807487285
 30
0.0
 10
7.772136774861464
 20
1.245565383425451
 30
0.0
 10
7.74126454410945
 20
1.248965641634691
 30
0.0
 10
7.709923985874436
 20
1.249013386408074
 30
0.0
 10
7.678793707717709
 20
1.249037258794791
 30
0.0
 10
7.383927040120928
 20
1.249267679222865
 30
0.0
 10
7.089060891734207
 20
1.249264565433299
 30
0.0
 10
6.794194224137426
 20
1.24902065191711
 30
0.0
 10
6.764482427891456
 20
1.248995741600538
 30
0.0
 10
6.734752459293051
 20
1.2473174090229
 30
0.0
 10
6.70506610434053
 20
1.245742869430867
 30
0.0
 10
6.65221726896286
 20
1.242937345029279
 30
0.0
 10
6.643590593652637
 20
1.250786170602674
 30
0.0
 10
6.644738047906962
 20
1.305466391292561
 30
0.0
 10
6.645181453306602
 20
1.326588263868365
 30
0.0
 10
6.649832537112135
 20
1.347653050302092
 30
0.0
 10
6.649864208926399
 20
1.36874689877181
 30
0.0
 10
6.650076046634871
 20
1.509022599886571
 30
0.0
 10
6.649743232980123
 20
1.649299857896141
 30
0.0
 10
6.649157044811292
 20
1.789574521081047
 30
0.0
 10
6.648985705488232
 20
1.830679138215398
 30
0.0
 10
6.642782183573924
 20
1.835898368497864
 30
0.0
 10
6.60206780673823
 20
1.835806511705565
 30
0.0
 10
6.453343197496173
 20
1.835469703467172
 30
0.0
 10
6.304618069044055
 20
1.83539341562275
 30
0.0
 10
6.155894498222121
 20
1.834940878205392
 30
0.0
 10
6.136088191688359
 20
1.834880678273748
 30
0.0
 10
6.116239309928864
 20
1.83191531267428
 30
0.0
 10
6.096494270183357
 20
1.832624218766139
 30
0.0
 10
6.069037922480725
 20
1.833609214199744
 30
0.0
 10
6.061043645035574
 20
1.842722238338107
 30
0.0
 10
6.063950702216541
 20
1.870232569179532
 30
0.0
 10
6.081119940805643
 20
2.032705438201245
 30
0.0
 10
6.067345297653092
 20
2.195628768780605
 30
0.0
 10
6.071280909982407
 20
2.358288465176479
 30
0.0
 10
6.071678105685805
 20
2.374705920678581
 30
0.0
 10
6.066556617557024
 20
2.391255712237378
 30
0.0
 10
6.063769497902184
 20
2.409203076347694
 30
0.0
 10
6.051510948153514
 20
2.411015820841738
 30
0.0
 10
6.042058728832292
 20
2.413617392026582
 30
0.0
 10
6.032601836620415
 20
2.413632442009505
 30
0.0
 10
5.869652429095266
 20
2.413888291719053
 30
0.0
 10
5.706702502360031
 20
2.413710286748735
 30
0.0
 10
5.54375257562482
 20
2.413924100299128
 30
0.0
 10
5.509414098446617
 20
2.413969250247848
 30
0.0
 10
5.50343124081198
 20
2.408346784216266
 30
0.0
 10
5.503633732739218
 20
2.375744369499848
 30
0.0
 10
5.504397490751924
 20
2.25250576801136
 30
0.0
 10
5.504503928816247
 20
2.129261457908695
 30
0.0
 10
5.50554079132568
 20
2.006025451244922
 30
0.0
 10
5.50583726027556
 20
1.970739987849962
 30
0.0
 10
5.508612438098781
 20
1.935479953736477
 30
0.0
 10
5.509898002231694
 20
1.900195528271322
 30
0.0
 10
5.510361137613978
 20
1.887482963391297
 30
0.0
 10
5.511291562059114
 20
1.874501574678511
 30
0.0
 10
5.509374119271241
 20
1.862047973297599
 30
0.0
 10
5.505323761516491
 20
1.835735932475321
 30
0.0
 10
5.492040810300068
 20
1.825163578958988
 30
0.0
 10
5.464961928318214
 20
1.82786115865555
 30
0.0
 10
5.299510447466546
 20
1.844344522703523
 30
0.0
 10
5.133622310946167
 20
1.830992593032028
 30
0.0
 10
4.967996375511044
 20
1.835459324168621
 30
0.0
 10
4.92704991177412
 20
1.836564719465615
 30
0.0
 10
4.925384285870122
 20
1.830490753946479
 30
0.0
 10
4.925892592528473
 20
1.787542773387334
 30
0.0
 10
4.9272653839531
 20
1.671574351577419
 30
0.0
 10
4.926328209777062
 20
1.555579981521027
 30
0.0
 10
4.927166734039828
 20
1.439602218342366
 30
0.0
 10
4.92747358719109
 20
1.397226656098964
 30
0.0
 10
4.929910759258872
 20
1.354854207645126
 30
0.0
 10
4.931900372246471
 20
1.312504593648151
 30
0.0
 10
4.934346890095488
 20
1.260406742440763
 30
0.0
 10
4.920325622159756
 20
1.245476121457816
 30
0.0
 10
4.869468476609957
 20
1.245685783288789
 30
0.0
 10
4.564726952695107
 20
1.246939602555206
 30
0.0
 10
4.259986207595349
 20
1.248483004251536
 30
0.0
 10
3.955243645260351
 20
1.248790231488985
 30
0.0
 10
3.895982825125328
 20
1.248850431420629
 30
0.0
 10
3.836701496192543
 20
1.244187012576276
 30
0.0
 10
3.777460406040177
 20
1.241110588482166
 30
0.0
 10
3.75017176319011
 20
1.239694852158158
 30
0.0
 10
3.735217474758908
 20
1.255744361526215
 30
0.0
 10
3.735578844967499
 20
1.286782615949202
 30
0.0
 10
3.737440991882939
 20
1.446732796455156
 30
0.0
 10
3.738980190134953
 20
1.606687128680581
 30
0.0
 10
3.740920737770933
 20
1.766636271256731
 30
0.0
 10
3.741552616425919
 20
1.818735160393973
 30
0.0
 10
3.752333234710805
 20
1.838171953848107
 30
0.0
 10
3.668152927274352
 20
1.835697010105731
 30
0.0
 10
3.574742103216471
 20
1.832951166670884
 30
0.0
 10
3.481181746658497
 20
1.835621241226211
 30
0.0
 10
3.387689925829742
 20
1.835168703808853
 30
0.0
 10
3.323981811841577
 20
1.834860438641549
 30
0.0
 10
3.260283562844784
 20
1.83276382033182
 30
0.0
 10
3.196574929646557
 20
1.83236421733712
 30
0.0
 10
3.149985171660672
 20
1.832072040082595
 30
0.0
 10
3.139447024478399
 20
1.847023419662643
 30
0.0
 10
3.149277747940535
 20
1.893126706984983
 30
0.0
 10
3.153359777509523
 20
1.912272880079298
 30
0.0
 10
3.156110033249408
 20
1.932101492054193
 30
0.0
 10
3.156203750667019
 20
1.95163533194985
 30
0.0
 10
3.156830177616269
 20
2.081986866743591
 30
0.0
 10
3.156579658757563
 20
2.212342553256702
 30
0.0
 10
3.156596533084843
 20
2.342697201840009
 30
0.0
 10
3.156597571504992
 20
2.352613583687142
 30
0.0
 10
3.157240093966392
 20
2.362608329238406
 30
0.0
 10
3.15624762391792
 20
2.372431816363435
 30
0.0
 10
3.153110037465947
 20
2.403484601804394
 30
0.0
 10
3.141168465464918
 20
2.413775676329654
 30
0.0
 10
3.108956413127695
 20
2.413594038604818
 30
0.0
 10
2.979985410597313
 20
2.412868006670326
 30
0.0
 10
2.85101570609211
 20
2.411860695744761
 30
0.0
 10
2.72204392474661
 20
2.411360932518972
 30
0.0
 10
2.690878080700107
 20
2.411240013690682
 30
0.0
 10
2.659680305234297
 20
2.413772043575136
 30
0.0
 10
2.62854379655673
 20
2.413061061623567
 30
0.0
 10
2.597571877471296
 20
2.412353193461614
 30
0.0
 10
2.592243484129679
 20
2.405390241020541
 30
0.0
 10
2.592538655054379
 20
2.373891664706308
 30
0.0
 10
2.59371985796324
 20
2.247845462956573
 30
0.0
 10
2.594612120468241
 20
2.121794590522465
 30
0.0
 10
2.596298514775046
 20
1.995755135316762
 30
0.0
 10
2.596788908685994
 20
1.959082997633787
 30
0.0
 10
2.599203754720773
 20
1.922420201319508
 30
0.0
 10
2.60138261977881
 20
1.885791137725543
 30
0.0
 10
2.604147673005678
 20
1.839308487040752
 30
0.0
 10
2.587501798166967
 20
1.823785727074765
 30
0.0
 10
2.541385819369806
 20
1.82936356212253
 30
0.0
 10
2.517535904812222
 20
1.832249007123058
 30
0.0
 10
2.493481161882086
 20
1.834926347187421
 30
0.0
 10
2.469505598487596
 20
1.835045709120903
 30
0.0
 10
2.334833150180417
 20
1.83571724973793
 30
0.0
 10
2.200156548192682
 20
1.835733337650709
 30
0.0
 10
2.065481633637685
 20
1.835641999823363
 30
0.0
 10
2.015122280742313
 20
1.835607748138096
 30
0.0
 10
2.006224058565597
 20
1.827066623350523
 30
0.0
 10
2.006297396987962
 20
1.77589201075034
 30
0.0
 10
2.006463803815336
 20
1.659799037357617
 30
0.0
 10
2.007489113900735
 20
1.543706063964894
 30
0.0
 10
2.008248458627855
 20
1.427614128502025
 30
0.0
 10
2.008570888081219
 20
1.378303118958785
 30
0.0
 10
2.001367107967389
 20
1.328661009791429
 30
0.0
 10
2.016904469307014
 20
1.280021540865214
 30
0.0
 10
2.020111759710858
 20
1.269980607435324
 30
0.0
 10
2.017369681529582
 20
1.258042338228077
 30
0.0
 10
2.017369681529582
 20
1.243056706962761
 30
0.0
  0
SPLINE
  5
46
330
41
100
AcDbEntity
  8
Layer 1
 62
     7
420
 16777215
370
    35
100
AcDbSpline
210
0.0
220
0.0
230
1.0
 70
    11
 71
     3
 72
   173
 73
   169
 74
     0
 42
0.0000000001
 43
0.0000000001
 12
1.0
 22
0.0
 32
0.0
 13
1.0
 23
0.0
 33
0.0
 40
0.0
 40
0.0
 40
0.0
 40
0.0
 40
1.0
 40
1.0
 40
1.0
 40
2.0
 40
2.0
 40
2.0
 40
3.0
 40
3.0
 40
3.0
 40
4.0
 40
4.0
 40
4.0
 40
5.0
 40
5.0
 40
5.0
 40
6.0
 40
6.0
 40
6.0
 40
7.0
 40
7.0
 40
7.0
 40
8.0
 40
8.0
 40
8.0
 40
9.0
 40
9.0
 40
9.0
 40
10.0
 40
10.0
 40
10.0
 40
11.0
 40
11.0
 40
11.0
 40
12.0
 40
12.0
 40
12.0
 40
13.0
 40
13.0
 40
13.0
 40
14.0
 40
14.0
 40
14.0
 40
15.0
 40
15.0
 40
15.0
 40
16.0
 40
16.0
 40
16.0
 40
17.0
 40
17.0
 40
17.0
 40
18.0
 40
18.0
 40
18.0
 40
19.0
 40
19.0
 40
19.0
 40
20.0
 40
20.0
 40
20.0
 40
21.0
 40
21.0
 40
21.0
 40
22.0
 40
22.0
 40
22.0
 40
23.0
 40
23.0
 40
23.0
 40
24.0
 40
24.0
 40
24.0
 40
25.0
 40
25.0
 40
25.0
 40
26.0
 40
26.0
 40
26.0
 40
27.0
 40
27.0
 40
27.0
 40
28.0
 40
28.0
 40
28.0
 40
29.0
 40
29.0
 40
29.0
 40
30.0
 40
30.0
 40
30.0
 40
31.0
 40
31.0
 40
31.0
 40
32.0
 40
32.0
 40
32.0
 40
33.0
 40
33.0
 40
33.0
 40
34.0
 40
34.0
 40
34.0
 40
35.0
 40
35.0
 40
35.0
 40
36.0
 40
36.0
 40
36.0
 40
37.0
 40
37.0
 40
37.0
 40
38.0
 40
38.0
 40
38.0
 40
39.0
 40
39.0
 40
39.0
 40
40.0
 40
40.0
 40
40.0
 40
41.0
 40
41.0
 40
41.0
 40
42.0
 40
42.0
 40
42.0
 40
43.0
 40
43.0
 40
43.0
 40
44.0
 40
44.0
 40
44.0
 40
45.0
 40
45.0
 40
45.0
 40
46.0
 40
46.0
 40
46.0
 40
47.0
 40
47.0
 40
47.0
 40
48.0
 40
48.0
 40
48.0
 40
49.0
 40
49.0
 40
49.0
 40
50.0
 40
50.0
 40
50.0
 40
51.0
 40
51.0
 40
51.0
 40
52.0
 40
52.0
 40
52.0
 40
53.0
 40
53.0
 40
53.0
 40
54.0
 40
54.0
 40
54.0
 40
55.0
 40
55.0
 40
55.0
 40
56.0
 40
56.0
 40
56.0
 40
56.0
 10
4.310010540193136
 20
7.089114366663225
 30
0.0
 10
4.311419935927688
 20
7.120940669329595
 30
0.0
 10
4.313180577274478
 20
7.146082703721326
 30
0.0
 10
4.313539870642797
 20
7.171244977745295
 30
0.0
 10
4.315573616486315
 20
7.313642726451285
 30
0.0
 10
4.317056740050804
 20
7.456048259631213
 30
0.0
 10
4.319243912469952
 20
7.598443413512578
 30
0.0
 10
4.319751699918243
 20
7.631493694961982
 30
0.0
 10
4.305889829473951
 20
7.64502103477922
 30
0.0
 10
4.272657269744488
 20
7.641151113309989
 30
0.0
 10
4.254493743871661
 20
7.639036071745295
 30
0.0
 10
4.236309449596042
 20
7.63553331796273
 30
0.0
 10
4.21812152084994
 20
7.635448986161905
 30
0.0
 10
4.105131804268884
 20
7.634923534172154
 30
0.0
 10
3.99213767440224
 20
7.635306011324196
 30
0.0
 10
3.879145621375894
 20
7.635118924467595
 30
0.0
 10
3.846623860232019
 20
7.635064952115069
 30
0.0
 10
3.813993584183562
 20
7.632233998431994
 30
0.0
 10
3.781612788573637
 20
7.634112391989447
 30
0.0
 10
3.748089990415135
 20
7.636056694092783
 30
0.0
 10
3.740422555708935
 20
7.645062033008545
 30
0.0
 10
3.736080142289918
 20
7.678115168765063
 30
0.0
 10
3.734613633447692
 20
7.689278882817007
 30
0.0
 10
3.734728898083189
 20
7.700779664589819
 30
0.0
 10
3.735339229520276
 20
7.712060405233071
 30
0.0
 10
3.736787046799994
 20
7.73879929470877
 30
0.0
 10
3.7404609772541
 20
7.765491477340902
 30
0.0
 10
3.740590000956457
 20
7.792215576316139
 30
0.0
 10
3.741175410310183
 20
7.913846424457169
 30
0.0
 10
3.740848567571232
 20
8.035481813541322
 30
0.0
 10
3.740842077445361
 20
8.157115645730691
 30
0.0
 10
3.740841558235287
 20
8.167032935766478
 30
0.0
 10
3.741404381950992
 20
8.17699861928179
 30
0.0
 10
3.74063906630805
 20
8.186859082657923
 30
0.0
 10
3.737721365320656
 20
8.22445329127701
 30
0.0
 10
3.724234364546772
 20
8.232245938896918
 30
0.0
 10
3.688213387137289
 20
8.227735614706337
 30
0.0
 10
3.633839112574467
 20
8.220927313813906
 30
0.0
 10
3.578995991318581
 20
8.215596376330684
 30
0.0
 10
3.52425489484142
 20
8.214505901275402
 30
0.0
 10
3.443325621257195
 20
8.212893606984872
 30
0.0
 10
3.362312754851738
 20
8.215821088144581
 30
0.0
 10
3.281332339075637
 20
8.216306060869934
 30
0.0
 10
3.218633569463236
 20
8.216681531995453
 30
0.0
 10
3.155929088540081
 20
8.216053973656079
 30
0.0
 10
3.093228761297471
 20
8.21627673935149
 30
0.0
 10
3.02204973361457
 20
8.216529605012738
 30
0.0
 10
2.950854870024525
 20
8.218455613602348
 30
0.0
 10
2.879699726004838
 20
8.21741119668444
 30
0.0
 10
2.801679846046909
 20
8.216266100570477
 30
0.0
 10
2.723736809179311
 20
8.210446168383694
 30
0.0
 10
2.646194602485593
 20
8.225583337408073
 30
0.0
 10
2.610810176621726
 20
8.232490760601776
 30
0.0
 10
2.59221414876073
 20
8.212611030581506
 30
0.0
 10
2.59749425556586
 20
8.1773388007922
 30
0.0
 10
2.599788644864424
 20
8.162010652674262
 30
0.0
 10
2.603176490570073
 20
8.146591815435158
 30
0.0
 10
2.603157020192447
 20
8.131217738921084
 30
0.0
 10
2.603089263278333
 20
8.077430137907616
 30
0.0
 10
2.600687916705384
 20
8.023635401126386
 30
0.0
 10
2.601137033415777
 20
7.969859866047487
 30
0.0
 10
2.601905464319126
 20
7.877863472198783
 30
0.0
 10
2.60406485899955
 20
7.785877976613531
 30
0.0
 10
2.605824461926191
 20
7.693891443098449
 30
0.0
 10
2.606696475238474
 20
7.64831049397632
 30
0.0
 10
2.595283718693559
 20
7.635464814592208
 30
0.0
 10
2.550305848369463
 20
7.633092625905634
 30
0.0
 10
2.541872059600198
 20
7.632647872962202
 30
0.0
 10
2.533360129715422
 20
7.633305142043708
 30
0.0
 10
2.524901418862808
 20
7.63376676134731
 30
0.0
 10
2.485427954093994
 20
7.635918649421884
 30
0.0
 10
2.445976815358196
 20
7.639673101194603
 30
0.0
 10
2.406487774287295
 20
7.640099171400632
 30
0.0
 10
2.317197920553642
 20
7.641062629789732
 30
0.0
 10
2.227889375257506
 20
7.640647717329671
 30
0.0
 10
2.138590954557698
 20
7.640230988492362
 30
0.0
 10
2.116179900906117
 20
7.640126417059352
 30
0.0
 10
2.093392679558949
 20
7.634650558619935
 30
0.0
 10
2.071445929512328
 20
7.637257319454053
 30
0.0
 10
2.008170187709829
 20
7.644772450578633
 30
0.0
 10
2.008281817874844
 20
7.6458980855078
 30
0.0
 10
2.008281039059739
 20
7.581399048377256
 30
0.0
 10
2.008274808538898
 20
7.050100140259486
 30
0.0
 10
2.008277534391772
 20
6.518801232141704
 30
0.0
 10
2.008278702614436
 20
5.987502324023934
 30
0.0
 10
2.008278832416939
 20
5.979001678500796
 30
0.0
 10
2.008029871188468
 20
5.970490653679083
 30
0.0
 10
2.008352041036788
 20
5.962001944349291
 30
0.0
 10
2.009585424557675
 20
5.929508771750256
 30
0.0
 10
2.012421869169139
 20
5.92613290489261
 30
0.0
 10
2.045972055658833
 20
5.925808811294979
 30
0.0
 10
2.17490243000125
 20
5.924562776502486
 30
0.0
 10
2.303837087826739
 20
5.923376163194272
 30
0.0
 10
2.432771486047197
 20
5.923183367723456
 30
0.0
 10
2.463775076946894
 20
5.923136920362392
 30
0.0
 10
2.495016466058562
 20
5.925273239489128
 30
0.0
 10
2.525743837201111
 20
5.929408611519117
 30
0.0
 10
2.592660929025821
 20
5.938414728882283
 30
0.0
 10
2.604919478774478
 20
5.927084686570853
 30
0.0
 10
2.603952190414387
 20
5.859346270358767
 30
0.0
 10
2.602132359119638
 20
5.731903015022415
 30
0.0
 10
2.602072130751544
 20
5.604434849369517
 30
0.0
 10
2.600738799292218
 20
5.476983290594338
 30
0.0
 10
2.60046102190486
 20
5.450444981063407
 30
0.0
 10
2.599705571253265
 20
5.423655492507249
 30
0.0
 10
2.5958431675438
 20
5.39747215498715
 30
0.0
 10
2.590163788194988
 20
5.358972741792109
 30
0.0
 10
2.600653908445805
 20
5.344770228603364
 30
0.0
 10
2.639752243939168
 20
5.344697054548507
 30
0.0
 10
2.694902997161421
 20
5.344593780527803
 30
0.0
 10
2.75005478880381
 20
5.344537213350628
 30
0.0
 10
2.805205282421032
 20
5.344713142461235
 30
0.0
 10
3.077224370500037
 20
5.345581889750974
 30
0.0
 10
3.34924345857904
 20
5.346664450591106
 30
0.0
 10
3.621263325473137
 20
5.347217148239602
 30
0.0
 10
3.643785360277143
 20
5.347263336118178
 30
0.0
 10
3.666490935840834
 20
5.345132466123232
 30
0.0
 10
3.688799056096059
 20
5.341875961199043
 30
0.0
 10
3.724762141582763
 20
5.336625593020926
 30
0.0
 10
3.737855321518661
 20
5.346164168400365
 30
0.0
 10
3.740636470257704
 20
5.383161178128375
 30
0.0
 10
3.74137790223742
 20
5.393025663482704
 30
0.0
 10
3.740841817840318
 20
5.40298771424356
 30
0.0
 10
3.740842337050392
 20
5.412905134020548
 30
0.0
 10
3.740847269546053
 20
5.512931472202543
 30
0.0
 10
3.740857134537388
 20
5.612957810384589
 30
0.0
 10
3.740833770084237
 20
5.712984148566609
 30
0.0
 10
3.740819751412358
 20
5.77342124720451
 30
0.0
 10
3.743612322772934
 20
5.834084095586136
 30
0.0
 10
3.726571588676115
 20
5.898502952635289
 30
0.0
 10
3.675994297353946
 20
5.898502952635289
 30
0.0
 10
3.625283828648864
 20
5.898890619436618
 30
0.0
 10
3.574581407699863
 20
5.898427962203186
 30
0.0
 10
3.436539545644539
 20
5.897167915357626
 30
0.0
 10
3.297945503679948
 20
5.909807046700317
 30
0.0
 10
3.160937129268607
 20
5.881790984536464
 30
0.0
 10
3.138054243466083
 20
5.877111996744222
 30
0.0
 10
3.127997923228602
 20
5.891412594304382
 30
0.0
 10
3.135851754349864
 20
5.915154201837544
 30
0.0
 10
3.140238560229843
 20
5.928415572129097
 30
0.0
 10
3.146803452352767
 20
5.941731174255639
 30
0.0
 10
3.147555787743941
 20
5.955290170933495
 30
0.0
 10
3.151468814435209
 20
6.025825548625853
 30
0.0
 10
3.156039420679917
 20
6.0964382520925
 30
0.0
 10
3.156329659108956
 20
6.167040576260584
 30
0.0
 10
3.157354579786796
 20
6.416392844939448
 30
0.0
 10
3.157426749986497
 20
6.665754973951961
 30
0.0
 10
3.15621309644828
 20
6.915105426253578
 30
0.0
 10
3.155927271304828
 20
6.973808403584055
 30
0.0
 10
3.154641966776972
 20
7.033022042403823
 30
0.0
 10
3.135397964748841
 20
7.090069521613486
 30
0.0
 10
3.132798799139272
 20
7.097774074936852
 30
0.0
 10
3.141475318616181
 20
7.109278489464158
 30
0.0
 10
3.144930661630888
 20
7.11902361288498
 30
0.0
 10
3.153649237123457
 20
7.115779044154174
 30
0.0
 10
3.163698028814931
 20
7.114277419134573
 30
0.0
 10
3.170774602461658
 20
7.108881481294108
 30
0.0
 10
3.181373756827143
 20
7.100799640467976
 30
0.0
 10
3.186190728249989
 20
7.087263218764519
 30
0.0
 10
3.204138003128719
 20
7.087201980902982
 30
0.0
 10
3.249294222111808
 20
7.087048107801782
 30
0.0
 10
3.294436682028036
 20
7.082387024299578
 30
0.0
 10
3.33959056456581
 20
7.082292313200191
 30
0.0
 10
3.594733508140128
 20
7.081756741394353
 30
0.0
 10
3.849879047764805
 20
7.081572249362377
 30
0.0
 10
4.105020693313943
 20
7.082347842447499
 30
0.0
 10
4.171339395533184
 20
7.082549460322095
 30
0.0
 10
4.237646155920818
 20
7.08661477208678
 30
0.0
 10
4.310010540193136
 20
7.089114366663225
 30
0.0
  0
SPLINE
  5
47
330
41
100
AcDbEntity
  8
Layer 1
 62
     7
420
 16777215
370
    35
100
AcDbSpline
210
0.0
220
0.0
230
1.0
 70
    11
 71
     3
 72
   173
 73
   169
 74
     0
 42
0.0000000001
 43
0.0000000001
 12
1.0
 22
0.0
 32
0.0
 13
1.0
 23
0.0
 33
0.0
 40
0.0
 40
0.0
 40
0.0
 40
0.0
 40
1.0
 40
1.0
 40
1.0
 40
2.0
 40
2.0
 40
2.0
 40
3.0
 40
3.0
 40
3.0
 40
4.0
 40
4.0
 40
4.0
 40
5.0
 40
5.0
 40
5.0
 40
6.0
 40
6.0
 40
6.0
 40
7.0
 40
7.0
 40
7.0
 40
8.0
 40
8.0
 40
8.0
 40
9.0
 40
9.0
 40
9.0
 40
10.0
 40
10.0
 40
10.0
 40
11.0
 40
11.0
 40
11.0
 40
12.0
 40
12.0
 40
12.0
 40
13.0
 40
13.0
 40
13.0
 40
14.0
 40
14.0
 40
14.0
 40
15.0
 40
15.0
 40
15.0
 40
16.0
 40
16.0
 40
16.0
 40
17.0
 40
17.0
 40
17.0
 40
18.0
 40
18.0
 40
18.0
 40
19.0
 40
19.0
 40
19.0
 40
20.0
 40
20.0
 40
20.0
 40
21.0
 40
21.0
 40
21.0
 40
22.0
 40
22.0
 40
22.0
 40
23.0
 40
23.0
 40
23.0
 40
24.0
 40
24.0
 40
24.0
 40
25.0
 40
25.0
 40
25.0
 40
26.0
 40
26.0
 40
26.0
 40
27.0
 40
27.0
 40
27.0
 40
28.0
 40
28.0
 40
28.0
 40
29.0
 40
29.0
 40
29.0
 40
30.0
 40
30.0
 40
30.0
 40
31.0
 40
31.0
 40
31.0
 40
32.0
 40
32.0
 40
32.0
 40
33.0
 40
33.0
 40
33.0
 40
34.0
 40
34.0
 40
34.0
 40
35.0
 40
35.0
 40
35.0
 40
36.0
 40
36.0
 40
36.0
 40
37.0
 40
37.0
 40
37.0
 40
38.0
 40
38.0
 40
38.0
 40
39.0
 40
39.0
 40
39.0
 40
40.0
 40
40.0
 40
40.0
 40
41.0
 40
41.0
 40
41.0
 40
42.0
 40
42.0
 40
42.0
 40
43.0
 40
43.0
 40
43.0
 40
44.0
 40
44.0
 40
44.0
 40
45.0
 40
45.0
 40
45.0
 40
46.0
 40
46.0
 40
46.0
 40
47.0
 40
47.0
 40
47.0
 40
48.0
 40
48.0
 40
48.0
 40
49.0
 40
49.0
 40
49.0
 40
50.0
 40
50.0
 40
50.0
 40
51.0
 40
51.0
 40
51.0
 40
52.0
 40
52.0
 40
52.0
 40
53.0
 40
53.0
 40
53.0
 40
54.0
 40
54.0
 40
54.0
 40
55.0
 40
55.0
 40
55.0
 40
56.0
 40
56.0
 40
56.0
 40
56.0
 10
7.803295090361972
 20
7.640362805584118
 30
0.0
 10
7.775638846782461
 20
7.638440040525311
 30
0.0
 10
7.749194958716012
 20
7.634793792940108
 30
0.0
 10
7.722799357186052
 20
7.635111918441074
 30
0.0
 10
7.649293749180237
 20
7.635997272608493
 30
0.0
 10
7.575813063257783
 20
7.639664538273286
 30
0.0
 10
7.502312128142598
 20
7.640012244775157
 30
0.0
 10
7.452916558939351
 20
7.640246038475298
 30
0.0
 10
7.403515278425352
 20
7.635902042544179
 30
0.0
 10
7.354092710298472
 20
7.635131120143405
 30
0.0
 10
7.321634811993211
 20
7.634624869855998
 30
0.0
 10
7.289042438279845
 20
7.635677071247831
 30
0.0
 10
7.256682670677744
 20
7.638222853702877
 30
0.0
 10
7.233595994922805
 20
7.640039230951414
 30
0.0
 10
7.221597050209058
 20
7.654275476860511
 30
0.0
 10
7.222909094055517
 20
7.678431737371233
 30
0.0
 10
7.223445957267712
 20
7.68831827873502
 30
0.0
 10
7.222953746121523
 20
7.698259830381176
 30
0.0
 10
7.222953746121523
 20
7.708176471710784
 30
0.0
 10
7.22294959244098
 20
7.865425180283258
 30
0.0
 10
7.223087183109479
 20
8.022674148338208
 30
0.0
 10
7.222865480409659
 20
8.179922727169457
 30
0.0
 10
7.222798502310651
 20
8.227150611491084
 30
0.0
 10
7.213704018727539
 20
8.230422296139384
 30
0.0
 10
7.166110108466606
 20
8.22446211368079
 30
0.0
 10
7.10754425101004
 20
8.21712771209243
 30
0.0
 10
7.048133119559806
 20
8.215787614906718
 30
0.0
 10
6.989021572319845
 20
8.213882754137936
 30
0.0
 10
6.961328464825404
 20
8.212990523685196
 30
0.0
 10
6.933476479049558
 20
8.218385423595805
 30
0.0
 10
6.905705490044637
 20
8.218288506895481
 30
0.0
 10
6.785667756370685
 20
8.217869702198463
 30
0.0
 10
6.66563365716724
 20
8.216409983596792
 30
0.0
 10
6.545596961913437
 20
8.215479998445554
 30
0.0
 10
6.516399702846684
 20
8.215253729736876
 30
0.0
 10
6.487198290099362
 20
8.215548891039765
 30
0.0
 10
6.45799843498225
 20
8.215694330960876
 30
0.0
 10
6.400823541302771
 20
8.215979112965215
 30
0.0
 10
6.343620091069447
 20
8.215315875787017
 30
0.0
 10
6.286482580514985
 20
8.216948928674684
 30
0.0
 10
6.234732393645067
 20
8.218428238202389
 30
0.0
 10
6.182874730290703
 20
8.220683140815229
 30
0.0
 10
6.131411666589403
 20
8.225974766705122
 30
0.0
 10
6.099001016400481
 20
8.229307040508791
 30
0.0
 10
6.085989092840514
 20
8.223373714485218
 30
0.0
 10
6.083637071224175
 20
8.190736918342306
 30
0.0
 10
6.08243458070246
 20
8.17405543943298
 30
0.0
 10
6.086993245115561
 20
8.15703585487299
 30
0.0
 10
6.086825021052921
 20
8.14019025330515
 30
0.0
 10
6.085919518691147
 20
8.049694316804953
 30
0.0
 10
6.083289719687476
 20
7.959204218660197
 30
0.0
 10
6.083359293836818
 20
7.868713861032979
 30
0.0
 10
6.083409657213602
 20
7.803741268405487
 30
0.0
 10
6.087467803119377
 20
7.738780611971353
 30
0.0
 10
6.088324499734603
 20
7.673795823668051
 30
0.0
 10
6.088725849118569
 20
7.643396934036559
 30
0.0
 10
6.081386814781555
 20
7.636605240021835
 30
0.0
 10
6.051677614585944
 20
7.633217696453319
 30
0.0
 10
6.041918022903372
 20
7.632104776164889
 30
0.0
 10
6.031916998538311
 20
7.632745178886226
 30
0.0
 10
6.022042142220243
 20
7.63307082937864
 30
0.0
 10
5.949990841620016
 20
7.635447169784659
 30
0.0
 10
5.877956155742039
 20
7.638466767219117
 30
0.0
 10
5.805891355680008
 20
7.64027613844112
 30
0.0
 10
5.71850207040696
 20
7.642469803192435
 30
0.0
 10
5.63106294096724
 20
7.637640315571034
 30
0.0
 10
5.54366223307266
 20
7.641636864482734
 30
0.0
 10
5.51844783445156
 20
7.642789745070622
 30
0.0
 10
5.51185646261509
 20
7.636172423271748
 30
0.0
 10
5.510347118942087
 20
7.609675630935056
 30
0.0
 10
5.50978377601632
 20
7.599789868018686
 30
0.0
 10
5.510206932223228
 20
7.589847537925114
 30
0.0
 10
5.510206413013166
 20
7.579930896595492
 30
0.0
 10
5.510203297752747
 20
7.439681922174524
 30
0.0
 10
5.510384502067128
 20
7.299432947753543
 30
0.0
 10
5.51017058751836
 20
7.159184232815025
 30
0.0
 10
5.50956051568629
 20
6.759750420703931
 30
0.0
 10
5.508814410815956
 20
6.360316608592825
 30
0.0
 10
5.508022096249406
 20
5.960882796481731
 30
0.0
 10
5.507971732872622
 20
5.935475830494156
 30
0.0
 10
5.517631117011711
 20
5.924134370954296
 30
0.0
 10
5.54250283698674
 20
5.923998402143121
 30
0.0
 10
5.566563550832673
 20
5.923866844533854
 30
0.0
 10
5.590642956241127
 20
5.925749389810713
 30
0.0
 10
5.614693805095738
 20
5.92538793073825
 30
0.0
 10
5.757589762093883
 20
5.92324045386556
 30
0.0
 10
5.900519467746587
 20
5.916267641090889
 30
0.0
 10
6.043204106246321
 20
5.93132904123575
 30
0.0
 10
6.080556078669815
 20
5.935271877277387
 30
0.0
 10
6.091766862497555
 20
5.924149680419683
 30
0.0
 10
6.090007259570913
 20
5.885626654320441
 30
0.0
 10
6.088786077486676
 20
5.858885948467496
 30
0.0
 10
6.083475077682402
 20
5.83225396576702
 30
0.0
 10
6.083333333333333
 20
5.80555555555572
 30
0.0
 10
6.082621496327596
 20
5.670977051422205
 30
0.0
 10
6.082857217699307
 20
5.536391800744645
 30
0.0
 10
6.083231048949579
 20
5.401810701786467
 30
0.0
 10
6.083269989704806
 20
5.387916453765077
 30
0.0
 10
6.085017650799854
 20
5.373661525118576
 30
0.0
 10
6.088537895073285
 20
5.36024576276087
 30
0.0
 10
6.092016602541157
 20
5.346988284706286
 30
0.0
 10
6.101275675716402
 20
5.339506886302034
 30
0.0
 10
6.116860285172404
 20
5.34016804762051
 30
0.0
 10
6.164720030989074
 20
5.342196681524658
 30
0.0
 10
6.21261923677106
 20
5.344362322169824
 30
0.0
 10
6.260507539141599
 20
5.344473380664466
 30
0.0
 10
6.51131871310334
 20
5.345055140348904
 30
0.0
 10
6.762131963905353
 20
5.345368076200581
 30
0.0
 10
7.012943137867094
 20
5.344934740485566
 30
0.0
 10
7.070697469984502
 20
5.344835099219381
 30
0.0
 10
7.128455955782455
 20
5.341705740702612
 30
0.0
 10
7.186192115547429
 20
5.339434231212079
 30
0.0
 10
7.212505681886366
 20
5.33839941514533
 30
0.0
 10
7.228663499259432
 20
5.354043093939607
 30
0.0
 10
7.227222691315647
 20
5.381160049365412
 30
0.0
 10
7.226028508155044
 20
5.403643166947808
 30
0.0
 10
7.223216985626928
 20
5.426099817318825
 30
0.0
 10
7.223146373057438
 20
5.448574112497428
 30
0.0
 10
7.222743985253323
 20
5.57607237811611
 30
0.0
 10
7.223146373057438
 20
5.703572200629638
 30
0.0
 10
7.222753331034583
 20
5.831070206765907
 30
0.0
 10
7.222688948985907
 20
5.851844113357388
 30
0.0
 10
7.220024362907552
 20
5.872610235474958
 30
0.0
 10
7.218279297862864
 20
5.897389772864408
 30
0.0
 10
7.182368133383155
 20
5.897389772864408
 30
0.0
 10
7.150225395590243
 20
5.897164801568061
 30
0.0
 10
7.118086811477926
 20
5.897431549541111
 30
0.0
 10
7.020405744200742
 20
5.898242172758892
 30
0.0
 10
6.922711177461728
 20
5.900657435534526
 30
0.0
 10
6.825051917007486
 20
5.899627290152125
 30
0.0
 10
6.76862001293792
 20
5.899031777897094
 30
0.0
 10
6.712263913538562
 20
5.892671084255185
 30
0.0
 10
6.655837720779775
 20
5.889557813651195
 30
0.0
 10
6.62911345927561
 20
5.888083693772779
 30
0.0
 10
6.618495613347603
 20
5.899756512419255
 30
0.0
 10
6.629416677956391
 20
5.921602081587379
 30
0.0
 10
6.649222465280091
 20
5.961219085755172
 30
0.0
 10
6.650117583440457
 20
6.003042728797468
 30
0.0
 10
6.650124852381445
 20
6.045405835882585
 30
0.0
 10
6.650175215758231
 20
6.349986871180413
 30
0.0
 10
6.650240117016942
 20
6.654567646995765
 30
0.0
 10
6.649948320957694
 20
6.959148422811128
 30
0.0
 10
6.649929110185111
 20
6.978802922052599
 30
0.0
 10
6.646260371831708
 20
6.998429656670396
 30
0.0
 10
6.645584360320804
 20
7.018113736912786
 30
0.0
 10
6.644785815233389
 20
7.041356878632428
 30
0.0
 10
6.645397444695643
 20
7.064648543572856
 30
0.0
 10
6.645397444695643
 20
7.09067100196522
 30
0.0
 10
6.687974747261907
 20
7.087561883080651
 30
0.0
 10
6.725823084512133
 20
7.082471615582866
 30
0.0
 10
6.763680767543645
 20
7.082398441527996
 30
0.0
 10
7.091081657325983
 20
7.081764525868266
 30
0.0
 10
7.418484104738505
 20
7.08203334970104
 30
0.0
 10
7.745886032940992
 20
7.082036204008154
 30
0.0
 10
7.755807098955276
 20
7.082036204008154
 30
0.0
 10
7.765756721523403
 20
7.081597938126328
 30
0.0
 10
7.77564455809324
 20
7.08218047625817
 30
0.0
 10
7.803094675275006
 20
7.083798349421689
 30
0.0
 10
7.807771719584025
 20
7.088090708342444
 30
0.0
 10
7.809700065783368
 20
7.114447639631003
 30
0.0
 10
7.811964860107966
 20
7.14538858812994
 30
0.0
 10
7.815484585171336
 20
7.176391293455329
 30
0.0
 10
7.81520888462425
 20
7.207338210050933
 30
0.0
 10
7.813984587279593
 20
7.344557986186297
 30
0.0
 10
7.811672544838656
 20
7.481768680435405
 30
0.0
 10
7.809391655001895
 20
7.618976779859874
 30
0.0
 10
7.809282101677152
 20
7.625570748236984
 30
0.0
 10
7.805740050580779
 20
7.632107630471991
 30
0.0
 10
7.803295090361972
 20
7.640362805584118
 30
0.0
  0
ENDBLK
  5
44
330
41
100
AcDbEntity
  8
0
100
AcDbBlockEnd
  0
ENDSEC
  0
SECTION
  2
ENTITIES
  0
INSERT
  5
42
330
1F
100
AcDbEntity
  8
Layer 1
100
AcDbBlockReference
  2
block 2
 10
0.0
 20
0.0
 30
0.0
  0
ENDSEC
  0
SECTION
  2
OBJECTS
  0
DICTIONARY
  5
C
330
0
100
AcDbDictionary
281
     1
  3
ACAD_GROUP
350
D
  3
ACAD_LAYOUT
350
1A
  3
ACAD_MATERIAL
350
3B
  3
ACAD_MLEADERSTYLE
350
49
  3
ACAD_MLINESTYLE
350
17
  3
ACAD_PLOTSETTINGS
350
19
  3
ACAD_PLOTSTYLENAME
350
E
  3
ACAD_TABLESTYLE
350
48
  3
ACAD_VISUALSTYLE
350
2A
  0
SUN
  5
3F
330
29
100
AcDbSun
 90
        1
290
     0
 63
     7
421
 16777215
 40
1.0
291
     1
 91
  2455826
 92
 54000000
292
     0
 70
     2
 71
   256
280
     1
  0
DICTIONARY
  5
D
102
{ACAD_REACTORS
330
C
102
}
330
C
100
AcDbDictionary
281
     1
  0
DICTIONARY
  5
1A
102
{ACAD_REACTORS
330
C
102
}
330
C
100
AcDbDictionary
281
     1
  3
Layout1
350
1E
  3
Layout2
350
26
  3
Model
350
22
  0
DICTIONARY
  5
3B
102
{ACAD_REACTORS
330
C
102
}
330
C
100
AcDbDictionary
281
     1
  3
ByBlock
350
3D
  3
ByLayer
350
3C
  3
Global
350
3E
  0
DICTIONARY
  5
49
102
{ACAD_REACTORS
330
C
102
}
330
C
100
AcDbDictionary
281
     1
  0
DICTIONARY
  5
17
102
{ACAD_REACTORS
330
C
102
}
330
C
100
AcDbDictionary
281
     1
  3
Standard
350
18
  0
DICTIONARY
  5
19
102
{ACAD_REACTORS
330
C
102
}
330
C
100
AcDbDictionary
281
     1
  0
ACDBDICTIONARYWDFLT
  5
E
102
{ACAD_REACTORS
330
C
102
}
330
C
100
AcDbDictionary
281
     1
  3
Normal
350
F
100
AcDbDictionaryWithDefault
340
F
  0
DICTIONARY
  5
48
102
{ACAD_REACTORS
330
C
102
}
330
C
100
AcDbDictionary
281
     1
  0
DICTIONARY
  5
2A
102
{ACAD_REACTORS
330
C
102
}
330
C
100
AcDbDictionary
281
     1
  3
2dWireframe
350
2F
  3
3D Hidden
350
31
  3
3dWireframe
350
30
  3
Basic
350
32
  3
Brighten
350
36
  3
ColorChange
350
3A
  3
Conceptual
350
34
  3
Dim
350
35
  3
Facepattern
350
39
  3
Flat
350
2B
  3
FlatWithEdges
350
2C
  3
Gouraud
350
2D
  3
GouraudWithEdges
350
2E
  3
Linepattern
350
38
  3
Realistic
350
33
  3
Thicken
350
37
  0
LAYOUT
  5
1E
102
{ACAD_REACTORS
330
1A
102
}
330
1A
100
AcDbPlotSettings
  1

  2
none_device
  4

  6

 40
0.0
 41
0.0
 42
0.0
 43
0.0
 44
0.0
 45
0.0
 46
0.0
 47
0.0
 48
0.0
 49
0.0
140
0.0
141
0.0
142
1.0
143
1.0
 70
   688
 72
     0
 73
     0
 74
     5
  7

 75
    16
 76
     0
 77
     2
 78
   300
147
1.0
148
0.0
149
0.0
100
AcDbLayout
  1
Layout1
 70
     1
 71
     1
 10
0.0
 20
0.0
 11
12.0
 21
9.0
 12
0.0
 22
0.0
 32
0.0
 14
1.000000000000000E+20
 24
1.000000000000000E+20
 34
1.000000000000000E+20
 15
-1.000000000000000E+20
 25
-1.000000000000000E+20
 35
-1.000000000000000E+20
146
0.0
 13
0.0
 23
0.0
 33
0.0
 16
1.0
 26
0.0
 36
0.0
 17
0.0
 27
1.0
 37
0.0
 76
     0
330
1B
  0
LAYOUT
  5
26
102
{ACAD_REACTORS
330
1A
102
}
330
1A
100
AcDbPlotSettings
  1

  2
none_device
  4

  6

 40
0.0
 41
0.0
 42
0.0
 43
0.0
 44
0.0
 45
0.0
 46
0.0
 47
0.0
 48
0.0
 49
0.0
140
0.0
141
0.0
142
1.0
143
1.0
 70
   688
 72
     0
 73
     0
 74
     5
  7

 75
    16
 76
     0
 77
     2
 78
   300
147
1.0
148
0.0
149
0.0
100
AcDbLayout
  1
Layout2
 70
     1
 71
     2
 10
0.0
 20
0.0
 11
0.0
 21
0.0
 12
0.0
 22
0.0
 32
0.0
 14
0.0
 24
0.0
 34
0.0
 15
0.0
 25
0.0
 35
0.0
146
0.0
 13
0.0
 23
0.0
 33
0.0
 16
1.0
 26
0.0
 36
0.0
 17
0.0
 27
1.0
 37
0.0
 76
     0
330
23
  0
LAYOUT
  5
22
102
{ACAD_REACTORS
330
1A
102
}
330
1A
100
AcDbPlotSettings
  1

  2
none_device
  4

  6

 40
0.0
 41
0.0
 42
0.0
 43
0.0
 44
0.0
 45
0.0
 46
0.0
 47
0.0
 48
0.0
 49
0.0
140
0.0
141
0.0
142
1.0
143
1.0
 70
  1712
 72
     0
 73
     0
 74
     0
  7

 75
     0
 76
     0
 77
     2
 78
   300
147
1.0
148
0.0
149
0.0
100
AcDbLayout
  1
Model
 70
     1
 71
     0
 10
0.0
 20
0.0
 11
12.0
 21
9.0
 12
0.0
 22
0.0
 32
0.0
 14
1.000000000000000E+20
 24
1.000000000000000E+20
 34
1.000000000000000E+20
 15
-1.000000000000000E+20
 25
-1.000000000000000E+20
 35
-1.000000000000000E+20
146
0.0
 13
0.0
 23
0.0
 33
0.0
 16
1.0
 26
0.0
 36
0.0
 17
0.0
 27
1.0
 37
0.0
 76
     0
330
1F
331
29
  0
MATERIAL
  5
3D
102
{ACAD_REACTORS
330
3B
102
}
330
3B
100
AcDbMaterial
  1
ByBlock
 72
     1
 94
      127
  0
MATERIAL
  5
3C
102
{ACAD_REACTORS
330
3B
102
}
330
3B
100
AcDbMaterial
  1
ByLayer
 72
     1
 94
      127
  0
MATERIAL
  5
3E
102
{ACAD_REACTORS
330
3B
102
}
330
3B
100
AcDbMaterial
  1
Global
 72
     1
 94
      127
  0
MLINESTYLE
  5
18
102
{ACAD_REACTORS
330
17
102
}
330
17
100
AcDbMlineStyle
  2
Standard
 70
     0
  3

 62
   256
 51
90.0
 52
90.0
 71
     2
 49
0.5
 62
   256
  6
BYLAYER
 49
-0.5
 62
   256
  6
BYLAYER
  0
ACDBPLACEHOLDER
  5
F
102
{ACAD_REACTORS
330
E
102
}
330
E
  0
VISUALSTYLE
  5
2F
102
{ACAD_REACTORS
330
2A
102
}
330
2A
100
AcDbVisualStyle
  2
2dWireframe
 70
     4
177
     2
291
     0
 71
     0
176
     1
 72
     2
176
     1
 73
     0
176
     1
 90
        0
176
     1
 40
-0.6
176
     1
 41
-30.0
176
     1
 62
     5
 63
     7
421
 16777215
176
     1
 74
     1
176
     1
 91
        4
176
     1
 64
     7
176
     1
 65
   257
176
     1
 75
     1
176
     1
175
     1
176
     1
 42
1.0
176
     1
 92
        0
176
     1
 66
   257
176
     1
 43
1.0
176
     1
 76
     1
176
     1
 77
     6
176
     1
 78
     2
176
     1
 67
     7
176
     1
 79
     5
176
     1
170
     0
176
     1
171
     0
176
     1
290
     0
176
     1
 93
        1
176
     1
 44
0.0
176
     1
173
     0
176
     1
  0
VISUALSTYLE
  5
31
102
{ACAD_REACTORS
330
2A
102
}
330
2A
100
AcDbVisualStyle
  2
3D Hidden
 70
     6
177
     2
291
     0
 71
     1
176
     1
 72
     2
176
     1
 73
     2
176
     1
 90
        0
176
     1
 40
-0.6
176
     1
 41
-30.0
176
     1
 62
     5
 63
     7
421
 16777215
176
     1
 74
     2
176
     1
 91
        2
176
     1
 64
     7
176
     1
 65
   257
176
     1
 75
     2
176
     1
175
     1
176
     1
 42
40.0
176
     1
 92
        0
176
     1
 66
   257
176
     1
 43
1.0
176
     1
 76
     1
176
     1
 77
     6
176
     1
 78
     2
176
     1
 67
     7
176
     1
 79
     3
176
     1
170
     0
176
     1
171
     0
176
     1
290
     0
176
     1
 93
        1
176
     1
 44
0.0
176
     1
173
     0
176
     1
  0
VISUALSTYLE
  5
30
102
{ACAD_REACTORS
330
2A
102
}
330
2A
100
AcDbVisualStyle
  2
3dWireframe
 70
     5
177
     2
291
     0
 71
     0
176
     1
 72
     2
176
     1
 73
     0
176
     1
 90
        0
176
     1
 40
-0.6
176
     1
 41
-30.0
176
     1
 62
     5
 63
     7
421
 16777215
176
     1
 74
     1
176
     1
 91
        4
176
     1
 64
     7
176
     1
 65
   257
176
     1
 75
     1
176
     1
175
     1
176
     1
 42
1.0
176
     1
 92
        0
176
     1
 66
   257
176
     1
 43
1.0
176
     1
 76
     1
176
     1
 77
     6
176
     1
 78
     2
176
     1
 67
     7
176
     1
 79
     5
176
     1
170
     0
176
     1
171
     0
176
     1
290
     0
176
     1
 93
        1
176
     1
 44
0.0
176
     1
173
     0
176
     1
  0
VISUALSTYLE
  5
32
102
{ACAD_REACTORS
330
2A
102
}
330
2A
100
AcDbVisualStyle
  2
Basic
 70
     7
177
     2
291
     1
 71
     1
176
     1
 72
     0
176
     1
 73
     1
176
     1
 90
        0
176
     1
 40
-0.6
176
     1
 41
-30.0
176
     1
 62
     5
 63
     7
421
 16777215
176
     1
 74
     0
176
     1
 91
        4
176
     1
 64
     7
176
     1
 65
   257
176
     1
 75
     1
176
     1
175
     1
176
     1
 42
1.0
176
     1
 92
        8
176
     1
 66
     7
176
     1
 43
1.0
176
     1
 76
     1
176
     1
 77
     6
176
     1
 78
     2
176
     1
 67
     7
176
     1
 79
     5
176
     1
170
     0
176
     1
171
     0
176
     1
290
     0
176
     1
 93
        1
176
     1
 44
0.0
176
     1
173
     0
176
     1
  0
VISUALSTYLE
  5
36
102
{ACAD_REACTORS
330
2A
102
}
330
2A
100
AcDbVisualStyle
  2
Brighten
 70
    12
177
     2
291
     1
 71
     2
176
     1
 72
     2
176
     1
 73
     0
176
     1
 90
        0
176
     1
 40
-0.6
176
     1
 41
-30.0
176
     1
 62
     5
 63
     7
421
 16777215
176
     1
 74
     1
176
     1
 91
        4
176
     1
 64
     7
176
     1
 65
   257
176
     1
 75
     1
176
     1
175
     1
176
     1
 42
1.0
176
     1
 92
        8
176
     1
 66
     7
176
     1
 43
1.0
176
     1
 76
     1
176
     1
 77
     6
176
     1
 78
     2
176
     1
 67
     7
176
     1
 79
     5
176
     1
170
     0
176
     1
171
     0
176
     1
290
     0
176
     1
 93
        1
176
     1
 44
50.0
176
     1
173
     0
176
     1
  0
VISUALSTYLE
  5
3A
102
{ACAD_REACTORS
330
2A
102
}
330
2A
100
AcDbVisualStyle
  2
ColorChange
 70
    16
177
     2
291
     1
 71
     2
176
     1
 72
     2
176
     1
 73
     3
176
     1
 90
        0
176
     1
 40
-0.6
176
     1
 41
-30.0
176
     1
 62
     5
 63
     8
421
  8421504
176
     1
 74
     1
176
     1
 91
        4
176
     1
 64
     7
176
     1
 65
   257
176
     1
 75
     1
176
     1
175
     1
176
     1
 42
1.0
176
     1
 92
        8
176
     1
 66
     8
424
  8421504
176
     1
 43
1.0
176
     1
 76
     1
176
     1
 77
     6
176
     1
 78
     2
176
     1
 67
     7
176
     1
 79
     5
176
     1
170
     0
176
     1
171
     0
176
     1
290
     0
176
     1
 93
        1
176
     1
 44
0.0
176
     1
173
     0
176
     1
  0
VISUALSTYLE
  5
34
102
{ACAD_REACTORS
330
2A
102
}
330
2A
100
AcDbVisualStyle
  2
Conceptual
 70
     9
177
     2
291
     0
 71
     3
176
     1
 72
     2
176
     1
 73
     0
176
     1
 90
        0
176
     1
 40
-0.6
176
     1
 41
-30.0
176
     1
 62
     5
 63
     7
421
 16777215
176
     1
 74
     2
176
     1
 91
        2
176
     1
 64
     7
176
     1
 65
   257
176
     1
 75
     1
176
     1
175
     1
176
     1
 42
40.0
176
     1
 92
        8
176
     1
 66
     7
176
     1
 43
1.0
176
     1
 76
     1
176
     1
 77
     6
176
     1
 78
     2
176
     1
 67
     7
176
     1
 79
     3
176
     1
170
     0
176
     1
171
     0
176
     1
290
     0
176
     1
 93
        1
176
     1
 44
0.0
176
     1
173
     0
176
     1
  0
VISUALSTYLE
  5
35
102
{ACAD_REACTORS
330
2A
102
}
330
2A
100
AcDbVisualStyle
  2
Dim
 70
    11
177
     2
291
     1
 71
     2
176
     1
 72
     2
176
     1
 73
     0
176
     1
 90
        0
176
     1
 40
-0.6
176
     1
 41
-30.0
176
     1
 62
     5
 63
     7
421
 16777215
176
     1
 74
     1
176
     1
 91
        4
176
     1
 64
     7
176
     1
 65
   257
176
     1
 75
     1
176
     1
175
     1
176
     1
 42
1.0
176
     1
 92
        8
176
     1
 66
     7
176
     1
 43
1.0
176
     1
 76
     1
176
     1
 77
     6
176
     1
 78
     2
176
     1
 67
     7
176
     1
 79
     5
176
     1
170
     0
176
     1
171
     0
176
     1
290
     0
176
     1
 93
        1
176
     1
 44
-50.0
176
     1
173
     0
176
     1
  0
VISUALSTYLE
  5
39
102
{ACAD_REACTORS
330
2A
102
}
330
2A
100
AcDbVisualStyle
  2
Facepattern
 70
    15
177
     2
291
     1
 71
     2
176
     1
 72
     2
176
     1
 73
     0
176
     1
 90
        0
176
     1
 40
-0.6
176
     1
 41
-30.0
176
     1
 62
     5
 63
     7
421
 16777215
176
     1
 74
     1
176
     1
 91
        4
176
     1
 64
     7
176
     1
 65
   257
176
     1
 75
     1
176
     1
175
     1
176
     1
 42
1.0
176
     1
 92
        8
176
     1
 66
     7
176
     1
 43
1.0
176
     1
 76
     1
176
     1
 77
     6
176
     1
 78
     2
176
     1
 67
     7
176
     1
 79
     5
176
     1
170
     0
176
     1
171
     0
176
     1
290
     0
176
     1
 93
        1
176
     1
 44
0.0
176
     1
173
     0
176
     1
  0
VISUALSTYLE
  5
2B
102
{ACAD_REACTORS
330
2A
102
}
330
2A
100
AcDbVisualStyle
  2
Flat
 70
     0
177
     2
291
     1
 71
     2
176
     1
 72
     1
176
     1
 73
     1
176
     1
 90
        2
176
     1
 40
-0.6
176
     1
 41
30.0
176
     1
 62
     5
 63
     7
421
 16777215
176
     1
 74
     0
176
     1
 91
        4
176
     1
 64
     7
176
     1
 65
   257
176
     1
 75
     1
176
     1
175
     1
176
     1
 42
1.0
176
     1
 92
        8
176
     1
 66
     7
176
     1
 43
1.0
176
     1
 76
     1
176
     1
 77
     6
176
     1
 78
     2
176
     1
 67
     7
176
     1
 79
     5
176
     1
170
     0
176
     1
171
     0
176
     1
290
     0
176
     1
 93
       13
176
     1
 44
0.0
176
     1
173
     0
176
     1
  0
VISUALSTYLE
  5
2C
102
{ACAD_REACTORS
330
2A
102
}
330
2A
100
AcDbVisualStyle
  2
FlatWithEdges
 70
     1
177
     2
291
     1
 71
     2
176
     1
 72
     1
176
     1
 73
     1
176
     1
 90
        2
176
     1
 40
-0.6
176
     1
 41
30.0
176
     1
 62
     5
 63
     7
421
 16777215
176
     1
 74
     1
176
     1
 91
        4
176
     1
 64
     7
176
     1
 65
   257
176
     1
 75
     1
176
     1
175
     1
176
     1
 42
1.0
176
     1
 92
        0
176
     1
 66
   257
176
     1
 43
1.0
176
     1
 76
     1
176
     1
 77
     6
176
     1
 78
     2
176
     1
 67
     7
176
     1
 79
     5
176
     1
170
     0
176
     1
171
     0
176
     1
290
     0
176
     1
 93
       13
176
     1
 44
0.0
176
     1
173
     0
176
     1
  0
VISUALSTYLE
  5
2D
102
{ACAD_REACTORS
330
2A
102
}
330
2A
100
AcDbVisualStyle
  2
Gouraud
 70
     2
177
     2
291
     1
 71
     2
176
     1
 72
     2
176
     1
 73
     1
176
     1
 90
        2
176
     1
 40
-0.6
176
     1
 41
30.0
176
     1
 62
     5
 63
     7
421
 16777215
176
     1
 74
     0
176
     1
 91
        4
176
     1
 64
     7
176
     1
 65
   257
176
     1
 75
     1
176
     1
175
     1
176
     1
 42
1.0
176
     1
 92
        0
176
     1
 66
     7
176
     1
 43
1.0
176
     1
 76
     1
176
     1
 77
     6
176
     1
 78
     2
176
     1
 67
     7
176
     1
 79
     5
176
     1
170
     0
176
     1
171
     0
176
     1
290
     0
176
     1
 93
       13
176
     1
 44
0.0
176
     1
173
     0
176
     1
  0
VISUALSTYLE
  5
2E
102
{ACAD_REACTORS
330
2A
102
}
330
2A
100
AcDbVisualStyle
  2
GouraudWithEdges
 70
     3
177
     2
291
     1
 71
     2
176
     1
 72
     2
176
     1
 73
     1
176
     1
 90
        2
176
     1
 40
-0.6
176
     1
 41
30.0
176
     1
 62
     5
 63
     7
421
 16777215
176
     1
 74
     1
176
     1
 91
        4
176
     1
 64
     7
176
     1
 65
   257
176
     1
 75
     1
176
     1
175
     1
176
     1
 42
1.0
176
     1
 92
        0
176
     1
 66
   257
176
     1
 43
1.0
176
     1
 76
     1
176
     1
 77
     6
176
     1
 78
     2
176
     1
 67
     7
176
     1
 79
     5
176
     1
170
     0
176
     1
171
     0
176
     1
290
     0
176
     1
 93
       13
176
     1
 44
0.0
176
     1
173
     0
176
     1
  0
VISUALSTYLE
  5
38
102
{ACAD_REACTORS
330
2A
102
}
330
2A
100
AcDbVisualStyle
  2
Linepattern
 70
    14
177
     2
291
     1
 71
     2
176
     1
 72
     2
176
     1
 73
     0
176
     1
 90
        0
176
     1
 40
-0.6
176
     1
 41
-30.0
176
     1
 62
     5
 63
     7
421
 16777215
176
     1
 74
     1
176
     1
 91
        4
176
     1
 64
     7
176
     1
 65
   257
176
     1
 75
     7
176
     1
175
     7
176
     1
 42
1.0
176
     1
 92
        8
176
     1
 66
     7
176
     1
 43
1.0
176
     1
 76
     1
176
     1
 77
     6
176
     1
 78
     2
176
     1
 67
     7
176
     1
 79
     5
176
     1
170
     0
176
     1
171
     0
176
     1
290
     0
176
     1
 93
        1
176
     1
 44
0.0
176
     1
173
     0
176
     1
  0
VISUALSTYLE
  5
33
102
{ACAD_REACTORS
330
2A
102
}
330
2A
100
AcDbVisualStyle
  2
Realistic
 70
     8
177
     2
291
     0
 71
     2
176
     1
 72
     2
176
     1
 73
     0
176
     1
 90
        0
176
     1
 40
-0.6
176
     1
 41
-30.0
176
     1
 62
     5
 63
     7
421
 16777215
176
     1
 74
     1
176
     1
 91
        0
176
     1
 64
     7
176
     1
 65
   257
176
     1
 75
     1
176
     1
175
     1
176
     1
 42
1.0
176
     1
 92
        8
176
     1
 66
     8
424
  7895160
176
     1
 43
1.0
176
     1
 76
     1
176
     1
 77
     6
176
     1
 78
     2
176
     1
 67
     7
176
     1
 79
     5
176
     1
170
     0
176
     1
171
     0
176
     1
290
     0
176
     1
 93
       13
176
     1
 44
0.0
176
     1
173
     0
176
     1
  0
VISUALSTYLE
  5
37
102
{ACAD_REACTORS
330
2A
102
}
330
2A
100
AcDbVisualStyle
  2
Thicken
 70
    13
177
     2
291
     1
 71
     2
176
     1
 72
     2
176
     1
 73
     0
176
     1
 90
        0
176
     1
 40
-0.6
176
     1
 41
-30.0
176
     1
 62
     5
 63
     7
421
 16777215
176
     1
 74
     1
176
     1
 91
        4
176
     1
 64
     7
176
     1
 65
   257
176
     1
 75
     1
176
     1
175
     1
176
     1
 42
1.0
176
     1
 92
       12
176
     1
 66
     7
176
     1
 43
1.0
176
     1
 76
     1
176
     1
 77
     6
176
     1
 78
     2
176
     1
 67
     7
176
     1
 79
     5
176
     1
170
     0
176
     1
171
     0
176
     1
290
     0
176
     1
 93
        1
176
     1
 44
0.0
176
     1
173
     0
176
     1
  0
ENDSEC
  0
EOF
