  0
SECTION
  2
HEADER
  9
$ACADVER
  1
AC1024
  9
$ACADMAINTVER
 70
     6
  9
$DWGCODEPAGE
  3
UNDEFINED
  9
$INSBASE
 10
0.0
 20
0.0
 30
0.0
  9
$EXTMIN
 10
1.000000000000000E+20
 20
1.000000000000000E+20
 30
1.000000000000000E+20
  9
$EXTMAX
 10
-1.000000000000000E+20
 20
-1.000000000000000E+20
 30
-1.000000000000000E+20
  9
$LIMMIN
 10
0.0
 20
0.0
  9
$LIMMAX
 10
12.0
 20
9.0
  9
$ORTHOMODE
 70
     0
  9
$REGENMODE
 70
     1
  9
$FILLMODE
 70
     1
  9
$QTEXTMODE
 70
     0
  9
$MIRRTEXT
 70
     1
  9
$LTSCALE
 40
1.0
  9
$ATTMODE
 70
     1
  9
$TEXTSIZE
 40
0.2
  9
$TRACEWID
 40
0.05
  9
$TEXTSTYLE
  7
Standard
  9
$CLAYER
  8
0
  9
$CELTYPE
  6
ByLayer
  9
$CECOLOR
 62
   256
  9
$CELTSCALE
 40
1.0
  9
$DISPSILH
 70
     0
  9
$DIMSCALE
 40
1.0
  9
$DIMASZ
 40
0.18
  9
$DIMEXO
 40
0.0625
  9
$DIMDLI
 40
0.38
  9
$DIMRND
 40
0.0
  9
$DIMDLE
 40
0.0
  9
$DIMEXE
 40
0.18
  9
$DIMTP
 40
0.0
  9
$DIMTM
 40
0.0
  9
$DIMTXT
 40
0.18
  9
$DIMCEN
 40
0.09
  9
$DIMTSZ
 40
0.0
  9
$DIMTOL
 70
     0
  9
$DIMLIM
 70
     0
  9
$DIMTIH
 70
     1
  9
$DIMTOH
 70
     1
  9
$DIMSE1
 70
     0
  9
$DIMSE2
 70
     0
  9
$DIMTAD
 70
     0
  9
$DIMZIN
 70
     0
  9
$DIMBLK
  1

  9
$DIMASO
 70
     1
  9
$DIMSHO
 70
     1
  9
$DIMPOST
  1

  9
$DIMAPOST
  1

  9
$DIMALT
 70
     0
  9
$DIMALTD
 70
     2
  9
$DIMALTF
 40
25.4
  9
$DIMLFAC
 40
1.0
  9
$DIMTOFL
 70
     0
  9
$DIMTVP
 40
0.0
  9
$DIMTIX
 70
     0
  9
$DIMSOXD
 70
     0
  9
$DIMSAH
 70
     0
  9
$DIMBLK1
  1

  9
$DIMBLK2
  1

  9
$DIMSTYLE
  2
Standard
  9
$DIMCLRD
 70
     0
  9
$DIMCLRE
 70
     0
  9
$DIMCLRT
 70
     0
  9
$DIMTFAC
 40
1.0
  9
$DIMGAP
 40
0.09
  9
$DIMJUST
 70
     0
  9
$DIMSD1
 70
     0
  9
$DIMSD2
 70
     0
  9
$DIMTOLJ
 70
     1
  9
$DIMTZIN
 70
     0
  9
$DIMALTZ
 70
     0
  9
$DIMALTTZ
 70
     0
  9
$DIMUPT
 70
     0
  9
$DIMDEC
 70
     4
  9
$DIMTDEC
 70
     4
  9
$DIMALTU
 70
     2
  9
$DIMALTTD
 70
     2
  9
$DIMTXSTY
  7
Standard
  9
$DIMAUNIT
 70
     0
  9
$DIMADEC
 70
     0
  9
$DIMALTRND
 40
0.0
  9
$DIMAZIN
 70
     0
  9
$DIMDSEP
 70
    46
  9
$DIMATFIT
 70
     3
  9
$DIMFRAC
 70
     0
  9
$DIMLDRBLK
  1

  9
$DIMLUNIT
 70
     2
  9
$DIMLWD
 70
    -2
  9
$DIMLWE
 70
    -2
  9
$DIMTMOVE
 70
     0
  9
$DIMFXL
 40
1.0
  9
$DIMFXLON
 70
     0
  9
$DIMJOGANG
 40
0.7853981633974483
  9
$DIMTFILL
 70
     0
  9
$DIMTFILLCLR
 70
     0
  9
$DIMARCSYM
 70
     0
  9
$DIMLTYPE
  6

  9
$DIMLTEX1
  6

  9
$DIMLTEX2
  6

  9
$DIMTXTDIRECTION
 70
     0
  9
$LUNITS
 70
     2
  9
$LUPREC
 70
     4
  9
$SKETCHINC
 40
0.1
  9
$FILLETRAD
 40
0.5
  9
$AUNITS
 70
     0
  9
$AUPREC
 70
     0
  9
$MENU
  1
.
  9
$ELEVATION
 40
0.0
  9
$PELEVATION
 40
0.0
  9
$THICKNESS
 40
0.0
  9
$LIMCHECK
 70
     0
  9
$CHAMFERA
 40
0.5
  9
$CHAMFERB
 40
0.5
  9
$CHAMFERC
 40
1.0
  9
$CHAMFERD
 40
0.0
  9
$SKPOLY
 70
     0
  9
$TDCREATE
 40
2458951.474120359
  9
$TDUCREATE
 40
2458951.807453704
  9
$TDUPDATE
 40
2458951.474120359
  9
$TDUUPDATE
 40
2458951.807453704
  9
$TDINDWG
 40
0.0000000116
  9
$TDUSRTIMER
 40
0.0000000116
  9
$USRTIMER
 70
     1
  9
$ANGBASE
 50
0.0
  9
$ANGDIR
 70
     0
  9
$PDMODE
 70
     0
  9
$PDSIZE
 40
0.0
  9
$PLINEWID
 40
0.0
  9
$SPLFRAME
 70
     0
  9
$SPLINETYPE
 70
     6
  9
$SPLINESEGS
 70
     8
  9
$HANDSEED
  5
51
  9
$SURFTAB1
 70
     6
  9
$SURFTAB2
 70
     6
  9
$SURFTYPE
 70
     6
  9
$SURFU
 70
     6
  9
$SURFV
 70
     6
  9
$UCSBASE
  2

  9
$UCSNAME
  2

  9
$UCSORG
 10
0.0
 20
0.0
 30
0.0
  9
$UCSXDIR
 10
1.0
 20
0.0
 30
0.0
  9
$UCSYDIR
 10
0.0
 20
1.0
 30
0.0
  9
$UCSORTHOREF
  2

  9
$UCSORTHOVIEW
 70
     0
  9
$UCSORGTOP
 10
0.0
 20
0.0
 30
0.0
  9
$UCSORGBOTTOM
 10
0.0
 20
0.0
 30
0.0
  9
$UCSORGLEFT
 10
0.0
 20
0.0
 30
0.0
  9
$UCSORGRIGHT
 10
0.0
 20
0.0
 30
0.0
  9
$UCSORGFRONT
 10
0.0
 20
0.0
 30
0.0
  9
$UCSORGBACK
 10
0.0
 20
0.0
 30
0.0
  9
$PUCSBASE
  2

  9
$PUCSNAME
  2

  9
$PUCSORG
 10
0.0
 20
0.0
 30
0.0
  9
$PUCSXDIR
 10
1.0
 20
0.0
 30
0.0
  9
$PUCSYDIR
 10
0.0
 20
1.0
 30
0.0
  9
$PUCSORTHOREF
  2

  9
$PUCSORTHOVIEW
 70
     0
  9
$PUCSORGTOP
 10
0.0
 20
0.0
 30
0.0
  9
$PUCSORGBOTTOM
 10
0.0
 20
0.0
 30
0.0
  9
$PUCSORGLEFT
 10
0.0
 20
0.0
 30
0.0
  9
$PUCSORGRIGHT
 10
0.0
 20
0.0
 30
0.0
  9
$PUCSORGFRONT
 10
0.0
 20
0.0
 30
0.0
  9
$PUCSORGBACK
 10
0.0
 20
0.0
 30
0.0
  9
$USERI1
 70
     0
  9
$USERI2
 70
     0
  9
$USERI3
 70
     0
  9
$USERI4
 70
     0
  9
$USERI5
 70
     0
  9
$USERR1
 40
0.0
  9
$USERR2
 40
0.0
  9
$USERR3
 40
0.0
  9
$USERR4
 40
0.0
  9
$USERR5
 40
0.0
  9
$WORLDVIEW
 70
     1
  9
$SHADEDGE
 70
     3
  9
$SHADEDIF
 70
    70
  9
$TILEMODE
 70
     1
  9
$MAXACTVP
 70
    64
  9
$PINSBASE
 10
0.0
 20
0.0
 30
0.0
  9
$PLIMCHECK
 70
     0
  9
$PEXTMIN
 10
1.000000000000000E+20
 20
1.000000000000000E+20
 30
1.000000000000000E+20
  9
$PEXTMAX
 10
-1.000000000000000E+20
 20
-1.000000000000000E+20
 30
-1.000000000000000E+20
  9
$PLIMMIN
 10
0.0
 20
0.0
  9
$PLIMMAX
 10
12.0
 20
9.0
  9
$UNITMODE
 70
     0
  9
$VISRETAIN
 70
     1
  9
$PLINEGEN
 70
     0
  9
$PSLTSCALE
 70
     1
  9
$TREEDEPTH
 70
  3020
  9
$CMLSTYLE
  2
Standard
  9
$CMLJUST
 70
     0
  9
$CMLSCALE
 40
1.0
  9
$PROXYGRAPHICS
 70
     1
  9
$MEASUREMENT
 70
     0
  9
$CELWEIGHT
370
    -1
  9
$ENDCAPS
280
     0
  9
$JOINSTYLE
280
     0
  9
$LWDISPLAY
290
     1
  9
$INSUNITS
 70
     1
  9
$HYPERLINKBASE
  1

  9
$STYLESHEET
  1

  9
$XEDIT
290
     1
  9
$CEPSNTYPE
380
     0
  9
$PSTYLEMODE
290
     1
  9
$FINGERPRINTGUID
  2
{9DE92215-0D29-0EF1-3C16-1B020A0AF7E4}
  9
$VERSIONGUID
  2
{FAEB1C32-E019-11D5-929B-00C0DF256EC4}
  9
$EXTNAMES
290
     1
  9
$PSVPSCALE
 40
0.0
  9
$OLESTARTUP
290
     0
  9
$SORTENTS
280
   127
  9
$INDEXCTL
280
     0
  9
$HIDETEXT
280
     1
  9
$XCLIPFRAME
280
     2
  9
$HALOGAP
280
     0
  9
$OBSCOLOR
 70
   257
  9
$OBSLTYPE
280
     0
  9
$INTERSECTIONDISPLAY
280
     0
  9
$INTERSECTIONCOLOR
 70
   257
  9
$DIMASSOC
280
     2
  9
$PROJECTNAME
  1

  9
$CAMERADISPLAY
290
     0
  9
$LENSLENGTH
 40
50.0
  9
$CAMERAHEIGHT
 40
0.0
  9
$STEPSPERSEC
 40
2.0
  9
$STEPSIZE
 40
6.0
  9
$3DDWFPREC
 40
2.0
  9
$PSOLWIDTH
 40
0.25
  9
$PSOLHEIGHT
 40
4.0
  9
$LOFTANG1
 40
1.570796326794897
  9
$LOFTANG2
 40
1.570796326794897
  9
$LOFTMAG1
 40
0.0
  9
$LOFTMAG2
 40
0.0
  9
$LOFTPARAM
 70
     7
  9
$LOFTNORMALS
280
     1
  9
$LATITUDE
 40
37.795
  9
$LONGITUDE
 40
-122.394
  9
$NORTHDIRECTION
 40
0.0
  9
$TIMEZONE
 70
 -8000
  9
$LIGHTGLYPHDISPLAY
280
     1
  9
$TILEMODELIGHTSYNCH
280
     1
  9
$CMATERIAL
347
3C
  9
$SOLIDHIST
280
     1
  9
$SHOWHIST
280
     1
  9
$DWFFRAME
280
     2
  9
$DGNFRAME
280
     2
  9
$REALWORLDSCALE
290
     1
  9
$INTERFERECOLOR
 62
   256
  9
$CSHADOW
280
     0
  9
$SHADOWPLANELOCATION
 40
0.0
  0
ENDSEC
  0
SECTION
  2
CLASSES
  0
CLASS
  1
ACDBDICTIONARYWDFLT
  2
AcDbDictionaryWithDefault
  3
ObjectDBX Classes
 90
        0
 91
        4
280
     0
281
     0
  0
CLASS
  1
VISUALSTYLE
  2
AcDbVisualStyle
  3
ObjectDBX Classes
 90
     4095
 91
        4
280
     0
281
     0
  0
CLASS
  1
MATERIAL
  2
AcDbMaterial
  3
ObjectDBX Classes
 90
     1153
 91
        4
280
     0
281
     0
  0
CLASS
  1
SUN
  2
AcDbSun
  3
SCENEOE
 90
     1024
 91
        4
280
     0
281
     0
  0
ENDSEC
  0
SECTION
  2
TABLES
  0
TABLE
  2
VPORT
  5
8
330
0
100
AcDbSymbolTable
 70
     1
  0
VPORT
  5
29
330
8
100
AcDbSymbolTableRecord
100
AcDbViewportTableRecord
  2
*Active
 70
     0
 10
0.0
 20
0.0
 11
1.0
 21
1.0
 12
0.0
 22
0.0
 13
0.0
 23
0.0
 14
0.5
 24
0.5
 15
0.5
 25
0.5
 16
0.0
 26
0.0
 36
1.0
 17
4.25
 27
5.5
 37
0.0
 40
11.0
 41
0.7727272727272727
 42
50.0
 43
0.0
 44
0.0
 50
0.0
 51
0.0
 71
     0
 72
   100
 73
     1
 74
     3
 75
     0
 76
     0
 77
     0
 78
     0
281
     0
 65
     1
110
0.0
120
0.0
130
0.0
111
1.0
121
0.0
131
0.0
112
0.0
122
1.0
132
0.0
 79
     0
146
0.0
 60
     3
 61
     5
292
     1
282
     1
141
0.0
142
0.0
 63
   250
361
3F
  0
ENDTAB
  0
TABLE
  2
LTYPE
  5
5
330
0
100
AcDbSymbolTable
 70
     1
  0
LTYPE
  5
14
330
5
100
AcDbSymbolTableRecord
100
AcDbLinetypeTableRecord
  2
ByBlock
 70
     0
  3

 72
    65
 73
     0
 40
0.0
  0
LTYPE
  5
15
330
5
100
AcDbSymbolTableRecord
100
AcDbLinetypeTableRecord
  2
ByLayer
 70
     0
  3

 72
    65
 73
     0
 40
0.0
  0
LTYPE
  5
16
330
5
100
AcDbSymbolTableRecord
100
AcDbLinetypeTableRecord
  2
Continuous
 70
     0
  3
Solid line
 72
    65
 73
     0
 40
0.0
  0
ENDTAB
  0
TABLE
  2
LAYER
  5
2
330
0
100
AcDbSymbolTable
 70
     2
  0
LAYER
  5
10
330
2
100
AcDbSymbolTableRecord
100
AcDbLayerTableRecord
  2
0
 70
     0
 62
     7
  6
Continuous
370
    -3
390
F
347
3E
  0
LAYER
  5
40
330
2
100
AcDbSymbolTableRecord
100
AcDbLayerTableRecord
  2
Layer 1
 70
     0
 62
     7
  6
Continuous
370
    -3
390
F
347
3E
  0
ENDTAB
  0
TABLE
  2
STYLE
  5
3
330
0
100
AcDbSymbolTable
 70
     1
  0
STYLE
  5
11
330
3
100
AcDbSymbolTableRecord
100
AcDbTextStyleTableRecord
  2
Standard
 70
     0
 40
0.0
 41
1.0
 50
0.0
 71
     0
 42
0.2
  3
txt
  4

  0
ENDTAB
  0
TABLE
  2
VIEW
  5
6
330
0
100
AcDbSymbolTable
 70
     0
  0
ENDTAB
  0
TABLE
  2
UCS
  5
7
330
0
100
AcDbSymbolTable
 70
     0
  0
ENDTAB
  0
TABLE
  2
APPID
  5
9
330
0
100
AcDbSymbolTable
 70
     1
  0
APPID
  5
12
330
9
100
AcDbSymbolTableRecord
100
AcDbRegAppTableRecord
  2
ACAD
 70
     0
  0
ENDTAB
  0
TABLE
  2
DIMSTYLE
  5
A
330
0
100
AcDbSymbolTable
 70
     1
100
AcDbDimStyleTable
  0
DIMSTYLE
105
27
330
A
100
AcDbSymbolTableRecord
100
AcDbDimStyleTableRecord
  2
Standard
 70
     0
178
     0
340
11
  0
ENDTAB
  0
TABLE
  2
BLOCK_RECORD
  5
1
330
0
100
AcDbSymbolTable
 70
     2
  0
BLOCK_RECORD
  5
1F
330
1
100
AcDbSymbolTableRecord
100
AcDbBlockTableRecord
  2
*Model_Space
340
22
 70
     0
280
     1
281
     0
  0
BLOCK_RECORD
  5
1B
330
1
100
AcDbSymbolTableRecord
100
AcDbBlockTableRecord
  2
*Paper_Space
340
1E
 70
     0
280
     1
281
     0
  0
BLOCK_RECORD
  5
23
330
1
100
AcDbSymbolTableRecord
100
AcDbBlockTableRecord
  2
*Paper_Space0
340
26
 70
     0
280
     1
281
     0
  0
BLOCK_RECORD
  5
41
330
1
100
AcDbSymbolTableRecord
100
AcDbBlockTableRecord
  2
block 2
340
0
102
{BLKREFS
331
42
102
}
 70
     0
280
     1
281
     0
  0
ENDTAB
  0
ENDSEC
  0
SECTION
  2
BLOCKS
  0
BLOCK
  5
20
330
1F
100
AcDbEntity
  8
0
100
AcDbBlockBegin
  2
*Model_Space
 70
     0
 10
0.0
 20
0.0
 30
0.0
  3
*Model_Space
  1

  0
ENDBLK
  5
21
330
1F
100
AcDbEntity
  8
0
100
AcDbBlockEnd
  0
BLOCK
  5
1C
330
1B
100
AcDbEntity
 67
     1
  8
0
100
AcDbBlockBegin
  2
*Paper_Space
 70
     0
 10
0.0
 20
0.0
 30
0.0
  3
*Paper_Space
  1

  0
ENDBLK
  5
1D
330
1B
100
AcDbEntity
 67
     1
  8
0
100
AcDbBlockEnd
  0
BLOCK
  5
24
330
23
100
AcDbEntity
  8
0
100
AcDbBlockBegin
  2
*Paper_Space0
 70
     0
 10
0.0
 20
0.0
 30
0.0
  3
*Paper_Space0
  1

  0
ENDBLK
  5
25
330
23
100
AcDbEntity
  8
0
100
AcDbBlockEnd
  0
BLOCK
  5
43
330
41
100
AcDbEntity
  8
0
100
AcDbBlockBegin
  2
block 2
 70
     0
 10
0.0
 20
0.0
 30
0.0
  3
block 2
  1

  0
SPLINE
  5
45
330
41
100
AcDbEntity
  8
Layer 1
 62
     7
420
 16777215
370
    35
100
AcDbSpline
210
0.0
220
0.0
230
1.0
 70
    11
 71
     3
 72
   416
 73
   412
 74
     0
 42
0.0000000001
 43
0.0000000001
 12
1.0
 22
0.0
 32
0.0
 13
1.0
 23
0.0
 33
0.0
 40
0.0
 40
0.0
 40
0.0
 40
0.0
 40
1.0
 40
1.0
 40
1.0
 40
2.0
 40
2.0
 40
2.0
 40
3.0
 40
3.0
 40
3.0
 40
4.0
 40
4.0
 40
4.0
 40
5.0
 40
5.0
 40
5.0
 40
6.0
 40
6.0
 40
6.0
 40
7.0
 40
7.0
 40
7.0
 40
8.0
 40
8.0
 40
8.0
 40
9.0
 40
9.0
 40
9.0
 40
10.0
 40
10.0
 40
10.0
 40
11.0
 40
11.0
 40
11.0
 40
12.0
 40
12.0
 40
12.0
 40
13.0
 40
13.0
 40
13.0
 40
14.0
 40
14.0
 40
14.0
 40
15.0
 40
15.0
 40
15.0
 40
16.0
 40
16.0
 40
16.0
 40
17.0
 40
17.0
 40
17.0
 40
18.0
 40
18.0
 40
18.0
 40
19.0
 40
19.0
 40
19.0
 40
20.0
 40
20.0
 40
20.0
 40
21.0
 40
21.0
 40
21.0
 40
22.0
 40
22.0
 40
22.0
 40
23.0
 40
23.0
 40
23.0
 40
24.0
 40
24.0
 40
24.0
 40
25.0
 40
25.0
 40
25.0
 40
26.0
 40
26.0
 40
26.0
 40
27.0
 40
27.0
 40
27.0
 40
28.0
 40
28.0
 40
28.0
 40
29.0
 40
29.0
 40
29.0
 40
30.0
 40
30.0
 40
30.0
 40
31.0
 40
31.0
 40
31.0
 40
32.0
 40
32.0
 40
32.0
 40
33.0
 40
33.0
 40
33.0
 40
34.0
 40
34.0
 40
34.0
 40
35.0
 40
35.0
 40
35.0
 40
36.0
 40
36.0
 40
36.0
 40
37.0
 40
37.0
 40
37.0
 40
38.0
 40
38.0
 40
38.0
 40
39.0
 40
39.0
 40
39.0
 40
40.0
 40
40.0
 40
40.0
 40
41.0
 40
41.0
 40
41.0
 40
42.0
 40
42.0
 40
42.0
 40
43.0
 40
43.0
 40
43.0
 40
44.0
 40
44.0
 40
44.0
 40
45.0
 40
45.0
 40
45.0
 40
46.0
 40
46.0
 40
46.0
 40
47.0
 40
47.0
 40
47.0
 40
48.0
 40
48.0
 40
48.0
 40
49.0
 40
49.0
 40
49.0
 40
50.0
 40
50.0
 40
50.0
 40
51.0
 40
51.0
 40
51.0
 40
52.0
 40
52.0
 40
52.0
 40
53.0
 40
53.0
 40
53.0
 40
54.0
 40
54.0
 40
54.0
 40
55.0
 40
55.0
 40
55.0
 40
56.0
 40
56.0
 40
56.0
 40
57.0
 40
57.0
 40
57.0
 40
58.0
 40
58.0
 40
58.0
 40
59.0
 40
59.0
 40
59.0
 40
60.0
 40
60.0
 40
60.0
 40
61.0
 40
61.0
 40
61.0
 40
62.0
 40
62.0
 40
62.0
 40
63.0
 40
63.0
 40
63.0
 40
64.0
 40
64.0
 40
64.0
 40
65.0
 40
65.0
 40
65.0
 40
66.0
 40
66.0
 40
66.0
 40
67.0
 40
67.0
 40
67.0
 40
68.0
 40
68.0
 40
68.0
 40
69.0
 40
69.0
 40
69.0
 40
70.0
 40
70.0
 40
70.0
 40
71.0
 40
71.0
 40
71.0
 40
72.0
 40
72.0
 40
72.0
 40
73.0
 40
73.0
 40
73.0
 40
74.0
 40
74.0
 40
74.0
 40
75.0
 40
75.0
 40
75.0
 40
76.0
 40
76.0
 40
76.0
 40
77.0
 40
77.0
 40
77.0
 40
78.0
 40
78.0
 40
78.0
 40
79.0
 40
79.0
 40
79.0
 40
80.0
 40
80.0
 40
80.0
 40
81.0
 40
81.0
 40
81.0
 40
82.0
 40
82.0
 40
82.0
 40
83.0
 40
83.0
 40
83.0
 40
84.0
 40
84.0
 40
84.0
 40
85.0
 40
85.0
 40
85.0
 40
86.0
 40
86.0
 40
86.0
 40
87.0
 40
87.0
 40
87.0
 40
88.0
 40
88.0
 40
88.0
 40
89.0
 40
89.0
 40
89.0
 40
90.0
 40
90.0
 40
90.0
 40
91.0
 40
91.0
 40
91.0
 40
92.0
 40
92.0
 40
92.0
 40
93.0
 40
93.0
 40
93.0
 40
94.0
 40
94.0
 40
94.0
 40
95.0
 40
95.0
 40
95.0
 40
96.0
 40
96.0
 40
96.0
 40
97.0
 40
97.0
 40
97.0
 40
98.0
 40
98.0
 40
98.0
 40
99.0
 40
99.0
 40
99.0
 40
100.0
 40
100.0
 40
100.0
 40
101.0
 40
101.0
 40
101.0
 40
102.0
 40
102.0
 40
102.0
 40
103.0
 40
103.0
 40
103.0
 40
104.0
 40
104.0
 40
104.0
 40
105.0
 40
105.0
 40
105.0
 40
106.0
 40
106.0
 40
106.0
 40
107.0
 40
107.0
 40
107.0
 40
108.0
 40
108.0
 40
108.0
 40
109.0
 40
109.0
 40
109.0
 40
110.0
 40
110.0
 40
110.0
 40
111.0
 40
111.0
 40
111.0
 40
112.0
 40
112.0
 40
112.0
 40
113.0
 40
113.0
 40
113.0
 40
114.0
 40
114.0
 40
114.0
 40
115.0
 40
115.0
 40
115.0
 40
116.0
 40
116.0
 40
116.0
 40
117.0
 40
117.0
 40
117.0
 40
118.0
 40
118.0
 40
118.0
 40
119.0
 40
119.0
 40
119.0
 40
120.0
 40
120.0
 40
120.0
 40
121.0
 40
121.0
 40
121.0
 40
122.0
 40
122.0
 40
122.0
 40
123.0
 40
123.0
 40
123.0
 40
124.0
 40
124.0
 40
124.0
 40
125.0
 40
125.0
 40
125.0
 40
126.0
 40
126.0
 40
126.0
 40
127.0
 40
127.0
 40
127.0
 40
128.0
 40
128.0
 40
128.0
 40
129.0
 40
129.0
 40
129.0
 40
130.0
 40
130.0
 40
130.0
 40
131.0
 40
131.0
 40
131.0
 40
132.0
 40
132.0
 40
132.0
 40
133.0
 40
133.0
 40
133.0
 40
134.0
 40
134.0
 40
134.0
 40
135.0
 40
135.0
 40
135.0
 40
136.0
 40
136.0
 40
136.0
 40
137.0
 40
137.0
 40
137.0
 40
137.0
 10
8.315228967335669
 20
4.439689391681617
 30
0.0
 10
8.315228967335669
 20
3.733708724757864
 30
0.0
 10
8.315225345845924
 20
3.027728057834161
 30
0.0
 10
8.315236210315156
 20
2.321747390910407
 30
0.0
 10
8.315236727670834
 20
2.272335327054027
 30
0.0
 10
8.315612327893126
 20
2.222921194751987
 30
0.0
 10
8.315317952512284
 20
2.173511199341217
 30
0.0
 10
8.315075830054967
 20
2.13287141347698
 30
0.0
 10
8.306640863079615
 20
2.124039667672478
 30
0.0
 10
8.265046501273698
 20
2.123976580080201
 30
0.0
 10
8.109652515095528
 20
2.123740777276377
 30
0.0
 10
7.954258011561706
 20
2.124090344590841
 30
0.0
 10
7.798863508027883
 20
2.124257371576909
 30
0.0
 10
7.790390256732356
 20
2.124266162470904
 30
0.0
 10
7.781905106256241
 20
2.124973570882427
 30
0.0
 10
7.773445306208335
 20
2.124719669179159
 30
0.0
 10
7.734989223945629
 20
2.123565993619119
 30
0.0
 10
7.729940867238964
 20
2.1164257192431
 30
0.0
 10
7.731784205519943
 20
2.079155431339005
 30
0.0
 10
7.734290276424543
 20
2.028472307632076
 30
0.0
 10
7.73483867344329
 20
1.977674385191701
 30
0.0
 10
7.735422250648171
 20
1.926916797441436
 30
0.0
 10
7.73668770263675
 20
1.816842910961971
 30
0.0
 10
7.737432177457499
 20
1.706762819145524
 30
0.0
 10
7.738412566467458
 20
1.59668531288614
 30
0.0
 10
7.738825416298545
 20
1.550360404158987
 30
0.0
 10
7.722181566779176
 20
1.537284724996703
 30
0.0
 10
7.675986360928138
 20
1.540590101141813
 30
0.0
 10
7.626848435980188
 20
1.544106458743019
 30
0.0
 10
7.577417687718454
 20
1.54455737989421
 30
0.0
 10
7.528114208953512
 20
1.544577030127862
 30
0.0
 10
7.252640935182651
 20
1.544689760415698
 30
0.0
 10
6.977168178767467
 20
1.544342261546843
 30
0.0
 10
6.701694904996606
 20
1.543910990629304
 30
0.0
 10
6.673563172645572
 20
1.543866519047874
 30
0.0
 10
6.645327451803243
 20
1.543450761472665
 30
0.0
 10
6.617327645150099
 20
1.541035851178928
 30
0.0
 10
6.578345412162788
 20
1.537675661224133
 30
0.0
 10
6.564612723043941
 20
1.547925843631598
 30
0.0
 10
6.564541845316044
 20
1.586865367173409
 30
0.0
 10
6.56447045023247
 20
1.626355097257525
 30
0.0
 10
6.567001354209625
 20
1.665843793118787
 30
0.0
 10
6.567206744413826
 20
1.70533869431703
 30
0.0
 10
6.567852921655735
 20
1.829577813703786
 30
0.0
 10
6.567871029104455
 20
1.953820035758958
 30
0.0
 10
6.568285948358279
 20
2.078061223591375
 30
0.0
 10
6.568423564968649
 20
2.119081603454788
 30
0.0
 10
6.562657118580823
 20
2.125203168349319
 30
0.0
 10
6.522669146155319
 20
2.125096643398466
 30
0.0
 10
6.36445505417598
 20
2.124675197597728
 30
0.0
 10
6.206241479552318
 20
2.124276504699158
 30
0.0
 10
6.048027387572978
 20
2.123912975376571
 30
0.0
 10
6.039560861901261
 20
2.123893325142919
 30
0.0
 10
6.030985174181473
 20
2.123484807127448
 30
0.0
 10
6.022645918006573
 20
2.124619866676691
 30
0.0
 10
5.993892324130481
 20
2.128533365842208
 30
0.0
 10
5.982561200069287
 20
2.141023157774801
 30
0.0
 10
5.982843676269517
 20
2.169278642434544
 30
0.0
 10
5.98445006564993
 20
2.330093569099088
 30
0.0
 10
5.986153200542149
 20
2.490907978652229
 30
0.0
 10
5.988150193459533
 20
2.651718768425553
 30
0.0
 10
5.988703764035058
 20
2.69631290525687
 30
0.0
 10
5.973708727061724
 20
2.709021435316698
 30
0.0
 10
5.929097146941254
 20
2.70525221023508
 30
0.0
 10
5.886994224503799
 20
2.701695000832362
 30
0.0
 10
5.844606756443378
 20
2.699914586241019
 30
0.0
 10
5.802352248792229
 20
2.700029384974464
 30
0.0
 10
5.683726730654901
 20
2.700350511161282
 30
0.0
 10
5.56510328194031
 20
2.701890468946077
 30
0.0
 10
5.446483454715437
 20
2.703310973994651
 30
0.0
 10
5.411245324770359
 20
2.703732936906792
 30
0.0
 10
5.404201527213369
 20
2.695225419957574
 30
0.0
 10
5.407923383961436
 20
2.661006606495372
 30
0.0
 10
5.41094370641003
 20
2.633239275008464
 30
0.0
 10
5.411146509835842
 20
2.60509341796809
 30
0.0
 10
5.411374663689887
 20
2.577105797019739
 30
0.0
 10
5.412433173407231
 20
2.447227577685807
 30
0.0
 10
5.413093319252438
 20
2.317345738571956
 30
0.0
 10
5.413793818840556
 20
2.187464933681011
 30
0.0
 10
5.41384710647541
 20
2.17760672172378
 30
0.0
 10
5.414216498429545
 20
2.167547353427355
 30
0.0
 10
5.412512846181648
 20
2.157921841605533
 30
0.0
 10
5.408099284891983
 20
2.132992417547358
 30
0.0
 10
5.39827883941075
 20
2.123745948390504
 30
0.0
 10
5.37263300109286
 20
2.122930980805273
 30
0.0
 10
5.347261878640034
 20
2.122123769891232
 30
0.0
 10
5.32181573961389
 20
2.124118268607087
 30
0.0
 10
5.296401159284086
 20
2.124170496859708
 30
0.0
 10
5.157960918676483
 20
2.12445594235909
 30
0.0
 10
5.01952067806888
 20
2.124444565908031
 30
0.0
 10
4.881080437461251
 20
2.124706224282489
 30
0.0
 10
4.834471864423423
 20
2.124794133222495
 30
0.0
 10
4.830769149835431
 20
2.121375509678147
 30
0.0
 10
4.830935738363778
 20
2.074058264151543
 30
0.0
 10
4.831497069274493
 20
1.91451491444895
 30
0.0
 10
4.832166010166247
 20
1.754971047634904
 30
0.0
 10
4.832635251766255
 20
1.595427697932311
 30
0.0
 10
4.832664223684231
 20
1.585583965094606
 30
0.0
 10
4.831782649608789
 20
1.575677144664724
 30
0.0
 10
4.830525992666733
 20
1.565902704756228
 30
0.0
 10
4.827872992749563
 20
1.545272027865521
 30
0.0
 10
4.815640117741471
 20
1.538552682178786
 30
0.0
 10
4.795205085813146
 20
1.53867472047202
 30
0.0
 10
4.471857787015879
 20
1.540606648706999
 30
0.0
 10
4.148508677473728
 20
1.542144538046134
 30
0.0
 10
3.825158274542408
 20
1.543346304967473
 30
0.0
 10
3.785776642971617
 20
1.54349213038563
 30
0.0
 10
3.746390872555391
 20
1.540980003146438
 30
0.0
 10
3.706998117837518
 20
1.540064715947286
 30
0.0
 10
3.676987349663705
 20
1.539366615541212
 30
0.0
 10
3.665819709996766
 20
1.550865104897058
 30
0.0
 10
3.665968191076369
 20
1.585395736540679
 30
0.0
 10
3.666168149045954
 20
1.631958516517266
 30
0.0
 10
3.668858139894104
 20
1.678513022711311
 30
0.0
 10
3.668970923431933
 20
1.725073734242238
 30
0.0
 10
3.669255210377034
 20
1.842237735290862
 30
0.0
 10
3.669189506205915
 20
1.959407424564966
 30
0.0
 10
3.668200580827273
 20
2.076566254499463
 30
0.0
 10
3.667856021945681
 20
2.117418573154004
 30
0.0
 10
3.655413359210115
 20
2.128476483586913
 30
0.0
 10
3.618416478637414
 20
2.12791541770495
 30
0.0
 10
3.522425788771582
 20
2.126459749080343
 30
0.0
 10
3.426434322872233
 20
2.124961160208563
 30
0.0
 10
3.330437942093946
 20
2.123996747425306
 30
0.0
 10
3.271111990455488
 20
2.12340051796731
 30
0.0
 10
3.211776209059167
 20
2.12372991793672
 30
0.0
 10
3.152444825186093
 20
2.123698374140607
 30
0.0
 10
3.143972091246244
 20
2.123693720137882
 30
0.0
 10
3.135435981235837
 20
2.123386555959188
 30
0.0
 10
3.127037746513641
 20
2.124260474245375
 30
0.0
 10
3.091726152062266
 20
2.127932482381539
 30
0.0
 10
3.080280692396198
 20
2.14200722079171
 30
0.0
 10
3.081365328575278
 20
2.176774172350557
 30
0.0
 10
3.084709774356194
 20
2.283942409806387
 30
0.0
 10
3.08831108723128
 20
2.391112715707878
 30
0.0
 10
3.090241599944028
 20
2.498310428514161
 30
0.0
 10
3.091181117855411
 20
2.550485418644535
 30
0.0
 10
3.08900460251775
 20
2.60273383859539
 30
0.0
 10
3.087530138835227
 20
2.654928478959417
 30
0.0
 10
3.086415496026815
 20
2.694382011244695
 30
0.0
 10
3.069591606731465
 20
2.708788218069887
 30
0.0
 10
3.032005458041441
 20
2.705721747397118
 30
0.0
 10
2.999720911662482
 20
2.703088098976094
 30
0.0
 10
2.967343499939324
 20
2.700255362661487
 30
0.0
 10
2.93499014525518
 20
2.700034038977189
 30
0.0
 10
2.831869000756278
 20
2.699328181899874
 30
0.0
 10
2.728738802533005
 20
2.699516927565254
 30
0.0
 10
2.625615071255702
 20
2.700015422966342
 30
0.0
 10
2.600256882694819
 20
2.700137978370978
 30
0.0
 10
2.574927148696234
 20
2.703288221092533
 30
0.0
 10
2.549554215498536
 20
2.704088709558189
 30
0.0
 10
2.519894990507977
 20
2.705024681213798
 30
0.0
 10
2.508027109930759
 20
2.693592899230099
 30
0.0
 10
2.508171452164952
 20
2.664052392711685
 30
0.0
 10
2.508887472423402
 20
2.517247048419323
 30
0.0
 10
2.50978637791406
 20
2.370441704127011
 30
0.0
 10
2.51097396787308
 20
2.223639462503165
 30
0.0
 10
2.511110808449934
 20
2.206753189346298
 30
0.0
 10
2.514649779965806
 20
2.189873638637815
 30
0.0
 10
2.514506472442981
 20
2.173009084160261
 30
0.0
 10
2.514206147471858
 20
2.137626770021168
 30
0.0
 10
2.500627889022932
 20
2.123689583246611
 30
0.0
 10
2.466022485072131
 20
2.123673552792828
 30
0.0
 10
2.309219998060409
 20
2.123600640083749
 30
0.0
 10
2.152417769726538
 20
2.12397244318893
 30
0.0
 10
1.995615282714829
 20
2.124234618674791
 30
0.0
 10
1.987144100842013
 20
2.124248580682913
 30
0.0
 10
1.978647827218815
 20
2.125269875721465
 30
0.0
 10
1.970207557347774
 20
2.124874802602764
 30
0.0
 10
1.940221363568664
 20
2.123474982010647
 30
0.0
 10
1.931788854032789
 20
2.116659970712716
 30
0.0
 10
1.932048695922112
 20
2.086632862355676
 30
0.0
 10
1.933428095498774
 20
1.927189315155551
 30
0.0
 10
1.935767577875039
 20
1.767754041738019
 30
0.0
 10
1.937817987766165
 20
1.608316182763423
 30
0.0
 10
1.937872439451288
 20
1.604089314082279
 30
0.0
 10
1.93855793572474
 20
1.599873821852144
 30
0.0
 10
1.938717927968178
 20
1.595643850502483
 30
0.0
 10
1.940690475829759
 20
1.543517985956214
 30
0.0
 10
1.928441562795645
 20
1.533234708418427
 30
0.0
 10
1.87691785213825
 20
1.542341040382654
 30
0.0
 10
1.863110793140688
 20
1.54478077202417
 30
0.0
 10
1.848901102086668
 20
1.546023907858474
 30
0.0
 10
1.834878435110264
 20
1.546007360293288
 30
0.0
 10
1.573538413091986
 20
1.545699161891788
 30
0.0
 10
1.312198908429397
 20
1.544941076561902
 30
0.0
 10
1.050858951080588
 20
1.544715615986282
 30
0.0
 10
0.9831521608046058
 20
1.544657699508131
 30
0.0
 10
0.9154447885034894
 20
1.546438631210877
 30
0.0
 10
0.8477361228131788
 20
1.546567909063848
 30
0.0
 10
0.8323753800448987
 20
1.546596867302898
 30
0.0
 10
0.8169473810384664
 20
1.543677256271091
 30
0.0
 10
0.8016561579394192
 20
1.541404034504239
 30
0.0
 10
0.7683892177972717
 20
1.536458380960463
 30
0.0
 10
0.760570615442892
 20
1.542983292756288
 30
0.0
 10
0.7608523156096049
 20
1.576009130191147
 30
0.0
 10
0.7615369065106152
 20
1.656278266220776
 30
0.0
 10
0.7619840311553945
 20
1.736549470696016
 30
0.0
 10
0.7628114768930092
 20
1.816816538279934
 30
0.0
 10
0.7636698346323985
 20
1.900091125835716
 30
0.0
 10
0.7649726655687092
 20
1.983361059388774
 30
0.0
 10
0.7657631203753554
 20
2.06663616405601
 30
0.0
 10
0.7658561150584925
 20
2.076434391089379
 30
0.0
 10
0.7649638705221883
 20
2.086490139605985
 30
0.0
 10
0.7627514636343574
 20
2.096013780479628
 30
0.0
 10
0.7570445778189625
 20
2.120580192326618
 30
0.0
 10
0.7461737063028597
 20
2.12811967671266
 30
0.0
 10
0.7206006211272071
 20
2.1278864594659
 30
0.0
 10
0.5596344556183289
 20
2.126419414390234
 30
0.0
 10
0.3986679990969024
 20
2.12496633132269
 30
0.0
 10
0.237699942006341
 20
2.123735089050848
 30
0.0
 10
0.1930903019696694
 20
2.123393795518976
 30
0.0
 10
0.1832243615234953
 20
2.135039144515834
 30
0.0
 10
0.1847091076501152
 20
2.179155987513973
 30
0.0
 10
0.1863678954603074
 20
2.228445495965717
 30
0.0
 10
0.1866946540731078
 20
2.277798092009738
 30
0.0
 10
0.1866979845502783
 20
2.327123281148917
 30
0.0
 10
0.1867925636351831
 20
3.726441240974484
 30
0.0
 10
0.1867893948316603
 20
5.125759200800101
 30
0.0
 10
0.1867196811540326
 20
6.525077160625667
 30
0.0
 10
0.1867164638484079
 20
6.58997386715685
 30
0.0
 10
0.1859019520027358
 20
6.654870056576644
 30
0.0
 10
0.1855604325857535
 20
6.719767021663515
 30
0.0
 10
0.1853622368589514
 20
6.7574277286836
 30
0.0
 10
0.1952482410050101
 20
6.768049714196232
 30
0.0
 10
0.2331149096441247
 20
6.767571386140199
 30
0.0
 10
0.3432718488543792
 20
6.766180356442078
 30
0.0
 10
0.4534163553610016
 20
6.763783803603448
 30
0.0
 10
0.563574054437418
 20
6.762483785513837
 30
0.0
 10
0.6171646010287254
 20
6.761851358257028
 30
0.0
 10
0.6707815327596083
 20
6.762312363080784
 30
0.0
 10
0.7243707859617213
 20
6.763213688271788
 30
0.0
 10
0.7503311765318711
 20
6.763649871747752
 30
0.0
 10
0.762563340175916
 20
6.775399418694114
 30
0.0
 10
0.7641516867770658
 20
6.802732118039254
 30
0.0
 10
0.7654563284582486
 20
6.825183544211401
 30
0.0
 10
0.7627086524519957
 20
6.847837678057013
 30
0.0
 10
0.7627135026614774
 20
6.870401834516959
 30
0.0
 10
0.7628235700819914
 20
7.38155327887734
 30
0.0
 10
0.7630737762217955
 20
7.892704464682007
 30
0.0
 10
0.7632498064912675
 20
8.403855909042376
 30
0.0
 10
0.7632560794288565
 20
8.42220948583061
 30
0.0
 10
0.7626559468422884
 20
8.440562674785282
 30
0.0
 10
0.7625421932625739
 20
8.458917285796348
 30
0.0
 10
0.762257259622869
 20
8.504894307821068
 30
0.0
 10
0.7657696519907833
 20
8.508569935737139
 30
0.0
 10
0.8134444304116767
 20
8.50906274291271
 30
0.0
 10
0.8374485051546495
 20
8.509310956390449
 30
0.0
 10
0.8614643497392964
 20
8.508114619138926
 30
0.0
 10
0.8854742447336497
 20
8.508143448100137
 30
0.0
 10
1.006955178197194
 20
8.508289273518306
 30
0.0
 10
1.128435852982888
 20
8.508738384779589
 30
0.0
 10
1.249916657107507
 20
8.50873437716613
 30
0.0
 10
1.263965450545647
 20
8.508733860054715
 30
0.0
 10
1.27803002333197
 20
8.506745178842253
 30
0.0
 10
1.2920601919657
 20
8.505396681557777
 30
0.0
 10
1.334789244112572
 20
8.501289782724156
 30
0.0
 10
1.347630012042411
 20
8.51360039555248
 30
0.0
 10
1.347379094538534
 20
8.557656477959704
 30
0.0
 10
1.346977109176679
 20
8.628247227525598
 30
0.0
 10
1.347102179911846
 20
8.698841079759973
 30
0.0
 10
1.346681957762333
 20
8.769431700048017
 30
0.0
 10
1.346152444225822
 20
8.858373311567233
 30
0.0
 10
1.345450651248509
 20
8.947314535252884
 30
0.0
 10
1.344514884165796
 20
9.03625278554792
 30
0.0
 10
1.344105267807676
 20
9.075164514351336
 30
0.0
 10
1.350823131287484
 20
9.08362613766274
 30
0.0
 10
1.390614637894234
 20
9.084389006273215
 30
0.0
 10
1.438618389856919
 20
9.085309335308617
 30
0.0
 10
1.486659779445189
 20
9.08433289968501
 30
0.0
 10
1.534684484312834
 20
9.084092055044897
 30
0.0
 10
1.64909006152301
 20
9.083518319933356
 30
0.0
 10
1.763494992038583
 20
9.082823192917859
 30
0.0
 10
1.877900827926598
 20
9.082327412351662
 30
0.0
 10
1.920091571490426
 20
9.082144613467536
 30
0.0
 10
1.931677881239845
 20
9.095432954697987
 30
0.0
 10
1.930937545264517
 20
9.134040492713325
 30
0.0
 10
1.928448935114059
 20
9.263822787880333
 30
0.0
 10
1.927477082472794
 20
9.393633653452866
 30
0.0
 10
1.925628182618273
 20
9.52342926423873
 30
0.0
 10
1.925206667079553
 20
9.55301592295066
 30
0.0
 10
1.92361747977543
 20
9.58258635729203
 30
0.0
 10
1.922524824583332
 20
9.612162803053566
 30
0.0
 10
1.920892438080083
 20
9.656348098674862
 30
0.0
 10
1.933612920814767
 20
9.666380706455735
 30
0.0
 10
1.977806865564099
 20
9.662639663946063
 30
0.0
 10
2.022695877666933
 20
9.65883986465221
 30
0.0
 10
2.067891811025788
 20
9.657265389680711
 30
0.0
 10
2.11295788810945
 20
9.657181359076276
 30
0.0
 10
2.372892513428218
 20
9.656696825683285
 30
0.0
 10
2.632828820152945
 20
9.656729597619018
 30
0.0
 10
2.892763833488491
 20
9.657128872267977
 30
0.0
 10
2.942176474301492
 20
9.657204823006584
 30
0.0
 10
2.991652749862901
 20
9.658555130181032
 30
0.0
 10
3.04097511211008
 20
9.661446752557657
 30
0.0
 10
3.08370558698506
 20
9.663951834153863
 30
0.0
 10
3.087779504272059
 20
9.670788822686808
 30
0.0
 10
3.087967045705366
 20
9.713631761721633
 30
0.0
 10
3.088418179856641
 20
9.816683404504854
 30
0.0
 10
3.090413620706992
 20
9.919733172759226
 30
0.0
 10
3.090209006536308
 20
10.02278061401223
 30
0.0
 10
3.090114071769373
 20
10.0707159046345
 30
0.0
 10
3.086359104257907
 20
10.11864421425274
 30
0.0
 10
3.084245447635125
 20
10.16657486703203
 30
0.0
 10
3.083872692869072
 20
10.1750323857716
 30
0.0
 10
3.082878593933654
 20
10.18349885700251
 30
0.0
 10
3.083082432070809
 20
10.19193926258629
 30
0.0
 10
3.084063079758607
 20
10.23261611887488
 30
0.0
 10
3.092907792430979
 20
10.24183600527323
 30
0.0
 10
3.133410533756167
 20
10.24161600668692
 30
0.0
 10
3.187077390309986
 20
10.24132453360764
 30
0.0
 10
3.24073881462919
 20
10.23922990919465
 30
0.0
 10
3.294402825726782
 20
10.23921534927647
 30
0.0
 10
3.955543287242385
 20
10.23903602473463
 30
0.0
 10
4.616683748758001
 20
10.23905132800049
 30
0.0
 10
5.277824468951445
 20
10.23926794920289
 30
0.0
 10
5.301748547572692
 20
10.23927578667273
 30
0.0
 10
5.325793687422598
 20
10.24079489840369
 30
0.0
 10
5.349569802319921
 20
10.24348463725316
 30
0.0
 10
5.397402956247762
 20
10.24889586882474
 30
0.0
 10
5.415391930530126
 20
10.23363015819397
 30
0.0
 10
5.414884921965621
 20
10.18582991444886
 30
0.0
 10
5.413777780814548
 20
10.08141503670592
 30
0.0
 10
5.412770489309322
 20
9.976998478350867
 30
0.0
 10
5.411336379369711
 20
9.872587899096528
 30
0.0
 10
5.410581557435383
 20
9.817584535779094
 30
0.0
 10
5.409178488836434
 20
9.762588121146248
 30
0.0
 10
5.407757312788767
 20
9.707596619071838
 30
0.0
 10
5.406949720575287
 20
9.676362314123606
 30
0.0
 10
5.412948977018257
 20
9.667820150709796
 30
0.0
 10
5.443959276362117
 20
9.661022656560931
 30
0.0
 10
5.454910661355623
 20
9.658622290025644
 30
0.0
 10
5.466300246608449
 20
9.657093579414095
 30
0.0
 10
5.477491684636586
 20
9.657081168740218
 30
0.0
 10
5.806518514067774
 20
9.656715377055194
 30
0.0
 10
6.135545860854639
 20
9.6564494525116
 30
0.0
 10
6.464572172930148
 20
9.656763403777568
 30
0.0
 10
6.485506453087787
 20
9.656783377205858
 30
0.0
 10
6.506707171419647
 20
9.66028092487943
 30
0.0
 10
6.527308274520616
 20
9.664487690854482
 30
0.0
 10
6.56307358990168
 20
9.671791372436713
 30
0.0
 10
6.573955131878645
 20
9.664978300306554
 30
0.0
 10
6.574776692695423
 20
9.628321694370609
 30
0.0
 10
6.575567212171513
 20
9.593068076334172
 30
0.0
 10
6.573734221004088
 20
9.557764492407562
 30
0.0
 10
6.57375957143232
 20
9.522483338188446
 30
0.0
 10
6.573828897093184
 20
9.425093095782042
 30
0.0
 10
6.574609069455719
 20
9.327702336264236
 30
0.0
 10
6.574353495750756
 20
9.230313709831004
 30
0.0
 10
6.57427589239905
 20
9.200717613835813
 30
0.0
 10
6.572254583764789
 20
9.171092947435113
 30
0.0
 10
6.570219823882931
 20
9.141543650022703
 30
0.0
 10
6.567016357524279
 20
9.095019782679843
 30
0.0
 10
6.578116223597387
 20
9.082461344207356
 30
0.0
 10
6.623993255706434
 20
9.082678272444657
 30
0.0
 10
6.720041372052517
 20
9.08313242554219
 30
0.0
 10
6.81609052310998
 20
9.08358282958199
 30
0.0
 10
6.91213812210041
 20
9.084147903077387
 30
0.0
 10
6.975617663800271
 20
9.084521386794664
 30
0.0
 10
7.039096170788802
 20
9.085131190427193
 30
0.0
 10
7.102575712488689
 20
9.085558583009162
 30
0.0
 10
7.141147682423302
 20
9.08581830221581
 30
0.0
 10
7.152994610095548
 20
9.074394664736815
 30
0.0
 10
7.152988401827415
 20
9.03505308707223
 30
0.0
 10
7.152965120821894
 20
8.892444748277045
 30
0.0
 10
7.152678505776243
 20
8.749836021648308
 30
0.0
 10
7.152194778217234
 20
8.60722858779809
 30
0.0
 10
7.152142007938083
 20
8.591744203679001
 30
0.0
 10
7.150454393716195
 20
8.576239910770544
 30
0.0
 10
7.149029078823105
 20
8.560790560949613
 30
0.0
 10
7.14499836073522
 20
8.51709503447436
 30
0.0
 10
7.154089852066035
 20
8.507037734623559
 30
0.0
 10
7.19658027390637
 20
8.507423499736875
 30
0.0
 10
7.278502510818296
 20
8.50816762305865
 30
0.0
 10
7.360426299797255
 20
8.508803282261775
 30
0.0
 10
7.442350606131892
 20
8.509094415986699
 30
0.0
 10
7.524272843043819
 20
8.50938542043376
 30
0.0
 10
7.606195597311398
 20
8.509310439279034
 30
0.0
 10
7.688118351579002
 20
8.509177024534754
 30
0.0
 10
7.728853902959322
 20
8.50911057571832
 30
0.0
 10
7.7380054075488
 20
8.499739999822571
 30
0.0
 10
7.737946429001491
 20
8.459352305771644
 30
0.0
 10
7.737176086396857
 20
7.931306831583242
 30
0.0
 10
7.736440406622629
 20
7.403261357394816
 30
0.0
 10
7.735457430834281
 20
6.875216141762116
 30
0.0
 10
7.735426389493593
 20
6.858368393405435
 30
0.0
 10
7.733415945328589
 20
6.841456264677984
 30
0.0
 10
7.731354800307145
 20
6.824693839704271
 30
0.0
 10
7.725990339281174
 20
6.781068511103197
 30
0.0
 10
7.739018907322158
 20
6.765668157588556
 30
0.0
 10
7.784280803529959
 20
6.764552231161588
 30
0.0
 10
7.828035642647516
 20
6.763473019644872
 30
0.0
 10
7.871812210703562
 20
6.762455344386176
 30
0.0
 10
7.915574292800632
 20
6.762623147039347
 30
0.0
 10
8.008752119844758
 20
6.762980212469288
 30
0.0
 10
8.101934603090006
 20
6.763717096231302
 30
0.0
 10
8.195100013597868
 20
6.765211806767511
 30
0.0
 10
8.220446302978138
 20
6.765618514893011
 30
0.0
 10
8.245704124537472
 20
6.770237612580141
 30
0.0
 10
8.271068004010809
 20
6.771192458802286
 30
0.0
 10
8.299851087160555
 20
6.772275807210311
 30
0.0
 10
8.309377157260945
 20
6.763927560575969
 30
0.0
 10
8.313120225591824
 20
6.735558052849897
 30
0.0
 10
8.314957872960349
 20
6.721634052416321
 30
0.0
 10
8.31469919512132
 20
6.707379876346231
 30
0.0
 10
8.314700229832674
 20
6.693275145474192
 30
0.0
 10
8.314765934003793
 20
5.942080066580476
 30
0.0
 10
8.314758173668627
 20
5.190884729131059
 30
0.0
 10
8.314758173668627
 20
4.439689391681617
 30
0.0
 10
8.314914932439073
 20
4.439689391681617
 30
0.0
 10
8.315072208565198
 20
4.439689391681617
 30
0.0
 10
8.315228967335669
 20
4.439689391681617
 30
0.0
  0
SPLINE
  5
46
330
41
100
AcDbEntity
  8
Layer 1
 62
     7
420
 16777215
370
    35
100
AcDbSpline
210
0.0
220
0.0
230
1.0
 70
    11
 71
     3
 72
    50
 73
    46
 74
     0
 42
0.0000000001
 43
0.0000000001
 12
1.0
 22
0.0
 32
0.0
 13
1.0
 23
0.0
 33
0.0
 40
0.0
 40
0.0
 40
0.0
 40
0.0
 40
1.0
 40
1.0
 40
1.0
 40
2.0
 40
2.0
 40
2.0
 40
3.0
 40
3.0
 40
3.0
 40
4.0
 40
4.0
 40
4.0
 40
5.0
 40
5.0
 40
5.0
 40
6.0
 40
6.0
 40
6.0
 40
7.0
 40
7.0
 40
7.0
 40
8.0
 40
8.0
 40
8.0
 40
9.0
 40
9.0
 40
9.0
 40
10.0
 40
10.0
 40
10.0
 40
11.0
 40
11.0
 40
11.0
 40
12.0
 40
12.0
 40
12.0
 40
13.0
 40
13.0
 40
13.0
 40
14.0
 40
14.0
 40
14.0
 40
15.0
 40
15.0
 40
15.0
 40
15.0
 10
5.406603609626674
 20
7.333127863594919
 30
0.0
 10
5.406602574915319
 20
7.333204137528191
 30
0.0
 10
5.406601540203964
 20
7.333280411461449
 30
0.0
 10
5.406600505492608
 20
7.333356685394707
 30
0.0
 10
5.228630669590252
 20
7.333356685394707
 30
0.0
 10
5.050660316332242
 20
7.33327136201174
 30
0.0
 10
4.87269048042991
 20
7.333433476439394
 30
0.0
 10
4.839813044443872
 20
7.333463468901274
 30
0.0
 10
4.832311904467461
 20
7.327085675302126
 30
0.0
 10
4.832089958881548
 20
7.294730789924251
 30
0.0
 10
4.831838524022007
 20
7.258070176374846
 30
0.0
 10
4.832287071394906
 20
7.221405684489873
 30
0.0
 10
4.832261720966673
 20
7.184742743939144
 30
0.0
 10
4.83204339687053
 20
6.867172990860821
 30
0.0
 10
4.831753677690813
 20
6.54960323778251
 30
0.0
 10
4.831596918920341
 20
6.2320334847042
 30
0.0
 10
4.831581915605688
 20
6.2018478816994
 30
0.0
 10
4.842000424250778
 20
6.191908483250523
 30
0.0
 10
4.872630984526924
 20
6.191552710599113
 30
0.0
 10
4.907848937600571
 20
6.191143416916575
 30
0.0
 10
4.943066890674218
 20
6.19045565873868
 30
0.0
 10
4.97828484374784
 20
6.190439369729208
 30
0.0
 10
5.259399881188124
 20
6.190310350431925
 30
0.0
 10
5.540514918628408
 20
6.190185985137355
 30
0.0
 10
5.821629956068691
 20
6.190411704268664
 30
0.0
 10
5.8625543422715
 20
6.190444540843322
 30
0.0
 10
5.903613240950613
 20
6.19064156029127
 30
0.0
 10
5.944358622088808
 20
6.193901172076431
 30
0.0
 10
5.977786524516305
 20
6.196575672298978
 30
0.0
 10
5.985492019985586
 20
6.208960749170615
 30
0.0
 10
5.98422191179591
 20
6.24094150444196
 30
0.0
 10
5.982550852955708
 20
6.283036700375128
 30
0.0
 10
5.981457680407932
 20
6.325183348893776
 30
0.0
 10
5.981412153108269
 20
6.367309571511655
 30
0.0
 10
5.981100187634385
 20
6.65252573199061
 30
0.0
 10
5.981107430613873
 20
6.937742409580967
 30
0.0
 10
5.981104843835484
 20
7.222958828615623
 30
0.0
 10
5.981104326479807
 20
7.24127232926945
 30
0.0
 10
5.981039657020069
 20
7.259652020183971
 30
0.0
 10
5.982465489268836
 20
7.277886661347464
 30
0.0
 10
5.986069906277988
 20
7.323984299609024
 30
0.0
 10
5.977742031927997
 20
7.333207240196657
 30
0.0
 10
5.932060042909598
 20
7.333176213511946
 30
0.0
 10
5.756907726030073
 20
7.333056760775788
 30
0.0
 10
5.581755926506199
 20
7.333127863594919
 30
0.0
 10
5.406603609626674
 20
7.333127863594919
 30
0.0
  0
SPLINE
  5
47
330
41
100
AcDbEntity
  8
Layer 1
 62
     7
420
 16777215
370
    35
100
AcDbSpline
210
0.0
220
0.0
230
1.0
 70
    11
 71
     3
 72
    56
 73
    52
 74
     0
 42
0.0000000001
 43
0.0000000001
 12
1.0
 22
0.0
 32
0.0
 13
1.0
 23
0.0
 33
0.0
 40
0.0
 40
0.0
 40
0.0
 40
0.0
 40
1.0
 40
1.0
 40
1.0
 40
2.0
 40
2.0
 40
2.0
 40
3.0
 40
3.0
 40
3.0
 40
4.0
 40
4.0
 40
4.0
 40
5.0
 40
5.0
 40
5.0
 40
6.0
 40
6.0
 40
6.0
 40
7.0
 40
7.0
 40
7.0
 40
8.0
 40
8.0
 40
8.0
 40
9.0
 40
9.0
 40
9.0
 40
10.0
 40
10.0
 40
10.0
 40
11.0
 40
11.0
 40
11.0
 40
12.0
 40
12.0
 40
12.0
 40
13.0
 40
13.0
 40
13.0
 40
14.0
 40
14.0
 40
14.0
 40
15.0
 40
15.0
 40
15.0
 40
16.0
 40
16.0
 40
16.0
 40
17.0
 40
17.0
 40
17.0
 40
17.0
 10
3.085560824446639
 20
7.333340913496651
 30
0.0
 10
3.085559013701767
 20
7.333747104510722
 30
0.0
 10
3.085557202956895
 20
7.334153554080507
 30
0.0
 10
3.085555650889849
 20
7.334559745094579
 30
0.0
 10
2.907695235713428
 20
7.334559745094579
 30
0.0
 10
2.729834820537008
 20
7.334505965507749
 30
0.0
 10
2.551974405360574
 20
7.334608870678721
 30
0.0
 10
2.519845841718557
 20
7.334627486689556
 30
0.0
 10
2.509871224245267
 20
7.323459690081613
 30
0.0
 10
2.513208685724521
 20
7.290333533032822
 30
0.0
 10
2.514478535236372
 20
7.277731527923871
 30
0.0
 10
2.516239872642371
 20
7.265087378234865
 30
0.0
 10
2.516237544541822
 20
7.252462878779498
 30
0.0
 10
2.516209866013052
 20
7.09440415594055
 30
0.0
 10
2.51619615608758
 20
6.936344398878797
 30
0.0
 10
2.515582572253379
 20
6.778286968818368
 30
0.0
 10
2.51488207266526
 20
6.597715542105005
 30
0.0
 10
2.513608601663678
 20
6.417145925281538
 30
0.0
 10
2.51252293077323
 20
6.236576049902371
 30
0.0
 10
2.512309780233876
 20
6.201127804058274
 30
0.0
 10
2.525653159204959
 20
6.18892449184793
 30
0.0
 10
2.561374499353355
 20
6.189898988303727
 30
0.0
 10
2.595169206956623
 20
6.190820739395513
 30
0.0
 10
2.629006079047649
 20
6.190228905384553
 30
0.0
 10
2.662824326334253
 20
6.190257087956499
 30
0.0
 10
2.973442606028155
 20
6.190515643662466
 30
0.0
 10
3.284060885722043
 20
6.190630959507327
 30
0.0
 10
3.59467787202675
 20
6.191388269170109
 30
0.0
 10
3.611231960335974
 20
6.191428862415957
 30
0.0
 10
3.628356950635963
 20
6.195089494101075
 30
0.0
 10
3.644156993044387
 20
6.200283102566876
 30
0.0
 10
3.660318149716115
 20
6.205595129546016
 30
0.0
 10
3.671070870129231
 20
6.219969016907978
 30
0.0
 10
3.666432517797451
 20
6.236687228855948
 30
0.0
 10
3.65471932656798
 20
6.278906531527973
 30
0.0
 10
3.664301788437291
 20
6.320812981795775
 30
0.0
 10
3.664317826463325
 20
6.362844573025263
 30
0.0
 10
3.664407587673458
 20
6.599899562153306
 30
0.0
 10
3.66393446590588
 20
6.836954551281362
 30
0.0
 10
3.66426039998305
 20
7.07400902329799
 30
0.0
 10
3.664361025662439
 20
7.147159086519423
 30
0.0
 10
3.666127536625229
 20
7.220311218186502
 30
0.0
 10
3.667671843324279
 20
7.293450939179693
 30
0.0
 10
3.668052617103348
 20
7.311492956342236
 30
0.0
 10
3.660739794593749
 20
7.323875964768225
 30
0.0
 10
3.644024808668645
 20
7.328968219397312
 30
0.0
 10
3.633471270191573
 20
7.332183876712431
 30
0.0
 10
3.621882503002679
 20
7.3331529434984
 30
0.0
 10
3.610755217078627
 20
7.333168456840768
 30
0.0
 10
3.435690591986523
 20
7.333414343317145
 30
0.0
 10
3.260625708216581
 20
7.333340913496651
 30
0.0
 10
3.085560824446639
 20
7.333340913496651
 30
0.0
  0
SPLINE
  5
48
330
41
100
AcDbEntity
  8
Layer 1
 62
     7
420
 16777215
370
    35
100
AcDbSpline
210
0.0
220
0.0
230
1.0
 70
    11
 71
     3
 72
    44
 73
    40
 74
     0
 42
0.0000000001
 43
0.0000000001
 12
1.0
 22
0.0
 32
0.0
 13
1.0
 23
0.0
 33
0.0
 40
0.0
 40
0.0
 40
0.0
 40
0.0
 40
1.0
 40
1.0
 40
1.0
 40
2.0
 40
2.0
 40
2.0
 40
3.0
 40
3.0
 40
3.0
 40
4.0
 40
4.0
 40
4.0
 40
5.0
 40
5.0
 40
5.0
 40
6.0
 40
6.0
 40
6.0
 40
7.0
 40
7.0
 40
7.0
 40
8.0
 40
8.0
 40
8.0
 40
9.0
 40
9.0
 40
9.0
 40
10.0
 40
10.0
 40
10.0
 40
11.0
 40
11.0
 40
11.0
 40
12.0
 40
12.0
 40
12.0
 40
13.0
 40
13.0
 40
13.0
 40
13.0
 10
5.40209382018088
 20
3.876694684161647
 30
0.0
 10
5.40209382018088
 20
3.876733984628951
 30
0.0
 10
5.40209382018088
 20
3.876772767984852
 30
0.0
 10
5.40209382018088
 20
3.876812068452157
 30
0.0
 10
5.537562369773619
 20
3.876812068452157
 30
0.0
 10
5.673030402010706
 20
3.876850851808058
 30
0.0
 10
5.808498951603446
 20
3.876790349772843
 30
0.0
 10
5.852233613849572
 20
3.876770699539192
 30
0.0
 10
5.89598379676603
 20
3.875697176248018
 30
0.0
 10
5.939697247429345
 20
3.876579885428201
 30
0.0
 10
5.975463080166088
 20
3.877301772959249
 30
0.0
 10
5.987149627578118
 20
3.891757622479998
 30
0.0
 10
5.984389535035588
 20
3.927372119643046
 30
0.0
 10
5.982866957275013
 20
3.947013045291315
 30
0.0
 10
5.980629393967344
 20
3.966683446290037
 30
0.0
 10
5.980608699740211
 20
3.986341953726297
 30
0.0
 10
5.980468496351452
 20
4.118920011741945
 30
0.0
 10
5.981133815753461
 20
4.251498069757594
 30
0.0
 10
5.980878759404176
 20
4.384075093550438
 30
0.0
 10
5.980788739516179
 20
4.430609432399377
 30
0.0
 10
5.972119927774353
 20
4.43905231042211
 30
0.0
 10
5.927109466426095
 20
4.439434455755544
 30
0.0
 10
5.773326525829462
 20
4.440740162070672
 30
0.0
 10
5.619541515810144
 20
4.442380439469338
 30
0.0
 10
5.465755471079445
 20
4.442686569425228
 30
0.0
 10
5.283723875748541
 20
4.44304906452501
 30
0.0
 10
5.101669516767793
 20
4.443623058192239
 30
0.0
 10
4.919664306576451
 20
4.441189531887655
 30
0.0
 10
4.829412643247527
 20
4.439983628075045
 30
0.0
 10
4.834457378464422
 20
4.449003085322071
 30
0.0
 10
4.833315574482918
 20
4.355336109720534
 30
0.0
 10
4.831546218063901
 20
4.210170008604083
 30
0.0
 10
4.831978210055088
 20
4.064976500582739
 30
0.0
 10
4.831523971769735
 20
3.919794886123908
 30
0.0
 10
4.831413775010307
 20
3.884728009946103
 30
0.0
 10
4.838914914986743
 20
3.876755186196811
 30
0.0
 10
4.872947606201907
 20
3.87673760440882
 30
0.0
 10
5.049329677528223
 20
3.876644524354687
 30
0.0
 10
5.225711748854565
 20
3.876694684161647
 30
0.0
 10
5.40209382018088
 20
3.876694684161647
 30
0.0
  0
SPLINE
  5
49
330
41
100
AcDbEntity
  8
Layer 1
 62
     7
420
 16777215
370
    35
100
AcDbSpline
210
0.0
220
0.0
230
1.0
 70
    11
 71
     3
 72
    47
 73
    43
 74
     0
 42
0.0000000001
 43
0.0000000001
 12
1.0
 22
0.0
 32
0.0
 13
1.0
 23
0.0
 33
0.0
 40
0.0
 40
0.0
 40
0.0
 40
0.0
 40
1.0
 40
1.0
 40
1.0
 40
2.0
 40
2.0
 40
2.0
 40
3.0
 40
3.0
 40
3.0
 40
4.0
 40
4.0
 40
4.0
 40
5.0
 40
5.0
 40
5.0
 40
6.0
 40
6.0
 40
6.0
 40
7.0
 40
7.0
 40
7.0
 40
8.0
 40
8.0
 40
8.0
 40
9.0
 40
9.0
 40
9.0
 40
10.0
 40
10.0
 40
10.0
 40
11.0
 40
11.0
 40
11.0
 40
12.0
 40
12.0
 40
12.0
 40
13.0
 40
13.0
 40
13.0
 40
14.0
 40
14.0
 40
14.0
 40
14.0
 10
3.083644021659362
 20
3.877226791804509
 30
0.0
 10
3.083644021659362
 20
3.876937726525259
 30
0.0
 10
3.083644021659362
 20
3.876648144134555
 30
0.0
 10
3.083644280337214
 20
3.876359078855305
 30
0.0
 10
3.255782483036278
 20
3.876359078855305
 30
0.0
 10
3.427920944413181
 20
3.876350287961309
 30
0.0
 10
3.600059147112258
 20
3.876385451537292
 30
0.0
 10
3.608515325670396
 20
3.876387519982952
 30
0.0
 10
3.617119467952471
 20
3.87583627921784
 30
0.0
 10
3.625401815002785
 20
3.877143019755774
 30
0.0
 10
3.65919445318333
 20
3.882475472635709
 30
0.0
 10
3.670879965884031
 20
3.898807402358948
 30
0.0
 10
3.666526676530856
 20
3.932921242204555
 30
0.0
 10
3.664573658846128
 20
3.948226705775116
 30
0.0
 10
3.661714492691241
 20
3.963595774049357
 30
0.0
 10
3.661694315819785
 20
3.978940020975819
 30
0.0
 10
3.661516086788702
 20
4.115684445637448
 30
0.0
 10
3.662152175594908
 20
4.25242938741053
 30
0.0
 10
3.661920658928945
 20
4.389173294960756
 30
0.0
 10
3.661850815912405
 20
4.430367424258622
 30
0.0
 10
3.651171560005575
 20
4.440045164333065
 30
0.0
 10
3.60793330053256
 20
4.441028193127118
 30
0.0
 10
3.565620849045469
 20
4.441990020353361
 30
0.0
 10
3.523292359532358
 20
4.442797231267402
 30
0.0
 10
3.48097188903225
 20
4.442759999245709
 30
0.0
 10
3.17902190372451
 20
4.44249627242564
 30
0.0
 10
2.877071659738931
 20
4.442031906377729
 30
0.0
 10
2.575121674431203
 20
4.441547890096116
 30
0.0
 10
2.515795981470584
 20
4.441452741596322
 30
0.0
 10
2.516137694895961
 20
4.441283646164644
 30
0.0
 10
2.515700529347984
 20
4.383862043648731
 30
0.0
 10
2.514519665012775
 20
4.22884548724624
 30
0.0
 10
2.513185404719012
 20
4.073829447955151
 30
0.0
 10
2.511504257443107
 20
3.918817545555334
 30
0.0
 10
2.511179099399442
 20
3.888866452575838
 30
0.0
 10
2.523618658000929
 20
3.875139213034521
 30
0.0
 10
2.554598950715457
 20
3.875312962468923
 30
0.0
 10
2.57009608137437
 20
3.875399320074722
 30
0.0
 10
2.585587262442989
 20
3.877125437967783
 30
0.0
 10
2.601081806323514
 20
3.877139399975906
 30
0.0
 10
2.761935964328081
 20
3.877282122725596
 30
0.0
 10
2.922789863654796
 20
3.877226791804509
 30
0.0
 10
3.083644021659362
 20
3.877226791804509
 30
0.0
  0
SPLINE
  5
4A
330
41
100
AcDbEntity
  8
Layer 1
 62
     7
420
 16777215
370
    35
100
AcDbSpline
210
0.0
220
0.0
230
1.0
 70
    11
 71
     3
 72
    53
 73
    49
 74
     0
 42
0.0000000001
 43
0.0000000001
 12
1.0
 22
0.0
 32
0.0
 13
1.0
 23
0.0
 33
0.0
 40
0.0
 40
0.0
 40
0.0
 40
0.0
 40
1.0
 40
1.0
 40
1.0
 40
2.0
 40
2.0
 40
2.0
 40
3.0
 40
3.0
 40
3.0
 40
4.0
 40
4.0
 40
4.0
 40
5.0
 40
5.0
 40
5.0
 40
6.0
 40
6.0
 40
6.0
 40
7.0
 40
7.0
 40
7.0
 40
8.0
 40
8.0
 40
8.0
 40
9.0
 40
9.0
 40
9.0
 40
10.0
 40
10.0
 40
10.0
 40
11.0
 40
11.0
 40
11.0
 40
12.0
 40
12.0
 40
12.0
 40
13.0
 40
13.0
 40
13.0
 40
14.0
 40
14.0
 40
14.0
 40
15.0
 40
15.0
 40
15.0
 40
16.0
 40
16.0
 40
16.0
 40
16.0
 10
6.570482123211705
 20
4.451566406591028
 30
0.0
 10
6.570482123211705
 20
4.451595364830129
 30
0.0
 10
6.570482123211705
 20
4.451624323069179
 30
0.0
 10
6.570482123211705
 20
4.451653281308229
 30
0.0
 10
6.728539456420599
 20
4.451653281308229
 30
0.0
 10
6.886597306985171
 20
4.451598467498595
 30
0.0
 10
7.04465464019404
 20
4.451718437346168
 30
0.0
 10
7.065813970071657
 20
4.451734467799901
 30
0.0
 10
7.087051938012337
 20
4.451653798419632
 30
0.0
 10
7.108109866177048
 20
4.453374228087164
 30
0.0
 10
7.133055204906819
 20
4.455412164161644
 30
0.0
 10
7.139820147753349
 20
4.46281926802625
 30
0.0
 10
7.1422165392542
 20
4.487507718166423
 30
0.0
 10
7.143029305024457
 20
4.495881820371348
 30
0.0
 10
7.142103238360707
 20
4.504415710002604
 30
0.0
 10
7.142131175567303
 20
4.512876169813327
 30
0.0
 10
7.142639736198866
 20
4.666605635911487
 30
0.0
 10
7.14312915467033
 20
4.820335102009696
 30
0.0
 10
7.143732391390964
 20
4.974064568107855
 30
0.0
 10
7.143869490645657
 20
5.008943215731733
 30
0.0
 10
7.132931039544094
 20
5.019973202148397
 30
0.0
 10
7.098755040806104
 20
5.0192900979732
 30
0.0
 10
7.039576276858067
 20
5.018106429951255
 30
0.0
 10
6.980392339353228
 20
5.016225695746041
 30
0.0
 10
6.92121150598248
 20
5.016243277534082
 30
0.0
 10
6.631951738102265
 20
5.016328083805623
 30
0.0
 10
6.34269197022205
 20
5.016983781075977
 30
0.0
 10
6.053432202341835
 20
5.017220100991204
 30
0.0
 10
6.042250076715896
 20
5.017228891885199
 30
0.0
 10
6.030925678278511
 20
5.015746333467202
 30
0.0
 10
6.019914797382019
 20
5.013656169140151
 30
0.0
 10
6.00144364760768
 20
5.010148602432941
 30
0.0
 10
5.995431974628445
 20
4.997688285850901
 30
0.0
 10
5.995826717010813
 20
4.97967626115024
 30
0.0
 10
5.997336878235122
 20
4.910754617944222
 30
0.0
 10
5.998482821062049
 20
4.841822115398549
 30
0.0
 10
5.999228330594153
 20
4.772887544407265
 30
0.0
 10
6.000112491447983
 20
4.691099135049399
 30
0.0
 10
6.002110001721045
 20
4.609272459447033
 30
0.0
 10
6.000510337964442
 20
4.527522833445068
 30
0.0
 10
5.999125376814214
 20
4.456781475180454
 30
0.0
 10
6.001514525335576
 20
4.452130575141457
 30
0.0
 10
6.070907959791535
 20
4.451596916164337
 30
0.0
 10
6.076552827595024
 20
4.451553478805762
 30
0.0
 10
6.082197695398514
 20
4.451567957925286
 30
0.0
 10
6.087842563202003
 20
4.451567957925286
 30
0.0
 10
6.248722588990454
 20
4.451566406591028
 30
0.0
 10
6.409602097423253
 20
4.451566406591028
 30
0.0
 10
6.570482123211705
 20
4.451566406591028
 30
0.0
  0
SPLINE
  5
4B
330
41
100
AcDbEntity
  8
Layer 1
 62
     7
420
 16777215
370
    35
100
AcDbSpline
210
0.0
220
0.0
230
1.0
 70
    11
 71
     3
 72
    50
 73
    46
 74
     0
 42
0.0000000001
 43
0.0000000001
 12
1.0
 22
0.0
 32
0.0
 13
1.0
 23
0.0
 33
0.0
 40
0.0
 40
0.0
 40
0.0
 40
0.0
 40
1.0
 40
1.0
 40
1.0
 40
2.0
 40
2.0
 40
2.0
 40
3.0
 40
3.0
 40
3.0
 40
4.0
 40
4.0
 40
4.0
 40
5.0
 40
5.0
 40
5.0
 40
6.0
 40
6.0
 40
6.0
 40
7.0
 40
7.0
 40
7.0
 40
8.0
 40
8.0
 40
8.0
 40
9.0
 40
9.0
 40
9.0
 40
10.0
 40
10.0
 40
10.0
 40
11.0
 40
11.0
 40
11.0
 40
12.0
 40
12.0
 40
12.0
 40
13.0
 40
13.0
 40
13.0
 40
14.0
 40
14.0
 40
14.0
 40
15.0
 40
15.0
 40
15.0
 40
15.0
 10
1.934738428092436
 20
4.451595881941532
 30
0.0
 10
1.934738428092436
 20
4.451635182408836
 30
0.0
 10
1.934738428092436
 20
4.45167448287614
 30
0.0
 10
1.934738428092436
 20
4.451713783343444
 30
0.0
 10
2.088650966286423
 20
4.451713783343444
 30
0.0
 10
2.242563633819309
 20
4.451677585544606
 30
0.0
 10
2.396476172013295
 20
4.451755669367811
 30
0.0
 10
2.417653091983955
 20
4.451766528707467
 30
0.0
 10
2.438843980557938
 20
4.451952688815734
 30
0.0
 10
2.460002793079878
 20
4.452746454833105
 30
0.0
 10
2.497893146908622
 20
4.454169028327341
 30
0.0
 10
2.5001493350207
 20
4.455978401157684
 30
0.0
 10
2.500496998036371
 20
4.494944814492934
 30
0.0
 10
2.501945076579305
 20
4.657190071322904
 30
0.0
 10
2.503072911957512
 20
4.819438430821391
 30
0.0
 10
2.503914132290068
 20
4.981687824542683
 30
0.0
 10
2.504066752215092
 20
5.011114566550456
 30
0.0
 10
2.491904496257057
 20
5.020630450752959
 30
0.0
 10
2.461393445142549
 20
5.019679999977825
 30
0.0
 10
2.410676550665105
 20
5.018099707502921
 30
0.0
 10
2.359936633860002
 20
5.016293954452445
 30
0.0
 10
2.309206029457098
 20
5.016284129335594
 30
0.0
 10
2.012710007707634
 20
5.016226212857494
 30
0.0
 10
1.716214115297096
 20
5.01667041156035
 30
0.0
 10
1.41971809354762
 20
5.016892252356052
 30
0.0
 10
1.411259716227846
 20
5.016898974804386
 30
0.0
 10
1.402733565314242
 20
5.016893286578857
 30
0.0
 10
1.394353955396456
 20
5.015912326230414
 30
0.0
 10
1.357211956556044
 20
5.011563936367438
 30
0.0
 10
1.351239085252663
 20
5.002832510176859
 30
0.0
 10
1.356703525263419
 20
4.966334269610822
 30
0.0
 10
1.359392481400214
 20
4.94837240471712
 30
0.0
 10
1.360693242913814
 20
4.930040805163899
 30
0.0
 10
1.360732820623184
 20
4.911872095705424
 30
0.0
 10
1.360978305892432
 20
4.799000119375933
 30
0.0
 10
1.360670479263983
 20
4.68612607460078
 30
0.0
 10
1.360596885418772
 20
4.573253064048433
 30
0.0
 10
1.360587702355487
 20
4.559155055624741
 30
0.0
 10
1.361973698217058
 20
4.544968104038237
 30
0.0
 10
1.360843664077215
 20
4.530973517896933
 30
0.0
 10
1.354880622531722
 20
4.457119148932457
 30
0.0
 10
1.359600717060643
 20
4.451677068433203
 30
0.0
 10
1.43487609755957
 20
4.451628977071904
 30
0.0
 10
1.601496831290875
 20
4.451522452121
 30
0.0
 10
1.768117565022193
 20
4.451595881941532
 30
0.0
 10
1.934738428092436
 20
4.451595881941532
 30
0.0
  0
SPLINE
  5
4C
330
41
100
AcDbEntity
  8
Layer 1
 62
     7
420
 16777215
370
    35
100
AcDbSpline
210
0.0
220
0.0
230
1.0
 70
    11
 71
     3
 72
    53
 73
    49
 74
     0
 42
0.0000000001
 43
0.0000000001
 12
1.0
 22
0.0
 32
0.0
 13
1.0
 23
0.0
 33
0.0
 40
0.0
 40
0.0
 40
0.0
 40
0.0
 40
1.0
 40
1.0
 40
1.0
 40
2.0
 40
2.0
 40
2.0
 40
3.0
 40
3.0
 40
3.0
 40
4.0
 40
4.0
 40
4.0
 40
5.0
 40
5.0
 40
5.0
 40
6.0
 40
6.0
 40
6.0
 40
7.0
 40
7.0
 40
7.0
 40
8.0
 40
8.0
 40
8.0
 40
9.0
 40
9.0
 40
9.0
 40
10.0
 40
10.0
 40
10.0
 40
11.0
 40
11.0
 40
11.0
 40
12.0
 40
12.0
 40
12.0
 40
13.0
 40
13.0
 40
13.0
 40
14.0
 40
14.0
 40
14.0
 40
15.0
 40
15.0
 40
15.0
 40
16.0
 40
16.0
 40
16.0
 40
16.0
 10
4.25174053608776
 20
4.451400413827817
 30
0.0
 10
4.251740794765611
 20
4.451562269699758
 30
0.0
 10
4.251740794765611
 20
4.4517246426831
 30
0.0
 10
4.251740794765611
 20
4.451886498555041
 30
0.0
 10
4.402845643694667
 20
4.451886498555041
 30
0.0
 10
4.553950751301575
 20
4.451829616299695
 30
0.0
 10
4.705055858908483
 20
4.45194441503314
 30
0.0
 10
4.729054954103049
 20
4.451962513932585
 30
0.0
 10
4.753096989818914
 20
4.451991472171636
 30
0.0
 10
4.777042280022948
 20
4.453358714744834
 30
0.0
 10
4.814719741990175
 20
4.455510932441308
 30
0.0
 10
4.81949493489881
 20
4.460675841223772
 30
0.0
 10
4.822871198053942
 20
4.499095150685131
 30
0.0
 10
4.823859347399067
 20
4.510334050112229
 30
0.0
 10
4.824479139501388
 20
4.521646896471212
 30
0.0
 10
4.824481726279777
 20
4.532925613477017
 30
0.0
 10
4.824513284976143
 20
4.681086823891418
 30
0.0
 10
4.824646245385414
 20
4.829249585640077
 30
0.0
 10
4.824144927733363
 20
4.97740924472027
 30
0.0
 10
4.824032144195522
 20
5.010694154972573
 30
0.0
 10
4.813796262104814
 20
5.019025854041729
 30
0.0
 10
4.779697349362853
 20
5.01838101611103
 30
0.0
 10
4.733184487125451
 20
5.017501409599314
 30
0.0
 10
4.686670072821016
 20
5.016071596545291
 30
0.0
 10
4.640155141160928
 20
5.016039018526372
 30
0.0
 10
4.390208713901984
 20
5.015862683534857
 30
0.0
 10
4.140262027965226
 20
5.015986790273751
 30
0.0
 10
3.890315342028455
 20
5.016151748814157
 30
0.0
 10
3.835285770618573
 20
5.016188463724398
 30
0.0
 10
3.780256975242221
 20
5.016937241048885
 30
0.0
 10
3.725226886476674
 20
5.017123401157201
 30
0.0
 10
3.682456833892325
 20
5.017267675241101
 30
0.0
 10
3.675439162797071
 20
5.008404902751888
 30
0.0
 10
3.680012069635584
 20
4.967538104977772
 30
0.0
 10
3.683136897931162
 20
4.939612537398893
 30
0.0
 10
3.684519789658654
 20
4.911326543165842
 30
0.0
 10
3.684300689528982
 20
4.883221020815527
 30
0.0
 10
3.683300641003269
 20
4.75481708611705
 30
0.0
 10
3.68147825562725
 20
4.626420908089762
 30
0.0
 10
3.679907046432934
 20
4.498021627393958
 30
0.0
 10
3.679537137123109
 20
4.467786640249338
 30
0.0
 10
3.687973138809803
 20
4.457044167777718
 30
0.0
 10
3.718021156592436
 20
4.453257360908057
 30
0.0
 10
3.733362563192259
 20
4.451324915561675
 30
0.0
 10
3.749024988990325
 20
4.451481600319489
 30
0.0
 10
3.764542555198507
 20
4.451470740979832
 30
0.0
 10
3.926941795935654
 20
4.451356459357789
 30
0.0
 10
4.089341295350626
 20
4.451400413827817
 30
0.0
 10
4.25174053608776
 20
4.451400413827817
 30
0.0
  0
SPLINE
  5
4D
330
41
100
AcDbEntity
  8
Layer 1
 62
     7
420
 16777215
370
    35
100
AcDbSpline
210
0.0
220
0.0
230
1.0
 70
    11
 71
     3
 72
    44
 73
    40
 74
     0
 42
0.0000000001
 43
0.0000000001
 12
1.0
 22
0.0
 32
0.0
 13
1.0
 23
0.0
 33
0.0
 40
0.0
 40
0.0
 40
0.0
 40
0.0
 40
1.0
 40
1.0
 40
1.0
 40
2.0
 40
2.0
 40
2.0
 40
3.0
 40
3.0
 40
3.0
 40
4.0
 40
4.0
 40
4.0
 40
5.0
 40
5.0
 40
5.0
 40
6.0
 40
6.0
 40
6.0
 40
7.0
 40
7.0
 40
7.0
 40
8.0
 40
8.0
 40
8.0
 40
9.0
 40
9.0
 40
9.0
 40
10.0
 40
10.0
 40
10.0
 40
11.0
 40
11.0
 40
11.0
 40
12.0
 40
12.0
 40
12.0
 40
13.0
 40
13.0
 40
13.0
 40
13.0
 10
7.153849799031402
 20
4.160215494876537
 30
0.0
 10
7.153244492888057
 20
4.160212909319474
 30
0.0
 10
7.152639704100389
 20
4.16021032376241
 30
0.0
 10
7.152034397957045
 20
4.160207738205346
 30
0.0
 10
7.152034397957045
 20
4.079852244569969
 30
0.0
 10
7.15223306253741
 20
3.999496750934592
 30
0.0
 10
7.151940239223626
 20
3.919142808633422
 30
0.0
 10
7.151818143283586
 20
3.885563144876389
 30
0.0
 10
7.160597151784865
 20
3.875729237155535
 30
0.0
 10
7.193658766392294
 20
3.875831625215116
 30
0.0
 10
7.213405715268764
 20
3.875893161473136
 30
0.0
 10
7.233152664145235
 20
3.877121301076461
 30
0.0
 10
7.252896508887615
 20
3.877048905478836
 30
0.0
 10
7.39262030893254
 20
3.876536965180978
 30
0.0
 10
7.532342556910432
 20
3.875733374046856
 30
0.0
 10
7.672066356955358
 20
3.875235395757171
 30
0.0
 10
7.711946719399798
 20
3.875093190118883
 30
0.0
 10
7.724905961779919
 20
3.890051671931992
 30
0.0
 10
7.722503362010936
 20
3.930024384074866
 30
0.0
 10
7.720985440451462
 20
3.9552733829856
 30
0.0
 10
7.720773841979129
 20
3.980622701510255
 30
0.0
 10
7.720675027044636
 20
4.005930134010542
 30
0.0
 10
7.720154567232485
 20
4.138530944928308
 30
0.0
 10
7.720239930919357
 20
4.2711364098488
 30
0.0
 10
7.719190733604237
 20
4.403733083875295
 30
0.0
 10
7.718954302059349
 20
4.433518701202981
 30
0.0
 10
7.707620591219741
 20
4.44280447082714
 30
0.0
 10
7.676312812360997
 20
4.442786889039149
 30
0.0
 10
7.656595870113859
 20
4.442776029699492
 30
0.0
 10
7.636878410511043
 20
4.439881757126866
 30
0.0
 10
7.617164572397971
 20
4.439929331376763
 30
0.0
 10
7.478866087246135
 20
4.440260282680431
 30
0.0
 10
7.340570188872713
 20
4.441287265944513
 30
0.0
 10
7.20227222107658
 20
4.441490490729418
 30
0.0
 10
7.15767874840483
 20
4.441556163878709
 30
0.0
 10
7.153988450353128
 20
4.437233629586318
 30
0.0
 10
7.153895326331066
 20
4.392999919409123
 30
0.0
 10
7.153731324581131
 20
4.315405283602027
 30
0.0
 10
7.153849799031402
 20
4.237810130683581
 30
0.0
 10
7.153849799031402
 20
4.160215494876537
 30
0.0
  0
SPLINE
  5
4E
330
41
100
AcDbEntity
  8
Layer 1
 62
     7
420
 16777215
370
    35
100
AcDbSpline
210
0.0
220
0.0
230
1.0
 70
    11
 71
     3
 72
    41
 73
    37
 74
     0
 42
0.0000000001
 43
0.0000000001
 12
1.0
 22
0.0
 32
0.0
 13
1.0
 23
0.0
 33
0.0
 40
0.0
 40
0.0
 40
0.0
 40
0.0
 40
1.0
 40
1.0
 40
1.0
 40
2.0
 40
2.0
 40
2.0
 40
3.0
 40
3.0
 40
3.0
 40
4.0
 40
4.0
 40
4.0
 40
5.0
 40
5.0
 40
5.0
 40
6.0
 40
6.0
 40
6.0
 40
7.0
 40
7.0
 40
7.0
 40
8.0
 40
8.0
 40
8.0
 40
9.0
 40
9.0
 40
9.0
 40
10.0
 40
10.0
 40
10.0
 40
11.0
 40
11.0
 40
11.0
 40
12.0
 40
12.0
 40
12.0
 40
12.0
 10
0.7718770357704695
 20
4.157196598453664
 30
0.0
 10
0.7716078168094908
 20
4.157196081342262
 30
0.0
 10
0.7713386625179687
 20
4.157195564230808
 30
0.0
 10
0.7710694435569899
 20
4.157195047119406
 30
0.0
 10
0.7710694435569899
 20
4.083885196471707
 30
0.0
 10
0.7723139426406078
 20
4.010546387584908
 30
0.0
 10
0.7706512261607309
 20
3.937273768958852
 30
0.0
 10
0.7694549704941033
 20
3.884554260511701
 30
0.0
 10
0.7758961780250627
 20
3.87668951304752
 30
0.0
 10
0.8303363519786823
 20
3.876859642702053
 30
0.0
 10
0.9714325672986206
 20
3.877300221625041
 30
0.0
 10
1.112530011338297
 20
3.87739640434764
 30
0.0
 10
1.253627002691739
 20
3.87746776572246
 30
0.0
 10
1.270531211456109
 20
3.877476039505053
 30
0.0
 10
1.287564371123229
 20
3.874923577575752
 30
0.0
 10
1.304312338472818
 20
3.876299611042896
 30
0.0
 10
1.334020324236033
 20
3.878738825573009
 30
0.0
 10
1.346205731860664
 20
3.894935272106345
 30
0.0
 10
1.343973471448685
 20
3.92451042508939
 30
0.0
 10
1.342176953856564
 20
3.948311512046656
 30
0.0
 10
1.339894509943823
 20
3.972158621919612
 30
0.0
 10
1.33980953427369
 20
3.995992286895898
 30
0.0
 10
1.339341456723951
 20
4.127150874085777
 30
0.0
 10
1.339782243761672
 20
4.25831204683272
 30
0.0
 10
1.339242124433768
 20
4.389470116911196
 30
0.0
 10
1.339068163587007
 20
4.431696400587271
 30
0.0
 10
1.331549821534294
 20
4.439064721096025
 30
0.0
 10
1.289799476991435
 20
4.439377573500249
 30
0.0
 10
1.13604085211168
 20
4.440528663503224
 30
0.0
 10
0.9822790584283894
 20
4.441383448667162
 30
0.0
 10
0.8285169413978161
 20
4.441855054274811
 30
0.0
 10
0.7790401484807287
 20
4.442006567918548
 30
0.0
 10
0.7723795821422578
 20
4.435310492245334
 30
0.0
 10
0.7720213780046504
 20
4.385662625585079
 30
0.0
 10
0.7714718816050788
 20
4.309511247728778
 30
0.0
 10
0.7718770357704695
 20
4.233352113201287
 30
0.0
 10
0.7718770357704695
 20
4.157196598453664
 30
0.0
  0
ENDBLK
  5
44
330
41
100
AcDbEntity
  8
0
100
AcDbBlockEnd
  0
ENDSEC
  0
SECTION
  2
ENTITIES
  0
INSERT
  5
42
330
1F
100
AcDbEntity
  8
Layer 1
100
AcDbBlockReference
  2
block 2
 10
0.0
 20
0.0
 30
0.0
  0
ENDSEC
  0
SECTION
  2
OBJECTS
  0
DICTIONARY
  5
C
330
0
100
AcDbDictionary
281
     1
  3
ACAD_GROUP
350
D
  3
ACAD_LAYOUT
350
1A
  3
ACAD_MATERIAL
350
3B
  3
ACAD_MLEADERSTYLE
350
50
  3
ACAD_MLINESTYLE
350
17
  3
ACAD_PLOTSETTINGS
350
19
  3
ACAD_PLOTSTYLENAME
350
E
  3
ACAD_TABLESTYLE
350
4F
  3
ACAD_VISUALSTYLE
350
2A
  0
SUN
  5
3F
330
29
100
AcDbSun
 90
        1
290
     0
 63
     7
421
 16777215
 40
1.0
291
     1
 91
  2455826
 92
 54000000
292
     0
 70
     2
 71
   256
280
     1
  0
DICTIONARY
  5
D
102
{ACAD_REACTORS
330
C
102
}
330
C
100
AcDbDictionary
281
     1
  0
DICTIONARY
  5
1A
102
{ACAD_REACTORS
330
C
102
}
330
C
100
AcDbDictionary
281
     1
  3
Layout1
350
1E
  3
Layout2
350
26
  3
Model
350
22
  0
DICTIONARY
  5
3B
102
{ACAD_REACTORS
330
C
102
}
330
C
100
AcDbDictionary
281
     1
  3
ByBlock
350
3D
  3
ByLayer
350
3C
  3
Global
350
3E
  0
DICTIONARY
  5
50
102
{ACAD_REACTORS
330
C
102
}
330
C
100
AcDbDictionary
281
     1
  0
DICTIONARY
  5
17
102
{ACAD_REACTORS
330
C
102
}
330
C
100
AcDbDictionary
281
     1
  3
Standard
350
18
  0
DICTIONARY
  5
19
102
{ACAD_REACTORS
330
C
102
}
330
C
100
AcDbDictionary
281
     1
  0
ACDBDICTIONARYWDFLT
  5
E
102
{ACAD_REACTORS
330
C
102
}
330
C
100
AcDbDictionary
281
     1
  3
Normal
350
F
100
AcDbDictionaryWithDefault
340
F
  0
DICTIONARY
  5
4F
102
{ACAD_REACTORS
330
C
102
}
330
C
100
AcDbDictionary
281
     1
  0
DICTIONARY
  5
2A
102
{ACAD_REACTORS
330
C
102
}
330
C
100
AcDbDictionary
281
     1
  3
2dWireframe
350
2F
  3
3D Hidden
350
31
  3
3dWireframe
350
30
  3
Basic
350
32
  3
Brighten
350
36
  3
ColorChange
350
3A
  3
Conceptual
350
34
  3
Dim
350
35
  3
Facepattern
350
39
  3
Flat
350
2B
  3
FlatWithEdges
350
2C
  3
Gouraud
350
2D
  3
GouraudWithEdges
350
2E
  3
Linepattern
350
38
  3
Realistic
350
33
  3
Thicken
350
37
  0
LAYOUT
  5
1E
102
{ACAD_REACTORS
330
1A
102
}
330
1A
100
AcDbPlotSettings
  1

  2
none_device
  4

  6

 40
0.0
 41
0.0
 42
0.0
 43
0.0
 44
0.0
 45
0.0
 46
0.0
 47
0.0
 48
0.0
 49
0.0
140
0.0
141
0.0
142
1.0
143
1.0
 70
   688
 72
     0
 73
     0
 74
     5
  7

 75
    16
 76
     0
 77
     2
 78
   300
147
1.0
148
0.0
149
0.0
100
AcDbLayout
  1
Layout1
 70
     1
 71
     1
 10
0.0
 20
0.0
 11
12.0
 21
9.0
 12
0.0
 22
0.0
 32
0.0
 14
1.000000000000000E+20
 24
1.000000000000000E+20
 34
1.000000000000000E+20
 15
-1.000000000000000E+20
 25
-1.000000000000000E+20
 35
-1.000000000000000E+20
146
0.0
 13
0.0
 23
0.0
 33
0.0
 16
1.0
 26
0.0
 36
0.0
 17
0.0
 27
1.0
 37
0.0
 76
     0
330
1B
  0
LAYOUT
  5
26
102
{ACAD_REACTORS
330
1A
102
}
330
1A
100
AcDbPlotSettings
  1

  2
none_device
  4

  6

 40
0.0
 41
0.0
 42
0.0
 43
0.0
 44
0.0
 45
0.0
 46
0.0
 47
0.0
 48
0.0
 49
0.0
140
0.0
141
0.0
142
1.0
143
1.0
 70
   688
 72
     0
 73
     0
 74
     5
  7

 75
    16
 76
     0
 77
     2
 78
   300
147
1.0
148
0.0
149
0.0
100
AcDbLayout
  1
Layout2
 70
     1
 71
     2
 10
0.0
 20
0.0
 11
0.0
 21
0.0
 12
0.0
 22
0.0
 32
0.0
 14
0.0
 24
0.0
 34
0.0
 15
0.0
 25
0.0
 35
0.0
146
0.0
 13
0.0
 23
0.0
 33
0.0
 16
1.0
 26
0.0
 36
0.0
 17
0.0
 27
1.0
 37
0.0
 76
     0
330
23
  0
LAYOUT
  5
22
102
{ACAD_REACTORS
330
1A
102
}
330
1A
100
AcDbPlotSettings
  1

  2
none_device
  4

  6

 40
0.0
 41
0.0
 42
0.0
 43
0.0
 44
0.0
 45
0.0
 46
0.0
 47
0.0
 48
0.0
 49
0.0
140
0.0
141
0.0
142
1.0
143
1.0
 70
  1712
 72
     0
 73
     0
 74
     0
  7

 75
     0
 76
     0
 77
     2
 78
   300
147
1.0
148
0.0
149
0.0
100
AcDbLayout
  1
Model
 70
     1
 71
     0
 10
0.0
 20
0.0
 11
12.0
 21
9.0
 12
0.0
 22
0.0
 32
0.0
 14
1.000000000000000E+20
 24
1.000000000000000E+20
 34
1.000000000000000E+20
 15
-1.000000000000000E+20
 25
-1.000000000000000E+20
 35
-1.000000000000000E+20
146
0.0
 13
0.0
 23
0.0
 33
0.0
 16
1.0
 26
0.0
 36
0.0
 17
0.0
 27
1.0
 37
0.0
 76
     0
330
1F
331
29
  0
MATERIAL
  5
3D
102
{ACAD_REACTORS
330
3B
102
}
330
3B
100
AcDbMaterial
  1
ByBlock
 72
     1
 94
      127
  0
MATERIAL
  5
3C
102
{ACAD_REACTORS
330
3B
102
}
330
3B
100
AcDbMaterial
  1
ByLayer
 72
     1
 94
      127
  0
MATERIAL
  5
3E
102
{ACAD_REACTORS
330
3B
102
}
330
3B
100
AcDbMaterial
  1
Global
 72
     1
 94
      127
  0
MLINESTYLE
  5
18
102
{ACAD_REACTORS
330
17
102
}
330
17
100
AcDbMlineStyle
  2
Standard
 70
     0
  3

 62
   256
 51
90.0
 52
90.0
 71
     2
 49
0.5
 62
   256
  6
BYLAYER
 49
-0.5
 62
   256
  6
BYLAYER
  0
ACDBPLACEHOLDER
  5
F
102
{ACAD_REACTORS
330
E
102
}
330
E
  0
VISUALSTYLE
  5
2F
102
{ACAD_REACTORS
330
2A
102
}
330
2A
100
AcDbVisualStyle
  2
2dWireframe
 70
     4
177
     2
291
     0
 71
     0
176
     1
 72
     2
176
     1
 73
     0
176
     1
 90
        0
176
     1
 40
-0.6
176
     1
 41
-30.0
176
     1
 62
     5
 63
     7
421
 16777215
176
     1
 74
     1
176
     1
 91
        4
176
     1
 64
     7
176
     1
 65
   257
176
     1
 75
     1
176
     1
175
     1
176
     1
 42
1.0
176
     1
 92
        0
176
     1
 66
   257
176
     1
 43
1.0
176
     1
 76
     1
176
     1
 77
     6
176
     1
 78
     2
176
     1
 67
     7
176
     1
 79
     5
176
     1
170
     0
176
     1
171
     0
176
     1
290
     0
176
     1
 93
        1
176
     1
 44
0.0
176
     1
173
     0
176
     1
  0
VISUALSTYLE
  5
31
102
{ACAD_REACTORS
330
2A
102
}
330
2A
100
AcDbVisualStyle
  2
3D Hidden
 70
     6
177
     2
291
     0
 71
     1
176
     1
 72
     2
176
     1
 73
     2
176
     1
 90
        0
176
     1
 40
-0.6
176
     1
 41
-30.0
176
     1
 62
     5
 63
     7
421
 16777215
176
     1
 74
     2
176
     1
 91
        2
176
     1
 64
     7
176
     1
 65
   257
176
     1
 75
     2
176
     1
175
     1
176
     1
 42
40.0
176
     1
 92
        0
176
     1
 66
   257
176
     1
 43
1.0
176
     1
 76
     1
176
     1
 77
     6
176
     1
 78
     2
176
     1
 67
     7
176
     1
 79
     3
176
     1
170
     0
176
     1
171
     0
176
     1
290
     0
176
     1
 93
        1
176
     1
 44
0.0
176
     1
173
     0
176
     1
  0
VISUALSTYLE
  5
30
102
{ACAD_REACTORS
330
2A
102
}
330
2A
100
AcDbVisualStyle
  2
3dWireframe
 70
     5
177
     2
291
     0
 71
     0
176
     1
 72
     2
176
     1
 73
     0
176
     1
 90
        0
176
     1
 40
-0.6
176
     1
 41
-30.0
176
     1
 62
     5
 63
     7
421
 16777215
176
     1
 74
     1
176
     1
 91
        4
176
     1
 64
     7
176
     1
 65
   257
176
     1
 75
     1
176
     1
175
     1
176
     1
 42
1.0
176
     1
 92
        0
176
     1
 66
   257
176
     1
 43
1.0
176
     1
 76
     1
176
     1
 77
     6
176
     1
 78
     2
176
     1
 67
     7
176
     1
 79
     5
176
     1
170
     0
176
     1
171
     0
176
     1
290
     0
176
     1
 93
        1
176
     1
 44
0.0
176
     1
173
     0
176
     1
  0
VISUALSTYLE
  5
32
102
{ACAD_REACTORS
330
2A
102
}
330
2A
100
AcDbVisualStyle
  2
Basic
 70
     7
177
     2
291
     1
 71
     1
176
     1
 72
     0
176
     1
 73
     1
176
     1
 90
        0
176
     1
 40
-0.6
176
     1
 41
-30.0
176
     1
 62
     5
 63
     7
421
 16777215
176
     1
 74
     0
176
     1
 91
        4
176
     1
 64
     7
176
     1
 65
   257
176
     1
 75
     1
176
     1
175
     1
176
     1
 42
1.0
176
     1
 92
        8
176
     1
 66
     7
176
     1
 43
1.0
176
     1
 76
     1
176
     1
 77
     6
176
     1
 78
     2
176
     1
 67
     7
176
     1
 79
     5
176
     1
170
     0
176
     1
171
     0
176
     1
290
     0
176
     1
 93
        1
176
     1
 44
0.0
176
     1
173
     0
176
     1
  0
VISUALSTYLE
  5
36
102
{ACAD_REACTORS
330
2A
102
}
330
2A
100
AcDbVisualStyle
  2
Brighten
 70
    12
177
     2
291
     1
 71
     2
176
     1
 72
     2
176
     1
 73
     0
176
     1
 90
        0
176
     1
 40
-0.6
176
     1
 41
-30.0
176
     1
 62
     5
 63
     7
421
 16777215
176
     1
 74
     1
176
     1
 91
        4
176
     1
 64
     7
176
     1
 65
   257
176
     1
 75
     1
176
     1
175
     1
176
     1
 42
1.0
176
     1
 92
        8
176
     1
 66
     7
176
     1
 43
1.0
176
     1
 76
     1
176
     1
 77
     6
176
     1
 78
     2
176
     1
 67
     7
176
     1
 79
     5
176
     1
170
     0
176
     1
171
     0
176
     1
290
     0
176
     1
 93
        1
176
     1
 44
50.0
176
     1
173
     0
176
     1
  0
VISUALSTYLE
  5
3A
102
{ACAD_REACTORS
330
2A
102
}
330
2A
100
AcDbVisualStyle
  2
ColorChange
 70
    16
177
     2
291
     1
 71
     2
176
     1
 72
     2
176
     1
 73
     3
176
     1
 90
        0
176
     1
 40
-0.6
176
     1
 41
-30.0
176
     1
 62
     5
 63
     8
421
  8421504
176
     1
 74
     1
176
     1
 91
        4
176
     1
 64
     7
176
     1
 65
   257
176
     1
 75
     1
176
     1
175
     1
176
     1
 42
1.0
176
     1
 92
        8
176
     1
 66
     8
424
  8421504
176
     1
 43
1.0
176
     1
 76
     1
176
     1
 77
     6
176
     1
 78
     2
176
     1
 67
     7
176
     1
 79
     5
176
     1
170
     0
176
     1
171
     0
176
     1
290
     0
176
     1
 93
        1
176
     1
 44
0.0
176
     1
173
     0
176
     1
  0
VISUALSTYLE
  5
34
102
{ACAD_REACTORS
330
2A
102
}
330
2A
100
AcDbVisualStyle
  2
Conceptual
 70
     9
177
     2
291
     0
 71
     3
176
     1
 72
     2
176
     1
 73
     0
176
     1
 90
        0
176
     1
 40
-0.6
176
     1
 41
-30.0
176
     1
 62
     5
 63
     7
421
 16777215
176
     1
 74
     2
176
     1
 91
        2
176
     1
 64
     7
176
     1
 65
   257
176
     1
 75
     1
176
     1
175
     1
176
     1
 42
40.0
176
     1
 92
        8
176
     1
 66
     7
176
     1
 43
1.0
176
     1
 76
     1
176
     1
 77
     6
176
     1
 78
     2
176
     1
 67
     7
176
     1
 79
     3
176
     1
170
     0
176
     1
171
     0
176
     1
290
     0
176
     1
 93
        1
176
     1
 44
0.0
176
     1
173
     0
176
     1
  0
VISUALSTYLE
  5
35
102
{ACAD_REACTORS
330
2A
102
}
330
2A
100
AcDbVisualStyle
  2
Dim
 70
    11
177
     2
291
     1
 71
     2
176
     1
 72
     2
176
     1
 73
     0
176
     1
 90
        0
176
     1
 40
-0.6
176
     1
 41
-30.0
176
     1
 62
     5
 63
     7
421
 16777215
176
     1
 74
     1
176
     1
 91
        4
176
     1
 64
     7
176
     1
 65
   257
176
     1
 75
     1
176
     1
175
     1
176
     1
 42
1.0
176
     1
 92
        8
176
     1
 66
     7
176
     1
 43
1.0
176
     1
 76
     1
176
     1
 77
     6
176
     1
 78
     2
176
     1
 67
     7
176
     1
 79
     5
176
     1
170
     0
176
     1
171
     0
176
     1
290
     0
176
     1
 93
        1
176
     1
 44
-50.0
176
     1
173
     0
176
     1
  0
VISUALSTYLE
  5
39
102
{ACAD_REACTORS
330
2A
102
}
330
2A
100
AcDbVisualStyle
  2
Facepattern
 70
    15
177
     2
291
     1
 71
     2
176
     1
 72
     2
176
     1
 73
     0
176
     1
 90
        0
176
     1
 40
-0.6
176
     1
 41
-30.0
176
     1
 62
     5
 63
     7
421
 16777215
176
     1
 74
     1
176
     1
 91
        4
176
     1
 64
     7
176
     1
 65
   257
176
     1
 75
     1
176
     1
175
     1
176
     1
 42
1.0
176
     1
 92
        8
176
     1
 66
     7
176
     1
 43
1.0
176
     1
 76
     1
176
     1
 77
     6
176
     1
 78
     2
176
     1
 67
     7
176
     1
 79
     5
176
     1
170
     0
176
     1
171
     0
176
     1
290
     0
176
     1
 93
        1
176
     1
 44
0.0
176
     1
173
     0
176
     1
  0
VISUALSTYLE
  5
2B
102
{ACAD_REACTORS
330
2A
102
}
330
2A
100
AcDbVisualStyle
  2
Flat
 70
     0
177
     2
291
     1
 71
     2
176
     1
 72
     1
176
     1
 73
     1
176
     1
 90
        2
176
     1
 40
-0.6
176
     1
 41
30.0
176
     1
 62
     5
 63
     7
421
 16777215
176
     1
 74
     0
176
     1
 91
        4
176
     1
 64
     7
176
     1
 65
   257
176
     1
 75
     1
176
     1
175
     1
176
     1
 42
1.0
176
     1
 92
        8
176
     1
 66
     7
176
     1
 43
1.0
176
     1
 76
     1
176
     1
 77
     6
176
     1
 78
     2
176
     1
 67
     7
176
     1
 79
     5
176
     1
170
     0
176
     1
171
     0
176
     1
290
     0
176
     1
 93
       13
176
     1
 44
0.0
176
     1
173
     0
176
     1
  0
VISUALSTYLE
  5
2C
102
{ACAD_REACTORS
330
2A
102
}
330
2A
100
AcDbVisualStyle
  2
FlatWithEdges
 70
     1
177
     2
291
     1
 71
     2
176
     1
 72
     1
176
     1
 73
     1
176
     1
 90
        2
176
     1
 40
-0.6
176
     1
 41
30.0
176
     1
 62
     5
 63
     7
421
 16777215
176
     1
 74
     1
176
     1
 91
        4
176
     1
 64
     7
176
     1
 65
   257
176
     1
 75
     1
176
     1
175
     1
176
     1
 42
1.0
176
     1
 92
        0
176
     1
 66
   257
176
     1
 43
1.0
176
     1
 76
     1
176
     1
 77
     6
176
     1
 78
     2
176
     1
 67
     7
176
     1
 79
     5
176
     1
170
     0
176
     1
171
     0
176
     1
290
     0
176
     1
 93
       13
176
     1
 44
0.0
176
     1
173
     0
176
     1
  0
VISUALSTYLE
  5
2D
102
{ACAD_REACTORS
330
2A
102
}
330
2A
100
AcDbVisualStyle
  2
Gouraud
 70
     2
177
     2
291
     1
 71
     2
176
     1
 72
     2
176
     1
 73
     1
176
     1
 90
        2
176
     1
 40
-0.6
176
     1
 41
30.0
176
     1
 62
     5
 63
     7
421
 16777215
176
     1
 74
     0
176
     1
 91
        4
176
     1
 64
     7
176
     1
 65
   257
176
     1
 75
     1
176
     1
175
     1
176
     1
 42
1.0
176
     1
 92
        0
176
     1
 66
     7
176
     1
 43
1.0
176
     1
 76
     1
176
     1
 77
     6
176
     1
 78
     2
176
     1
 67
     7
176
     1
 79
     5
176
     1
170
     0
176
     1
171
     0
176
     1
290
     0
176
     1
 93
       13
176
     1
 44
0.0
176
     1
173
     0
176
     1
  0
VISUALSTYLE
  5
2E
102
{ACAD_REACTORS
330
2A
102
}
330
2A
100
AcDbVisualStyle
  2
GouraudWithEdges
 70
     3
177
     2
291
     1
 71
     2
176
     1
 72
     2
176
     1
 73
     1
176
     1
 90
        2
176
     1
 40
-0.6
176
     1
 41
30.0
176
     1
 62
     5
 63
     7
421
 16777215
176
     1
 74
     1
176
     1
 91
        4
176
     1
 64
     7
176
     1
 65
   257
176
     1
 75
     1
176
     1
175
     1
176
     1
 42
1.0
176
     1
 92
        0
176
     1
 66
   257
176
     1
 43
1.0
176
     1
 76
     1
176
     1
 77
     6
176
     1
 78
     2
176
     1
 67
     7
176
     1
 79
     5
176
     1
170
     0
176
     1
171
     0
176
     1
290
     0
176
     1
 93
       13
176
     1
 44
0.0
176
     1
173
     0
176
     1
  0
VISUALSTYLE
  5
38
102
{ACAD_REACTORS
330
2A
102
}
330
2A
100
AcDbVisualStyle
  2
Linepattern
 70
    14
177
     2
291
     1
 71
     2
176
     1
 72
     2
176
     1
 73
     0
176
     1
 90
        0
176
     1
 40
-0.6
176
     1
 41
-30.0
176
     1
 62
     5
 63
     7
421
 16777215
176
     1
 74
     1
176
     1
 91
        4
176
     1
 64
     7
176
     1
 65
   257
176
     1
 75
     7
176
     1
175
     7
176
     1
 42
1.0
176
     1
 92
        8
176
     1
 66
     7
176
     1
 43
1.0
176
     1
 76
     1
176
     1
 77
     6
176
     1
 78
     2
176
     1
 67
     7
176
     1
 79
     5
176
     1
170
     0
176
     1
171
     0
176
     1
290
     0
176
     1
 93
        1
176
     1
 44
0.0
176
     1
173
     0
176
     1
  0
VISUALSTYLE
  5
33
102
{ACAD_REACTORS
330
2A
102
}
330
2A
100
AcDbVisualStyle
  2
Realistic
 70
     8
177
     2
291
     0
 71
     2
176
     1
 72
     2
176
     1
 73
     0
176
     1
 90
        0
176
     1
 40
-0.6
176
     1
 41
-30.0
176
     1
 62
     5
 63
     7
421
 16777215
176
     1
 74
     1
176
     1
 91
        0
176
     1
 64
     7
176
     1
 65
   257
176
     1
 75
     1
176
     1
175
     1
176
     1
 42
1.0
176
     1
 92
        8
176
     1
 66
     8
424
  7895160
176
     1
 43
1.0
176
     1
 76
     1
176
     1
 77
     6
176
     1
 78
     2
176
     1
 67
     7
176
     1
 79
     5
176
     1
170
     0
176
     1
171
     0
176
     1
290
     0
176
     1
 93
       13
176
     1
 44
0.0
176
     1
173
     0
176
     1
  0
VISUALSTYLE
  5
37
102
{ACAD_REACTORS
330
2A
102
}
330
2A
100
AcDbVisualStyle
  2
Thicken
 70
    13
177
     2
291
     1
 71
     2
176
     1
 72
     2
176
     1
 73
     0
176
     1
 90
        0
176
     1
 40
-0.6
176
     1
 41
-30.0
176
     1
 62
     5
 63
     7
421
 16777215
176
     1
 74
     1
176
     1
 91
        4
176
     1
 64
     7
176
     1
 65
   257
176
     1
 75
     1
176
     1
175
     1
176
     1
 42
1.0
176
     1
 92
       12
176
     1
 66
     7
176
     1
 43
1.0
176
     1
 76
     1
176
     1
 77
     6
176
     1
 78
     2
176
     1
 67
     7
176
     1
 79
     5
176
     1
170
     0
176
     1
171
     0
176
     1
290
     0
176
     1
 93
        1
176
     1
 44
0.0
176
     1
173
     0
176
     1
  0
ENDSEC
  0
EOF
